<?xml version="1.0" standalone="no"?>
<!DOCTYPE svg PUBLIC "-//W3C//DTD SVG 1.1//EN" "http://www.w3.org/Graphics/SVG/1.1/DTD/svg11.dtd" >
<svg xmlns="http://www.w3.org/2000/svg">
<metadata>
This is a custom SVG webfont generated by Font Squirrel.
Copyright   : Copyright c 2008 by Prinya R nont All rights reserved
Designer    : Prinya Rojarayanont
Foundry     : Prinya R nont
Foundry URL : httpwwwdbfontsbiz
</metadata>
<defs>
<font id="DBHelvethaicaX65Medium" horiz-adv-x="0" >
<font-face units-per-em="2048" ascent="1638" descent="-410" />
<missing-glyph horiz-adv-x="501" />
<glyph unicode=" "  horiz-adv-x="501" />
<glyph unicode="&#x09;" horiz-adv-x="501" />
<glyph unicode="&#xa0;" horiz-adv-x="501" />
<glyph unicode="!" horiz-adv-x="745" d="M230 0v274h286v-274h-286zM245 988v452h259v-452l-52 -592h-154z" />
<glyph unicode="&#x22;" horiz-adv-x="882" d="M206 914v526h172v-526h-172zM508 914v526h170v-526h-170z" />
<glyph unicode="#" horiz-adv-x="1182" d="M74 404v194h218l32 242h-198v192h224l60 408h195l-59 -408h192l56 408h196l-56 -408h175v-192h-197l-36 -242h174v-194h-204l-56 -404h-200l58 404h-185l-59 -404h-198l57 404h-189zM490 598h188l32 242h-185z" />
<glyph unicode="$" horiz-adv-x="1164" d="M50 484h238q3 -124 61 -198q59 -74 159 -94v445q-100 28 -178 60.5t-130.5 78t-79.5 108.5q-28 64 -28 152q0 90 32.5 166t89 132t132.5 91t162 44v138h173v-138q162 -27 260 -139q99 -113 139 -304h-237q-20 87 -58.5 141.5t-103.5 74.5v-410q50 -10 101 -27t99.5 -42 t90.5 -59.5t74 -78t50 -96.5t18 -117q0 -93 -32 -170.5t-89 -135t-137 -93t-175 -43.5v-168h-173v172q-100 13 -181 52.5t-139 103.5t-93 153t-45 201zM339 1056q0 -42 10.5 -70t32.5 -48t53 -32.5t73 -23.5v368q-36 -8 -67.5 -24t-54 -40t-35 -56.5t-12.5 -73.5zM681 183 q41 6 76 23t60 43.5t39 63.5t14 85q0 41 -14.5 71.5t-40 53.5t-60.5 39t-74 28v-407z" />
<glyph unicode="%" horiz-adv-x="2028" d="M194 1026q0 56 7.5 109t24 99.5t42.5 86t64 67.5t88 44t114 16q100 0 166 -33.5t106 -91t56.5 -133.5t16.5 -160q0 -54 -8.5 -106.5t-26.5 -99t-45 -85.5t-65.5 -67.5t-88 -45t-111.5 -16.5q-93 0 -157.5 32t-105.5 88.5t-59 132.5t-18 163zM396 1030q0 -40 4 -85 t18 -83.5t41 -64t71 -25.5q31 0 54 12t39.5 31t26.5 45t15.5 54.5t8 58t2.5 57.5q0 39 -4 83.5t-19 83t-43 64t-76 25.5q-43 0 -70.5 -25.5t-42.5 -64t-20 -83t-5 -83.5zM450 -29l890 1498h234l-886 -1498h-238zM1150 401q0 84 17.5 160.5t58 135.5t107.5 94t165 35 t164 -33.5t104.5 -91t55 -133.5t16.5 -161q0 -82 -19 -157.5t-60 -133.5t-105 -93q-66 -35 -156 -35q-95 0 -161 33t-107.5 89t-60.5 131t-19 160zM1354 404q0 -38 4.5 -82t19 -82t42.5 -64q26 -26 72 -26t74 25t43 62t20 82.5t5 87.5q0 38 -5 83.5t-19 83.5t-41 64t-71 26 q-31 0 -53.5 -12t-38.5 -32t-26 -46.5t-16 -55t-8 -58.5t-2 -56z" />
<glyph unicode="&#x26;" horiz-adv-x="1318" d="M70 378q0 84 25 147t67.5 112t101 88t126.5 77q-28 34 -54 70t-46 74.5t-32.5 81t-12.5 90.5q0 62 22.5 118t66.5 98t109 67.5t149 25.5q72 0 140 -19.5t120 -58.5t83.5 -96t31.5 -133q0 -62 -20.5 -116t-55 -99.5t-81 -83t-96.5 -65.5l206 -242q14 44 21 89t11 96h216 q-6 -46 -12 -82.5t-12 -66.5t-12 -55t-14.5 -49t-19.5 -49l-24 -55l306 -342h-295l-135 154q-35 -45 -81.5 -78.5t-99.5 -55.5t-111 -33t-115 -11q-103 0 -178 22t-128 57t-85 79t-50.5 88.5t-25 85.5t-6.5 70zM304 380q0 -48 21 -86t55 -64.5t78 -41t90 -14.5 q85 0 152.5 35t116.5 97l-152 176l-149 172q-43 -25 -81.5 -51.5t-67.5 -59.5t-46 -72t-17 -91zM468 1112q0 -24 10 -49.5t26 -51.5t37 -52.5l43 -53.5l54 39q28 20 51.5 45t38.5 55t15 68q0 24 -9.5 46t-27.5 38.5t-44 26t-57 9.5q-26 0 -50.5 -7t-43.5 -22t-31 -37.5 t-12 -53.5z" />
<glyph unicode="'" horiz-adv-x="583" d="M206 914v526h172v-526h-172z" />
<glyph unicode="(" horiz-adv-x="578" d="M88 543q0 120 20 241.5t60 240.5t100 233q59 112 139 216h198q-74 -118 -125.5 -231.5t-83.5 -228t-47 -231.5t-15 -240t15 -240t47 -232t84 -230t125 -233h-198q-71 110 -129.5 221t-101 226t-65.5 236.5t-23 251.5z" />
<glyph unicode=")" horiz-adv-x="578" d="M-26 -392q72 119 123.5 233.5t84 229.5t48 232t15.5 240q0 122 -15.5 239.5t-48 232t-83.5 228.5q-52 113 -124 231h198q79 -104 138.5 -217t99.5 -232t60 -240.5t20 -241.5q0 -130 -23 -251.5t-65 -236.5t-101 -227q-59 -110 -129 -220h-198z" />
<glyph unicode="*" horiz-adv-x="761" d="M41 1168l53 148l207 -74v212h159v-212l201 74l59 -148l-210 -74l127 -176l-129 -90l-125 180l-124 -180l-138 90l127 176z" />
<glyph unicode="+" horiz-adv-x="1238" d="M92 445v192h433v437h191v-437h431v-192h-431v-433h-191v433h-433z" />
<glyph unicode="," horiz-adv-x="583" d="M150 -3v283h284v-232q0 -62 -16.5 -118t-50 -104t-86.5 -84.5t-127 -59.5v164q28 10 50 27t36 38t21 43t7 43h-118z" />
<glyph unicode="-" horiz-adv-x="955" d="M92 445v192h772v-192h-772z" />
<glyph unicode="." horiz-adv-x="583" d="M150 -3v283h284v-283h-284z" />
<glyph unicode="/" horiz-adv-x="761" d="M-26 -30l589 1504h225l-596 -1504h-218z" />
<glyph unicode="0" horiz-adv-x="1141" d="M65 705q0 76 4.5 160t21.5 164.5t50 153.5t89 128t139 87t201 32t201 -32t139.5 -87t89 -128t50 -153.5t22 -164.5t4.5 -160q0 -60 -2 -123.5t-10 -126.5t-23 -122.5t-41 -113t-63 -98t-89 -77t-121 -50.5t-157 -18t-156.5 18t-121 50.5t-89.5 77t-62 98t-40 113 t-23 122.5t-10.5 126.5t-2.5 123.5zM310 705q0 -48 1 -105.5t9 -115.5t24 -111.5t44.5 -95t73 -66.5t108.5 -25q65 0 109.5 25t73.5 66.5t45 95t23 111.5t9 115t2 106q0 48 -2 105t-11 114.5t-25.5 111.5t-46 96t-72.5 67t-105 25q-61 0 -104.5 -25t-72.5 -67t-45.5 -96 t-25 -111.5t-10.5 -114.5t-2 -105z" />
<glyph unicode="1" horiz-adv-x="1141" d="M150 929v209q78 4 144 14.5t118 38t88 78.5t52 138h206v-1407h-233v990q-72 -33 -163.5 -46t-211.5 -15z" />
<glyph unicode="2" horiz-adv-x="1141" d="M48 0q8 88 28.5 159t51 129.5t69.5 106t82 86.5t90 72l94 63l153 102q64 44 105 86t61 88.5t20 107.5q0 50 -18 90t-50 67.5t-74 43t-90 15.5q-66 0 -113.5 -29.5t-78 -77t-44.5 -108.5t-10 -125h-236q-10 118 21 218t96 173t160 115t213 42q98 0 185 -28t151 -83 t101 -134t37 -183q0 -100 -32 -175t-83.5 -133t-115 -103t-125.5 -81l-113 -70q-57 -36 -106 -73t-86 -75t-52 -76h702v-210h-993z" />
<glyph unicode="3" horiz-adv-x="1141" d="M56 463h242q1 -66 16.5 -118.5t46.5 -89.5t78 -57.5t109 -20.5q60 0 110.5 16.5t86 46.5t55.5 73t20 97q0 56 -20 99t-55.5 71t-84 42.5t-106.5 14.5h-23q-11 0 -23 -0.5t-26 -0.5q-14 -2 -30 -2v194h78q46 0 89 13t75 37t51 60t19 82q0 48 -16 84t-45.5 61t-69 38 t-87.5 13q-62 0 -103.5 -23t-67 -62.5t-36.5 -92t-11 -112.5h-242q3 111 33.5 202.5t88 157.5t142 102t196.5 36q99 0 183.5 -25t147 -75.5t97 -127t34.5 -178.5q0 -88 -38 -152t-109 -114q54 -20 92.5 -53t64.5 -76t38 -96t12 -115q0 -68 -18.5 -127t-51 -109t-76.5 -88 t-96 -64q-30 -16 -63 -26t-69 -15t-72 -7t-74 -2q-114 0 -205 31t-155 92t-98 152.5t-34 213.5z" />
<glyph unicode="4" horiz-adv-x="1141" d="M50 295v206l646 906h209v-893h193v-219h-193v-295h-233v295h-622zM310 514h362v494l-91 -122l-88 -122l-90 -124z" />
<glyph unicode="5" horiz-adv-x="1141" d="M65 434h236q5 -54 25 -99t54 -78.5t80 -52t103 -18.5q56 0 104 18t84 55t56.5 92.5t20.5 129.5q0 60 -20 111.5t-57 88t-89 57t-116 20.5q-40 0 -74 -10t-64 -27t-57 -40t-53 -49l-204 5l142 770h764v-207h-575l-57 -288q49 31 105 41.5t114 10.5q103 0 192 -31 t155.5 -93t104 -155.5t37.5 -218.5q0 -94 -32.5 -181t-98.5 -155t-165 -108q-100 -40 -232 -40q-97 0 -183.5 29t-152 86t-105.5 142t-42 195z" />
<glyph unicode="6" horiz-adv-x="1141" d="M59 664q0 98 10.5 193t36 180.5t66.5 157.5t102 124.5t143.5 81.5t190.5 29q94 0 170 -24.5t132 -75t90 -125.5t44 -175h-236q-11 100 -65.5 144t-146.5 44q-55 0 -97 -16.5t-73.5 -45t-52.5 -66.5t-36 -82t-23 -91.5t-13 -93.5q30 28 66 50t76.5 37.5t84.5 24.5t88 9 q112 0 199 -37t146 -101t90 -151t31 -187q0 -54 -10 -111.5t-34 -112t-63 -103.5t-95 -86t-131 -58t-171 -21q-113 0 -195 30t-140 82t-94 120t-55.5 145t-27 156.5t-7.5 154.5zM324 457q0 -58 18 -108t52 -86t82.5 -56.5t110.5 -20.5q60 0 107.5 21t79.5 57.5t49 85.5 q17 48 17 104q0 58 -15 109t-47 89t-79.5 60t-111.5 22q-63 0 -112 -21.5t-82 -59t-51 -88t-18 -108.5z" />
<glyph unicode="7" horiz-adv-x="1141" d="M83 1188v219h982v-180q-72 -68 -138.5 -155.5t-124.5 -187.5t-106 -210t-84 -223t-59 -228t-28 -223h-262q10 174 52.5 338t110.5 315t157 286t193 249h-693z" />
<glyph unicode="8" horiz-adv-x="1141" d="M62 425q0 113 51 202t153 140q-35 23 -63.5 54.5t-48.5 68t-31 77.5t-11 83q0 62 17 114t47 94.5t72 74.5t92 53.5t105.5 32.5t114.5 11q82 0 148 -14.5t117.5 -41t89 -62.5t61.5 -78t35.5 -89t11.5 -95q0 -94 -37.5 -164t-115.5 -116q102 -51 157 -140.5t55 -204.5 q0 -109 -40 -192.5t-109 -140t-160.5 -86.5t-194.5 -30q-108 0 -202.5 28t-164 84t-109.5 140.5t-40 196.5zM306 419q0 -56 20.5 -99.5t56.5 -73.5t85.5 -45t109.5 -15q58 0 105 17t81 48t52 74t18 97q0 48 -20 89t-56 72t-83 48t-99 17q-56 0 -105 -16t-85.5 -45t-58 -72.5 t-21.5 -95.5zM354 1041q0 -46 18.5 -81.5t49.5 -59.5t71.5 -36t84.5 -12t80.5 13t63 37t41.5 59t15 80q0 44 -15 77.5t-42 55.5t-65 33t-84 11q-41 0 -80 -11t-69.5 -32t-49.5 -54.5t-19 -79.5z" />
<glyph unicode="9" horiz-adv-x="1141" d="M59 938q0 55 10.5 112.5t34.5 112.5t62.5 103t94.5 85t130.5 58t171.5 21q113 0 195 -30t140 -81.5t94 -120t56 -145t27 -156.5t7 -154q0 -98 -11 -193.5t-36 -180.5t-66 -157t-102 -124t-143 -82t-190 -30q-94 0 -170 25t-132 75t-90 125t-45 177h237q10 -100 64.5 -145 t147.5 -45q54 0 96 17t73 45t53 66.5t37 82.5t23 91t12 94q-30 -28 -66 -50t-77 -38t-84.5 -24.5t-87.5 -8.5q-112 0 -198.5 36.5t-146 101.5t-90.5 151.5t-31 185.5zM301 952q0 -58 15.5 -108t46.5 -88.5t79 -61t112 -22.5t113 22t82 60t50.5 88t17.5 108t-18 108t-51.5 86 t-82.5 56.5t-111 20.5q-60 0 -107 -21.5t-79.5 -57.5t-49.5 -85t-17 -105z" />
<glyph unicode=":" horiz-adv-x="583" d="M150 -3v283h284v-283h-284zM150 764v283h284v-283h-284z" />
<glyph unicode=";" horiz-adv-x="583" d="M150 -3v283h284v-232q0 -62 -16.5 -118t-50 -104t-86.5 -84.5t-127 -59.5v164q28 10 50 27t36 38t21 43t7 43h-118zM150 764v283h284v-283h-284z" />
<glyph unicode="&#x3c;" horiz-adv-x="1315" d="M121 463v169l1073 480v-198l-811 -368l811 -366v-194z" />
<glyph unicode="=" horiz-adv-x="1229" d="M92 248v186h1046v-186h-1046zM92 648v186h1046v-186h-1046z" />
<glyph unicode="&#x3e;" horiz-adv-x="1315" d="M121 -14v194l811 366l-811 368v198l1073 -480v-169z" />
<glyph unicode="?" horiz-adv-x="1185" d="M148 947q-4 116 29.5 213t96.5 167t153.5 108.5t200.5 38.5q100 0 184 -28t144 -81.5t93 -131.5q33 -77 33 -177q0 -64 -18 -113.5t-45 -89t-61 -71.5l-64 -62l-57 -53q-27 -26 -48.5 -56t-35 -66t-13.5 -82v-106h-236v124q2 60 21 108.5t46 87.5t60 73l63 64l50 52 q27 28 49 59.5t35.5 68t11.5 80.5q-4 44 -20 80t-42.5 61t-64 39t-85.5 14q-65 0 -111.5 -26t-76.5 -70t-43.5 -102t-13.5 -123h-235zM474 0v274h287v-274h-287z" />
<glyph unicode="@" horiz-adv-x="1675" d="M106 732q0 103 27 197.5t77 176.5t120.5 149t155.5 114.5t182.5 73.5t201.5 26q94 0 182.5 -21t166 -59.5t142.5 -94t111 -124t71.5 -148.5t25.5 -170q0 -83 -24.5 -151.5t-64.5 -124.5t-92 -97t-109 -68t-114 -39t-107 -9q-38 2 -72 20.5t-60 58.5q-47 -35 -99.5 -60 t-106.5 -25q-58 0 -107 22.5t-84 61.5t-55 92t-20 113q0 61 14 121.5t40 114.5t64 101.5t86 82t105 53.5t122 19q22 0 48.5 -5.5t52.5 -19t48 -37.5t36 -58l8 19l9 25q5 13 9 26.5l7 23.5h151l-154 -510q-6 -20 -9 -41t0 -38t13 -28t32 -11q28 0 57 12.5t57 35.5t54 55.5 t45 72.5t31 86t12 97q0 117 -42.5 205t-114 147.5t-165.5 90t-198 30.5q-84 0 -159 -21.5t-140 -60.5t-117.5 -93.5t-89.5 -120.5t-57.5 -143t-20.5 -161q0 -82 21.5 -157t60 -139.5t93 -117.5t120 -90.5t141.5 -58.5t158 -21q66 0 133 10t130 33t119 60t101 89h189 q-64 -90 -141 -154.5t-164 -105t-181 -59.5t-189 -19q-108 0 -207.5 26t-185.5 73t-156 114t-120 150t-77 180t-27 203zM622 654q0 -32 10 -58.5t28 -46t43 -30.5t55 -11q34 0 66 16t60 43t50 62t38 73.5t25 77t9 72.5q0 25 -8 50.5t-23.5 45.5t-37.5 33t-49 13 q-40 0 -76 -16t-65.5 -41.5t-52.5 -60t-39.5 -72t-24.5 -77t-8 -73.5z" />
<glyph unicode="A" horiz-adv-x="1388" d="M0 0l552 1440h276l561 -1440h-286l-145 404h-548l-38 -102l-34 -100l-35 -100l-37 -102h-266zM498 625h374l-188 529z" />
<glyph unicode="B" horiz-adv-x="1388" d="M139 0v1440h581q64 0 129 -5.5t124 -19.5t110 -39.5t89 -65.5t60 -99t22 -137q0 -105 -38 -180.5t-116 -126.5q52 -22 92 -56.5t68 -78t42 -95t14 -109.5q0 -53 -14 -105.5t-40.5 -100t-66 -88t-91.5 -70.5t-116 -47t-138 -17h-711zM392 216h431q58 0 102.5 15t74.5 43 t46 69t16 93q0 58 -24 95t-64 59t-89.5 30t-99.5 8h-393v-412zM392 846h336q73 0 125.5 12t85.5 36t48.5 59t15.5 83q0 46 -9 78.5t-25.5 53t-40.5 31.5t-55 16t-67 5.5t-78 0.5h-336v-375z" />
<glyph unicode="C" horiz-adv-x="1463" d="M68 714q0 106 20 203t60 181.5t99 153t137 117.5t175 76t211 27q120 0 222 -31t182 -93t134 -155t75 -217h-259q-14 74 -45.5 127t-77 87t-104.5 50t-130 16q-77 0 -140.5 -20t-113 -56t-85.5 -86t-60 -108t-35.5 -124t-11.5 -134q0 -110 26.5 -209t81 -173t139 -117 t202.5 -43q86 0 152 28t113 79t72 122t31 155h254q-14 -144 -61.5 -255.5t-127.5 -187t-192.5 -114.5t-254.5 -39q-116 0 -211 25.5t-172 73t-134 114.5t-95 149t-57 178t-19 200z" />
<glyph unicode="D" horiz-adv-x="1427" d="M139 0v1440h509q173 0 306.5 -42.5t225 -128t138.5 -213.5t47 -300q0 -182 -41.5 -323t-128.5 -237t-223 -146t-324 -50h-509zM392 216h272q30 0 75 4t95.5 21.5t100 51t90 90t65 140.5t24.5 203q0 118 -24 210t-77 155.5t-137 96.5t-206 33h-278v-1005z" />
<glyph unicode="E" horiz-adv-x="1238" d="M139 0v1440h1041v-219h-788v-375h732v-218h-732v-412h790v-216h-1043z" />
<glyph unicode="F" horiz-adv-x="1164" d="M139 0v1440h991v-219h-738v-375h644v-218h-644v-628h-253z" />
<glyph unicode="G" horiz-adv-x="1536" d="M68 694q0 104 20 202t59 184t98 158t137.5 124t177 81t216.5 29q79 0 153.5 -12t141 -37t124 -65.5t100.5 -97t72 -130t40 -166.5h-251q-14 80 -49 135.5t-85 90t-113 50.5t-133 16q-80 0 -145.5 -21.5t-116 -59.5t-87 -90.5t-60 -113.5t-35 -129t-11.5 -137 q0 -68 13.5 -132.5t39.5 -122.5t64 -106.5t89 -84t113 -54.5t136 -19q94 0 170 30t130 82t84 122t34 150h-451v218h687v-788h-180l-41 132q-44 -41 -96.5 -70.5t-108.5 -49t-114 -29t-114 -9.5q-111 0 -207 26t-174.5 74.5t-139.5 115t-102.5 146.5t-63 171t-21.5 187z" />
<glyph unicode="H" horiz-adv-x="1463" d="M139 0v1440h253v-594h678v594h254v-1440h-254v628h-678v-628h-253z" />
<glyph unicode="I" horiz-adv-x="572" d="M159 0v1440h253v-1440h-253z" />
<glyph unicode="J" horiz-adv-x="1055" d="M24 407v109h259v-88q0 -54 7.5 -99t28.5 -77t58 -49t97 -17q54 0 90.5 15t58.5 43.5t31.5 68t9.5 88.5v1039h254v-1057q0 -78 -21.5 -152.5t-73 -132.5t-137.5 -93q-88 -35 -218 -35q-216 0 -330 112.5t-114 324.5z" />
<glyph unicode="K" horiz-adv-x="1391" d="M139 0v1440h253v-644l646 644h334l-614 -588l625 -852h-307l-492 678q-51 -46 -95.5 -92t-96.5 -94v-492h-253z" />
<glyph unicode="L" horiz-adv-x="1117" d="M139 0v1440h253v-1224h717v-216h-970z" />
<glyph unicode="M" horiz-adv-x="1751" d="M139 0v1440h339l394 -1128l399 1128h343v-1440h-254v1038l-95 -263l-93 -259l-93 -256l-94 -260h-218l-375 1041v-1041h-253z" />
<glyph unicode="N" horiz-adv-x="1468" d="M139 0v1440h289l648 -1074v1074h254v-1440h-292l-646 1065v-1065h-253z" />
<glyph unicode="O" horiz-adv-x="1539" d="M59 720q0 98 19.5 192t58.5 178t98 154t137 120.5t177 79t218 28.5q120 0 219 -28.5t178.5 -79t138.5 -120.5t98 -154t59 -178t20 -192q0 -99 -20 -192.5t-59 -176.5t-98 -152.5t-138.5 -119.5t-179 -77.5t-218.5 -27.5t-218 27.5t-177 77.5t-137 119.5t-98 152.5 t-58.5 176.5t-19.5 192.5zM312 720q0 -66 11.5 -132t35 -125t59.5 -110t86.5 -88t116 -58t146.5 -21q82 0 148.5 21t117.5 58t88 88t60 110t34.5 125t11.5 132t-11.5 132t-34.5 125t-60 110t-88 89t-117 59t-149 21q-82 0 -147 -21t-115.5 -59t-86.5 -89t-59.5 -110 t-35 -125t-11.5 -132z" />
<glyph unicode="P" horiz-adv-x="1315" d="M139 0v1440h646q117 0 205 -29.5t146.5 -86t88 -138t29.5 -186.5q0 -103 -29.5 -184t-88 -137t-146.5 -85q-84 -28 -194 -28h-11h-393v-566h-253zM392 781h328h9q139 0 205 55q69 57 69 164q0 108 -68.5 164.5t-214.5 56.5h-328v-440z" />
<glyph unicode="Q" horiz-adv-x="1539" d="M59 720q0 98 19.5 192t58.5 178t98 154t137 120.5t177 79t218 28.5q120 0 219 -28.5t178.5 -79t138.5 -120.5t98 -154t59 -178t20 -192q0 -78 -12 -152t-36 -142.5t-60 -130t-83 -112.5l197 -157l-136 -168l-238 192q-74 -38 -159.5 -57t-185.5 -19q-119 0 -218 27.5 t-177 77.5t-137 119.5t-98 152.5t-58.5 176.5t-19.5 192.5zM312 720q0 -66 11.5 -132t35 -125t59.5 -110t86.5 -88t116 -58t146.5 -21q42 0 79 4q38 4 72 16l-133 110l138 165l183 -147q31 38 53.5 83t37.5 94.5t22.5 102t7.5 106.5q0 66 -11.5 132t-34.5 125t-60 110 t-88 89t-117 59t-149 21q-82 0 -147 -21t-115.5 -59t-86.5 -89t-59.5 -110t-35 -125t-11.5 -132z" />
<glyph unicode="R" horiz-adv-x="1388" d="M139 0v1440h693q111 0 197.5 -27t146 -77t91 -123t31.5 -166q0 -56 -10 -108.5t-32 -98t-56 -82t-82 -62.5q49 -30 77.5 -75t44.5 -96t22 -105l12 -104q4 -39 7 -78.5t12 -79.5t30 -79.5t60 -78.5h-289q-18 20 -29 44t-18 51.5t-11 59.5t-4 69q-2 36 -5 77t-10 80.5 t-21 76t-37 65t-59 47t-86 20.5h-422v-590h-253zM392 802h354q58 0 111.5 10t95 34t66.5 67t25 107q0 46 -13 83t-40 63t-70 40.5t-101 14.5h-428v-419z" />
<glyph unicode="S" horiz-adv-x="1315" d="M65 508h241q0 -88 30 -150t80 -100t118 -55t144 -17q40 0 80 4t76 13t67.5 25t54.5 40.5t36.5 58t13.5 77.5q0 56 -31.5 93.5t-83.5 62t-120.5 41.5t-142.5 31q-64 13 -128 27.5t-123 35t-109 49t-88 69.5t-59 96t-21 129t21 135.5t58 110t88.5 83.5t112 58t128.5 35 t138 12q116 0 213 -27t168 -85.5t113 -150t48 -221.5h-241q-8 76 -32.5 127.5t-63.5 83t-92.5 44.5t-121.5 13q-53 0 -104 -10t-91 -34t-64 -63t-24 -97q0 -48 28 -79t75 -53.5t110 -38t132 -29.5l132 -28q67 -15 129 -36.5t116 -52.5t94 -75.5t63 -106t23 -143.5 q0 -80 -24 -144t-66 -112.5t-98 -83t-121 -55.5t-135 -31t-140 -10q-85 0 -162.5 12t-145.5 39t-123 69.5t-94 102t-60.5 137t-21.5 174.5z" />
<glyph unicode="T" horiz-adv-x="1170" d="M18 1221v219h1136v-219h-446v-1221h-254v1221h-436z" />
<glyph unicode="U" horiz-adv-x="1480" d="M139 528v912h253v-912q0 -172 91 -257t269 -85q168 0 252 85t84 257v912h254v-912q0 -140 -39 -244t-114.5 -174t-185 -105t-251.5 -35q-146 0 -260 33t-192.5 101.5t-119.5 173.5t-41 250z" />
<glyph unicode="V" horiz-adv-x="1285" d="M0 1440h277l369 -1128l372 1128h268l-508 -1440h-280z" />
<glyph unicode="W" horiz-adv-x="1864" d="M0 1440h263l253 -1050l139 525l139 525h274l280 -1057l259 1057h257l-386 -1440h-266l-289 1080l-291 -1080h-260z" />
<glyph unicode="X" horiz-adv-x="1297" d="M0 0l492 743l-466 697h308l314 -506l331 506h289l-472 -700l502 -740h-310l-342 528l-354 -528h-292z" />
<glyph unicode="Y" horiz-adv-x="1365" d="M0 1440h306l384 -620l378 620h297l-555 -859v-581h-256v578z" />
<glyph unicode="Z" horiz-adv-x="1335" d="M70 0v198l844 1023h-772v219h1096v-202l-834 -1022h861v-216h-1195z" />
<glyph unicode="[" horiz-adv-x="554" d="M126 -392v1866h414v-191h-183v-1484h183v-191h-414z" />
<glyph unicode="\" horiz-adv-x="761" d="M-26 1474h224l590 -1504h-218z" />
<glyph unicode="]" horiz-adv-x="554" d="M14 -201h184v1484h-184v191h414v-1866h-414v191z" />
<glyph unicode="^" horiz-adv-x="1229" d="M76 543l443 879h195l440 -879h-187l-351 702l-342 -702h-198z" />
<glyph unicode="_" horiz-adv-x="1041" d="M14 -136h1012v-168h-1012v168z" />
<glyph unicode="`" horiz-adv-x="572" d="M59 1474h275l180 -298h-186z" />
<glyph unicode="a" horiz-adv-x="1103" d="M56 283q0 68 17 116t48 81.5t73 55.5t92 38t105 28l113 26l82 20q42 10 77 23t57.5 30t22.5 42q0 42 -17 65.5t-44.5 35.5t-61.5 14.5t-68 2.5q-46 0 -83 -6.5t-65 -25.5t-44 -54t-18 -91h-242q3 74 21.5 131t49.5 100t74 73t93.5 48t108 26t119.5 8q50 0 100.5 -4 t97 -17t87.5 -34t70.5 -55t46.5 -81.5t17 -111.5v-511q0 -34 2.5 -49t15.5 -15h8t13.5 2t23 7t34.5 15v-192q-35 -24 -69 -36q-35 -12 -79 -12q-31 0 -58 6.5t-49.5 20t-38.5 35.5t-24 54q-32 -28 -71 -49.5t-82 -36t-89 -22.5t-92 -8q-76 0 -144 17t-119 54t-81 95t-30 141 zM304 295q0 -30 13 -51t36 -33.5t53 -18.5t62 -6q74 0 127 18t85.5 46t47.5 62q15 32 15 62v134q-42 -18 -92.5 -32t-92.5 -24l-94 -25q-46 -12 -81.5 -28.5t-57 -41t-21.5 -62.5z" />
<glyph unicode="b" horiz-adv-x="1215" d="M112 0v1440h242v-484q29 33 64.5 57.5t74.5 40t80 23.5t81 8q85 0 155.5 -21.5t125.5 -59t97 -89t69.5 -113.5t41 -131t13.5 -141q0 -115 -30 -215.5t-92 -175.5t-154.5 -119t-218.5 -44q-41 0 -81 6t-79 21t-76 40t-71 63v-106h-242zM345 530q0 -66 15.5 -127t49.5 -109 t89 -77t135 -29q76 0 127.5 30t83 79.5t44.5 113t13 129.5q0 62 -15.5 122t-49 106.5t-86.5 75t-129 28.5t-129 -30t-86 -78.5t-47.5 -110t-14.5 -123.5z" />
<glyph unicode="c" horiz-adv-x="1103" d="M56 510q0 118 31.5 220t95.5 178t161.5 119t231.5 43q94 0 176 -22t145 -70t104 -123t51 -179h-242q-10 53 -30 88.5t-49 57t-66.5 30.5t-80.5 9q-82 0 -137 -29t-88 -77.5t-47 -112.5t-14 -132q0 -62 15.5 -120.5t48 -104t84.5 -72.5t124 -27q110 0 168 56t76 170h248 q-20 -106 -59 -187t-99 -136.5t-143 -84t-191 -28.5q-129 0 -225.5 40t-160.5 111t-96 169t-32 214z" />
<glyph unicode="d" horiz-adv-x="1215" d="M59 530q0 72 13.5 141t41 131t69 113.5t97.5 89t125.5 59t154.5 21.5q41 0 82.5 -7.5t80.5 -23t74 -40t64 -58.5v484h242v-1440h-242v106q-34 -38 -70.5 -63t-74.5 -40t-78 -21t-84 -6q-126 0 -219 44t-154 119t-91.5 175.5t-30.5 215.5zM312 540q0 -66 13.5 -129.5 t45 -113t82.5 -79.5t128 -30q80 0 135 29t89.5 77t49.5 109t15 127q0 62 -15 123.5t-48 110t-86 78.5t-129 30q-75 0 -128 -28.5t-86.5 -75t-49.5 -106.5t-16 -122z" />
<glyph unicode="e" horiz-adv-x="1103" d="M56 528q0 123 37.5 223t105.5 171t162.5 109.5t210.5 38.5q90 0 163 -24.5t130 -68t98 -103.5t67 -130t36 -146q8 -58 8 -118v-38h-770q2 -53 20 -99.5t52.5 -81.5t85 -55t119.5 -20q43 0 81 9t68.5 29.5t53.5 54.5t36 84h236q-20 -99 -63 -171.5t-105 -120.5t-141 -71.5 t-171 -23.5q-134 0 -231.5 41t-161.5 114.5t-95.5 175t-31.5 221.5zM306 652h514q-10 42 -33 80t-56.5 67t-76 45.5t-91.5 16.5q-52 0 -95 -16.5t-75.5 -45t-55 -66t-31.5 -81.5z" />
<glyph unicode="f" horiz-adv-x="675" d="M36 823v224h158v147q0 144 84 218t238 74q29 0 64 -6.5t66 -19.5v-218q-34 18 -64 24q-30 5 -52 5q-46 0 -70 -19.5t-24 -65.5v-139h189v-224h-189v-823h-242v823h-158z" />
<glyph unicode="g" horiz-adv-x="1179" d="M56 519q0 60 10.5 124.5t35 126t62.5 116t95 95.5t132 65t172 24q83 0 152 -25t123 -81v83h230v-979q0 -130 -31 -226t-94 -160t-160 -95.5t-231 -31.5q-50 0 -103 8.5t-103 27.5t-94 48t-78.5 69t-55.5 91q-22 51 -24 115h240q2 -42 25.5 -72t57 -49.5t73 -28.5t76.5 -9 q74 0 126 22.5t84 64.5t47 101t15 133v21q-29 -26 -63.5 -46.5t-71.5 -34t-76 -21t-79 -7.5q-124 0 -216 43t-153 116t-92 169t-31 203zM304 534q0 -60 12.5 -120.5t42 -109t78.5 -79.5t121 -31q76 0 128 31t84 80t45 111t13 124q0 58 -13 116t-43.5 103.5t-79.5 73.5 q-50 28 -120 28q-74 0 -125 -26.5t-83 -71.5t-46 -104t-14 -125z" />
<glyph unicode="h" horiz-adv-x="1144" d="M112 0v1440h242v-479q30 26 66 46.5t74.5 35.5t77 23t74.5 8q114 0 189 -30t118.5 -83t61 -124t17.5 -156v-681h-242v696q0 78 -43 121.5t-128 43.5q-66 0 -115.5 -21.5t-82.5 -58.5t-50 -86t-17 -105v-590h-242z" />
<glyph unicode="i" horiz-adv-x="507" d="M132 0v1047h242v-1047h-242zM132 1174v266h242v-266h-242z" />
<glyph unicode="j" horiz-adv-x="507" d="M-32 -198q20 -2 34 -3t25 -2t21 -1h22q36 0 49 23.5t13 83.5v1144h242v-1171q0 -78 -20 -135t-57.5 -93t-90 -53t-118.5 -17q-28 0 -60 2t-60 8v214zM132 1174v266h242v-266h-242z" />
<glyph unicode="k" horiz-adv-x="1103" d="M112 0v1440h238v-770l399 377h321l-424 -389l439 -658h-291l-328 490l-116 -104v-386h-238z" />
<glyph unicode="l" horiz-adv-x="507" d="M132 0v1440h242v-1440h-242z" />
<glyph unicode="m" horiz-adv-x="1733" d="M112 0v1047h233v-103q60 62 133.5 93t164.5 31q44 0 87.5 -8.5t81.5 -25t70.5 -42.5t55.5 -60q118 136 307 136q86 0 155.5 -18.5t119 -57t76 -100t26.5 -146.5v-746h-242v690q0 38 -7.5 70t-26 53t-49.5 33t-79 12q-54 0 -97 -15t-72.5 -43t-45 -69t-15.5 -91v-640h-242 v672q0 40 -6.5 74t-24 59t-47.5 39t-76 14t-80 -11.5t-61 -30t-45 -42t-30 -48t-17 -47.5t-5 -39v-640h-242z" />
<glyph unicode="n" horiz-adv-x="1144" d="M112 0v1047h233v-109q53 62 126 96t175 34q114 0 189 -30t118.5 -82t61 -124t17.5 -156v-676h-238v694q0 78 -45 121t-130 43q-66 0 -115.5 -21.5t-82.5 -58.5t-50 -86.5t-17 -104.5v-587h-242z" />
<glyph unicode="o" horiz-adv-x="1176" d="M56 522q0 116 33.5 216.5t100.5 174t167 115.5q101 42 233 42t232 -42t167 -115.5t101 -174t34 -216.5q0 -115 -34 -214.5t-101 -173.5t-167 -116t-232 -42t-232.5 42t-167.5 116t-100.5 173.5t-33.5 214.5zM304 522q0 -83 22 -146t61 -105t91 -63.5t112 -21.5 q58 0 109 21.5t90 63.5t61 105t22 146q0 80 -22 143t-61 107t-90 66.5t-109 22.5q-60 0 -112 -22.5t-91 -66.5t-61 -107t-22 -143z" />
<glyph unicode="p" horiz-adv-x="1215" d="M112 -392v1439h242v-106q34 38 71.5 62.5t77 39.5t80 21t81.5 6q126 0 219 -43t154 -118.5t90 -176t29 -216.5q0 -72 -13 -141t-40.5 -130t-68.5 -113t-96.5 -90t-125.5 -59t-154 -21q-41 0 -83 8t-81.5 24t-75 40t-64.5 58v-484h-242zM345 516q0 -62 14.5 -123 t47.5 -110t86 -79t129 -30t129 29t86.5 76t49 107t15.5 122q0 66 -13 129t-44.5 112t-83 79t-127.5 30q-80 0 -135 -28t-89 -76t-49.5 -110t-15.5 -128z" />
<glyph unicode="q" horiz-adv-x="1215" d="M59 516q0 116 29.5 216.5t90.5 176t154 118.5t219 43q41 0 81.5 -6t79.5 -21t76 -40t72 -62v106h242v-1439h-242v484q-28 -33 -64 -57.5t-75.5 -40.5t-81.5 -24t-82 -8q-85 0 -155.5 21t-125.5 59t-96 90t-68 113t-40.5 130t-13.5 141zM312 508q0 -62 16 -122t49.5 -107 t87 -76t127.5 -29q76 0 129 30t86 79t48 110t15 123q0 66 -15 128t-49.5 110t-89.5 76t-135 28q-76 0 -127.5 -30t-83 -79t-45 -112t-13.5 -129z" />
<glyph unicode="r" horiz-adv-x="710" d="M112 0v1047h233v-129q31 38 64.5 66.5t75 47.5t92.5 28q49 8 112 8h7v-236q-104 0 -170 -25t-104.5 -72t-53 -115t-14.5 -154v-466h-242z" />
<glyph unicode="s" horiz-adv-x="1029" d="M41 374h242q4 -56 24.5 -93t53.5 -59t75 -30.5t89 -8.5q34 0 71 4.5t68 17.5t50.5 35.5t19.5 57.5q0 32 -21 53.5t-57 36.5t-81 26l-94 22q-46 9 -95 22t-95.5 30.5t-87.5 41.5t-71.5 56t-48.5 75t-18 97q0 56 17.5 100.5t47 79t70 59.5t87.5 41.5t98 24t101 7.5 q91 0 171.5 -18t141.5 -61t100 -115t45 -180h-242q-4 48 -23 80t-48 52t-65 28t-70 8q-31 0 -63.5 -5t-58.5 -16t-42 -29t-16 -44q0 -25 19 -43.5t51 -32t74 -24.5l88 -22l74 -16q74 -18 140 -41t116 -58t78.5 -86t28.5 -126q0 -68 -19 -119.5t-52.5 -90.5t-78.5 -64 t-97 -41t-108.5 -23t-113.5 -7q-96 0 -180 21t-147 68t-102.5 123t-45.5 186z" />
<glyph unicode="t" horiz-adv-x="660" d="M14 823v224h160v309h238v-309h193v-224h-193v-551q0 -19 4.5 -30.5t15 -17t28.5 -7t44 -1.5h112v-216h-162q-76 0 -128.5 11t-86.5 39.5t-49.5 79t-15.5 129.5v564h-160z" />
<glyph unicode="u" horiz-adv-x="1149" d="M112 372v675h248v-697q0 -76 43 -117t125 -41q70 0 120 20t82 56t48 85.5t16 109.5v584h244v-1050h-236l-3 103q-55 -58 -128 -91t-167 -33q-114 0 -189 29t-120 81.5t-64 125.5t-19 160z" />
<glyph unicode="v" horiz-adv-x="1073" d="M26 1047h269l251 -746l242 746h259l-383 -1047h-252z" />
<glyph unicode="w" horiz-adv-x="1580" d="M26 1047h272l194 -705l174 705h257l183 -705l192 705h256l-333 -1047h-251l-180 678l-171 -678h-259z" />
<glyph unicode="x" horiz-adv-x="1108" d="M14 0l387 548l-357 499h298l210 -307l212 307h298l-360 -484l392 -563h-298l-244 368l-248 -368h-290z" />
<glyph unicode="y" horiz-adv-x="1082" d="M21 1047h265l268 -746l128 374l126 372h254l-454 -1195q-31 -78 -64.5 -134t-72.5 -91.5t-86.5 -52t-107.5 -16.5q-31 0 -69 2.5t-76 17.5v230q42 -16 72 -21t52 -5q38 0 66 17t44 51l64 162z" />
<glyph unicode="z" horiz-adv-x="1087" d="M88 0v172l582 660h-540v215h870v-162l-588 -673h578v-212h-902z" />
<glyph unicode="{" horiz-adv-x="696" d="M76 466v144q34 0 64 18t53 49.5t36 73t13 89.5v366q0 64 20 114t55 84t81 52t98 18h147v-176h-83q-26 0 -44 -7t-29.5 -22t-16 -39t-4.5 -56v-364q0 -58 -17 -103t-40.5 -80t-50.5 -57q-26 -24 -46 -34q20 -8 46.5 -25t50 -48t40.5 -79t17 -118v-363q0 -60 20.5 -89.5 t73.5 -29.5h83v-176h-147q-54 0 -100 16t-80 49.5t-54 83.5q-20 51 -20 117v362q0 52 -13 95t-36 73t-53 46t-64 16z" />
<glyph unicode="|" horiz-adv-x="471" d="M136 -425v2009h200v-2009h-200z" />
<glyph unicode="}" horiz-adv-x="696" d="M54 -216h82q53 0 73.5 29.5t20.5 89.5v363q0 70 16.5 118t40 79t50.5 48t46 25q-20 10 -46.5 33t-50 58t-40.5 81q-16 44 -16 102v364q0 66 -21 95t-73 29h-82v176h147q52 0 98 -18t80.5 -52t54.5 -84t20 -114v-366q0 -48 13 -89.5t35.5 -73t52 -49.5t64.5 -18v-144 q-34 0 -64 -16t-52.5 -46t-35.5 -73t-13 -95v-362q0 -66 -20 -116.5t-54 -84t-80 -49.5t-99 -16h-147v176z" />
<glyph unicode="~" horiz-adv-x="1229" d="M115 463q19 39 45 75t61 65t80 46t103 17q39 0 78.5 -10.5t77.5 -26t75 -35.5l71 -34q34 -16 65 -27t57 -11q24 0 49 16t48.5 40t45 53t37.5 56l110 -147q-23 -36 -50.5 -72t-62.5 -64t-79 -45t-100 -17q-39 0 -78 11t-76.5 27t-74.5 35t-72.5 34.5t-69.5 26.5 q-33 10 -65 10q-22 0 -44 -15t-43 -39t-43 -55l-42 -61z" />
<glyph unicode="&#xa2;" horiz-adv-x="1111" d="M62 528q0 107 26 202t80 168.5t136 122t194 61.5v192h160v-189q80 -8 148.5 -35.5t121 -75.5t86.5 -118q34 -68 44 -162h-241q-8 42 -22.5 72.5t-35.5 52t-46 34.5t-55 19v-660q69 18 108 72q38 54 54 146h248q-18 -96 -51 -171t-84 -129.5t-119 -87t-156 -42.5v-216 h-160v216q-109 11 -190.5 54.5t-136.5 113t-82 161t-27 199.5zM304 528q0 -54 11 -104t35 -92t60 -74q37 -32 88 -46v655q-55 -15 -92.5 -48.5t-59.5 -79t-32 -99.5t-10 -112z" />
<glyph unicode="&#xa3;" horiz-adv-x="1111" d="M44 148q48 28 90.5 65t75 80.5t51.5 92t19 98.5q0 16 -3 35t-8.5 38t-13 37t-16.5 34h-180v153h91q-29 56 -48 121.5t-19 147.5q0 98 39.5 176t107.5 133t156 84t186 29q118 0 212 -35t159 -104.5t99 -174.5q34 -104 34 -244h-236q-4 84 -20 150t-48 111t-79 69t-109 24 q-56 0 -102 -17t-80 -47.5t-53 -72t-19 -90.5q0 -36 7.5 -70.5t19 -67.5t27.5 -63l32 -59h333v-153h-253q9 -24 14.5 -53t5.5 -56q0 -43 -9 -83t-25.5 -77t-38 -69t-45.5 -60q18 5 34 7t36 2q65 0 112.5 -10.5t85.5 -22.5l56 -14q23 -6 40.5 -10t31.5 -6t29 -2q20 0 43 7 t46.5 19.5t47 28.5t43.5 34l129 -180q-39 -34 -80.5 -55.5t-85 -34.5t-86 -18t-84.5 -5q-60 0 -109.5 12t-99.5 26q-56 18 -102.5 29t-94.5 11q-52 0 -103 -22t-104 -56z" />
<glyph unicode="&#xa5;" horiz-adv-x="1188" d="M-3 1440h298l310 -635l297 635h290l-349 -664h169v-184h-266l-23 -44v-70h289v-186h-289v-292h-251v292h-284v186h284v70l-24 44h-260v184h160z" />
<glyph unicode="&#xa9;" horiz-adv-x="1604" d="M48 710q0 104 27 201t76.5 179.5t118 150t152.5 115.5t179.5 74t197.5 26t197.5 -26t178.5 -74t152 -115.5t118 -150t76 -178.5q27 -98 27 -202q0 -107 -27 -204t-76 -179.5t-118 -149.5t-152 -114.5t-178 -73t-198 -25.5q-102 0 -197.5 25.5t-179.5 73t-152.5 114.5 t-118 149.5t-76.5 179t-27 204.5zM221 710q0 -130 43.5 -239t120 -190t182.5 -126t232 -45q82 0 156 20t138.5 58.5t116.5 92.5t89.5 120.5t58 144.5t20.5 164t-20.5 164t-58 144.5t-89.5 120t-116.5 90.5t-139 57.5t-155.5 20.5q-126 0 -232 -44.5t-182.5 -124.5t-120 -189 t-43.5 -239zM378 708q0 99 30 182.5t87 144t137 93.5q82 34 182 34q74 0 138 -20t114 -60t84.5 -102t49.5 -146h-159q-8 39 -28.5 73t-49.5 59.5t-66 39.5t-80 14q-64 0 -114 -23t-84.5 -65t-52.5 -98q-18 -58 -18 -124q0 -60 19 -117t54 -101t86.5 -70t115.5 -26 q41 0 77 13t65 39t49 62q19 36 27 80h162q-18 -82 -54 -145.5t-85 -107.5t-110 -66.5t-131 -22.5q-102 0 -184.5 35t-140.5 96t-89 145.5t-31 183.5z" />
<glyph unicode="&#xaa;" horiz-adv-x="1103" d="M56 283q0 68 17 116t48 81.5t73 55.5t92 38t105 28l113 26l82 20q42 10 77 23t57.5 30t22.5 42q0 42 -17 65.5t-44.5 35.5t-61.5 14.5t-68 2.5q-46 0 -83 -6.5t-65 -25.5t-44 -54t-18 -91h-242q3 74 21.5 131t49.5 100t74 73t93.5 48t108 26t119.5 8q50 0 100.5 -4 t97 -17t87.5 -34t70.5 -55t46.5 -81.5t17 -111.5v-511q0 -34 2.5 -49t15.5 -15h8t13.5 2t23 7t34.5 15v-192q-35 -24 -69 -36q-35 -12 -79 -12q-31 0 -58 6.5t-49.5 20t-38.5 35.5t-24 54q-32 -28 -71 -49.5t-82 -36t-89 -22.5t-92 -8q-76 0 -144 17t-119 54t-81 95t-30 141 zM304 295q0 -30 13 -51t36 -33.5t53 -18.5t62 -6q74 0 127 18t85.5 46t47.5 62q15 32 15 62v134q-42 -18 -92.5 -32t-92.5 -24l-94 -25q-46 -12 -81.5 -28.5t-57 -41t-21.5 -62.5z" />
<glyph unicode="&#xab;" horiz-adv-x="925" d="M94 448v216l316 248v-204l-192 -154l192 -150v-206zM486 448v216l316 248v-204l-194 -154l194 -150v-206z" />
<glyph unicode="&#xad;" horiz-adv-x="955" d="M92 445v192h772v-192h-772z" />
<glyph unicode="&#xae;" horiz-adv-x="1595" d="M48 710q0 104 27 201t76.5 179.5t118 150t152.5 115.5t179.5 74t197.5 26t197.5 -26t178.5 -74t152 -115.5t118 -150t76 -178.5q27 -98 27 -202q0 -107 -27 -204t-76 -179.5t-118 -149.5t-152 -114.5t-178 -73t-198 -25.5q-102 0 -197.5 25.5t-179.5 73t-152.5 114.5 t-118 149.5t-76.5 179t-27 204.5zM221 710q0 -130 43.5 -239t120 -190t182.5 -126t232 -45q82 0 156 20t138.5 58.5t116.5 92.5t89.5 120.5t58 144.5t20.5 164t-20.5 164t-58 144.5t-89.5 120t-116.5 90.5t-139 57.5t-155.5 20.5q-126 0 -232 -44.5t-182.5 -124.5t-120 -189 t-43.5 -239zM498 312v794h325q150 0 222.5 -58t72.5 -187q0 -43 -13 -80t-36 -67t-56 -51t-72 -31l200 -320h-191l-192 302h-86v-302h-174zM672 758h98q34 0 65.5 3t56 14t40 32t15.5 57q0 29 -13.5 47.5t-34.5 28.5t-47 14t-50 4h-130v-200z" />
<glyph unicode="&#xb1;" horiz-adv-x="1208" d="M76 0v186h1056v-186h-1056zM76 598v187h438v333h185v-333h433v-187h-433v-332h-185v332h-438z" />
<glyph unicode="&#xb2;" horiz-adv-x="1141" d="M48 0q8 88 28.5 159t51 129.5t69.5 106t82 86.5t90 72l94 63l153 102q64 44 105 86t61 88.5t20 107.5q0 50 -18 90t-50 67.5t-74 43t-90 15.5q-66 0 -113.5 -29.5t-78 -77t-44.5 -108.5t-10 -125h-236q-10 118 21 218t96 173t160 115t213 42q98 0 185 -28t151 -83 t101 -134t37 -183q0 -100 -32 -175t-83.5 -133t-115 -103t-125.5 -81l-113 -70q-57 -36 -106 -73t-86 -75t-52 -76h702v-210h-993z" />
<glyph unicode="&#xb3;" horiz-adv-x="1141" d="M56 463h242q1 -66 16.5 -118.5t46.5 -89.5t78 -57.5t109 -20.5q60 0 110.5 16.5t86 46.5t55.5 73t20 97q0 56 -20 99t-55.5 71t-84 42.5t-106.5 14.5h-23q-11 0 -23 -0.5t-26 -0.5q-14 -2 -30 -2v194h78q46 0 89 13t75 37t51 60t19 82q0 48 -16 84t-45.5 61t-69 38 t-87.5 13q-62 0 -103.5 -23t-67 -62.5t-36.5 -92t-11 -112.5h-242q3 111 33.5 202.5t88 157.5t142 102t196.5 36q99 0 183.5 -25t147 -75.5t97 -127t34.5 -178.5q0 -88 -38 -152t-109 -114q54 -20 92.5 -53t64.5 -76t38 -96t12 -115q0 -68 -18.5 -127t-51 -109t-76.5 -88 t-96 -64q-30 -16 -63 -26t-69 -15t-72 -7t-74 -2q-114 0 -205 31t-155 92t-98 152.5t-34 213.5z" />
<glyph unicode="&#xb9;" horiz-adv-x="1141" d="M150 929v209q78 4 144 14.5t118 38t88 78.5t52 138h206v-1407h-233v990q-72 -33 -163.5 -46t-211.5 -15z" />
<glyph unicode="&#xba;" horiz-adv-x="1176" d="M56 522q0 116 33.5 216.5t100.5 174t167 115.5q101 42 233 42t232 -42t167 -115.5t101 -174t34 -216.5q0 -115 -34 -214.5t-101 -173.5t-167 -116t-232 -42t-232.5 42t-167.5 116t-100.5 173.5t-33.5 214.5zM304 522q0 -83 22 -146t61 -105t91 -63.5t112 -21.5 q58 0 109 21.5t90 63.5t61 105t22 146q0 80 -22 143t-61 107t-90 66.5t-109 22.5q-60 0 -112 -22.5t-91 -66.5t-61 -107t-22 -143z" />
<glyph unicode="&#xbb;" horiz-adv-x="925" d="M124 198v206l194 150l-194 154v204l315 -248v-216zM516 198v206l192 150l-192 154v204l316 -248v-216z" />
<glyph unicode="&#xbc;" horiz-adv-x="1681" d="M97 1082v163q44 2 83.5 10.5t71 26.5t54 48t33.5 77h151v-873h-172v586q-42 -20 -94.5 -28t-126.5 -10zM360 0l822 1440h186l-822 -1440h-186zM941 183v147l413 546h135v-534h118v-159h-118v-183h-171v183h-377zM1132 342h186v242z" />
<glyph unicode="&#xbd;" horiz-adv-x="1681" d="M97 1082v163q44 2 83.5 10.5t71 26.5t54 48t33.5 77h151v-873h-172v586q-42 -20 -94.5 -28t-126.5 -10zM298 0l822 1440h187l-823 -1440h-186zM964 0q6 86 29 147t58.5 105t80.5 75t95 59l87 53q38 24 65 48.5t41 52.5t14 65q0 53 -35 82t-92 29q-37 0 -63 -16t-43 -42 t-25 -61t-8 -72h-183q0 74 22.5 137.5t64 110.5t101 73t134.5 26q62 0 118.5 -18.5t98.5 -53t67 -84.5t25 -111q0 -44 -12.5 -81.5t-34 -69.5t-49.5 -59t-59 -50t-63 -43l-62 -36l-35 -20q-20 -11 -40.5 -25.5l-41 -30.5t-37.5 -36h422v-154h-640z" />
<glyph unicode="&#xbe;" horiz-adv-x="1681" d="M106 838h186q2 -84 36 -122t108 -38q28 0 56 8t50 22.5t35 36t13 49.5q0 34 -13 57t-35 37t-50 20t-56 6h-56v148h42q24 0 48 6t43 17t30 29t11 42t-10 42.5t-27 31t-39 18.5t-44 6q-36 0 -60 -11.5t-38 -31.5t-20 -48.5t-6 -62.5h-184q6 73 28 130.5t61 97.5t93 61 q56 21 126 21q66 0 120.5 -15.5t94.5 -47t62.5 -79.5t22.5 -112q0 -42 -24 -83t-64 -70q62 -32 94 -84.5t32 -119.5q0 -70 -28 -121.5t-74.5 -86.5t-107 -52t-126.5 -17q-70 0 -130 19t-104.5 58t-70 98.5t-25.5 140.5zM474 0l824 1440h185l-825 -1440h-184zM970 183v147 l413 546h135v-534h118v-159h-118v-183h-170v183h-378zM1162 342h186v242z" />
<glyph unicode="&#xe01;" horiz-adv-x="1273" d="M32 838q10 49 32 97t55 92.5t79 82.5t106 66t134 44t164 16q106 0 189.5 -20t146 -54.5t105 -82t69 -104.5t38.5 -119t12 -128v-728h-244v749q0 51 -16 101t-53 89t-97.5 64t-149.5 27q-74 1 -130 -16.5t-94.5 -43.5t-60.5 -55q-23 -29 -29 -54q38 -33 62 -89t24 -120 v-652h-242v654q0 24 -4 50t-15 50t-30.5 46t-50.5 38z" />
<glyph unicode="&#xe02;" horiz-adv-x="1120" d="M26 1014v195h370l194 -943l195 943h251l-269 -1209h-357l-227 1014h-157z" />
<glyph unicode="&#xe03;" horiz-adv-x="1149" d="M44 1209h230q0 -23 5 -44t15 -37.5t26 -26t37 -9.5q20 0 35.5 8.5t26.5 24t17 37.5t6 47h236v-251q0 -36 -11 -65t-32 -57.5t-52 -59.5l-73 -71q-29 -29 -49.5 -53.5t-33.5 -48t-19 -49.5t-7 -58v-77q0 -56 14.5 -99.5t41.5 -73.5t64 -45t81 -15q41 0 76.5 11t61.5 36.5 t41 67t15 100.5v808h242v-826q0 -106 -36 -183.5t-96 -128.5t-139 -76t-165 -25q-88 0 -169 26.5t-143.5 79t-99 129.5t-36.5 178v56q0 74 5.5 123.5t23 87t48.5 70t81 70.5l36 27q19 14 35.5 31.5t30.5 37.5t20 43q-22 -16 -53 -24.5t-63 -8.5q-20 0 -48.5 4.5t-59 17 t-60.5 33.5t-53 56t-38 84.5t-15 117.5z" />
<glyph unicode="&#xe04;" horiz-adv-x="1285" d="M112 0v699q0 68 10 134.5t34 125.5t63.5 110t98 88t139 58t186.5 21q104 0 184.5 -21t139.5 -58t98.5 -88t64 -110t34.5 -125.5t10 -134.5v-699h-245v726q0 34 -6.5 69t-19.5 67.5t-35 61t-54 50.5t-74 34t-97 12q-82 0 -137.5 -27t-89 -69t-48 -95t-14.5 -103v-163 q34 48 70 81.5t80 54.5t99 30t123 9v-213q-107 0 -178.5 -27.5t-114.5 -80.5t-61 -128t-18 -168v-121h-242z" />
<glyph unicode="&#xe05;" horiz-adv-x="1297" d="M112 0v710q0 59 7 117.5t24 111.5t46 100t72 85t102 64t138 39l147 -159l140 159q81 -11 141.5 -37t104.5 -64t73 -85t47 -100.5t25 -112t7 -118.5v-710h-245v734q0 32 -5 69.5t-16.5 73t-31 64.5t-48.5 44l-150 -157q-6 -6 -15 -12t-27 -6q-16 0 -26 6t-17 12l-157 157 q-28 -15 -46.5 -43.5t-29 -63t-14.5 -72.5t-4 -72v-171q34 48 70 81.5t80 54.5t99 30t123 9v-213q-107 0 -178.5 -27.5t-114.5 -80.5t-61 -128t-18 -168v-121h-242z" />
<glyph unicode="&#xe06;" horiz-adv-x="1283" d="M44 1209h230q0 -23 5 -44t15 -37.5t26 -26t37 -9.5q20 0 35.5 8.5t26.5 24t17 37.5t6 47h236v-248q0 -46 -15 -83.5t-39 -69.5t-56 -61l-64 -57q-30 -26 -49.5 -46t-31.5 -43t-17 -53t-5 -76q0 -54 22 -105t62.5 -90.5t98.5 -64t130 -24.5q48 0 87 15.5t66.5 43t43 66.5 t15.5 88v808h244v-787q0 -100 -20.5 -182.5t-70 -141.5t-132.5 -91.5t-207 -32.5q-114 0 -201 38t-149 118l-4 -130h-232v430q0 52 2 90t7.5 68t16 53t26.5 44.5t40 43.5l55 49l33 30q17 14 33 31.5t28.5 37t20.5 46.5q-22 -11 -46 -17t-52 -6q-20 0 -48.5 3.5t-59 15.5 t-60.5 33.5t-53 55.5t-38 83.5t-15 117.5z" />
<glyph unicode="&#xe07;" horiz-adv-x="952" d="M30 726h253l185 -502q10 -24 26 -35.5t36 -11.5q32 0 50 17.5t18 41.5v784h-168v189h410v-935q0 -81 -24 -138.5t-66.5 -94t-99 -54t-122.5 -17.5q-65 0 -114 17t-85.5 47t-62.5 72.5t-45 94.5z" />
<glyph unicode="&#xe08;" horiz-adv-x="1167" d="M70 840q16 90 57 162.5t107 123.5t156 78.5t202 27.5q56 0 114 -8t111.5 -27t100.5 -50t81.5 -78t53.5 -111t17 -148q0 -46 -13 -108t-36 -132t-51 -146l-60 -150l-62 -144l-60 -130h-304l-192 536h-162v192h351l162 -474l57 136q30 73 55 144.5t41 138.5t18 121 q3 118 -59.5 177t-184.5 59q-98 0 -155 -45t-79 -145h-266z" />
<glyph unicode="&#xe09;" horiz-adv-x="1273" d="M83 820q8 82 42.5 157t99.5 132.5t163 92t234 34.5q108 0 190 -20.5t142 -56.5t100 -85.5t64 -108.5t34 -124t10 -133v-708h-233l-6 136q-65 -86 -156 -126t-215 -40q-128 0 -212 34.5t-135 96t-72 148.5t-21 190v237h242v-260q0 -50 16 -91t45.5 -70t71.5 -45t94 -16 q85 0 148 27t105 75t63 114t21 142v180q0 52 -14 103t-48 92.5t-91 67t-143 25.5q-77 0 -129.5 -18t-85.5 -47.5t-50 -65t-23 -69.5h-251z" />
<glyph unicode="&#xe0a;" horiz-adv-x="1138" d="M50 985v189q36 13 71.5 22.5t66 16.5t54.5 10.5t38 3.5q68 0 124 -16.5t94 -49.5t55.5 -82.5t9.5 -117.5q-4 -33 -15.5 -62.5t-31.5 -61.5q-18 -32 -46 -70l-63 -89q-19 -26 -29 -47.5t-14 -42t-5 -42t-2 -48.5v-79q0 -56 17 -99.5t46.5 -73.5t69.5 -45t86 -15 q43 0 80.5 11t65 36.5t43.5 67t16 100.5v80q0 68 -15 107t-43.5 59.5t-70.5 26.5t-94 7v177q70 0 117.5 22t76 66t41 110t12.5 153h245q0 -66 -9.5 -131.5t-33 -123.5t-63.5 -104t-101 -74q42 -13 72.5 -33.5t50.5 -46t31 -53.5t17 -56.5t7.5 -55.5t1.5 -50v-98 q0 -70 -17.5 -128.5t-47.5 -104.5t-72.5 -80t-92 -56t-105.5 -33q-54 -11 -112 -11q-89 0 -172 26.5t-147.5 79t-103 129.5t-38.5 178v98q0 46 2.5 80.5t8 61.5t15 49t22.5 43t31 43l42 50l32 40q14 18 24 35t16 34t10 35q6 36 -14 60t-56 24q-20 0 -40 -3t-43 -9t-50 -16z " />
<glyph unicode="&#xe0b;" horiz-adv-x="1211" d="M21 1209h229q0 -23 6 -44t16 -37.5t26 -25.5q16 -10 36 -10t35.5 8.5t27 24t17 37.5t5.5 47h235v-251q0 -36 -8 -65t-26 -57t-45 -59t-65 -69q-28 -29 -43 -64.5t-23 -73.5t-9 -77t-1 -74q0 -56 17 -99.5t46 -73.5t68 -45t83 -15t82 11t65.5 36.5t44 67t16.5 100.5v77 q0 64 -16 103t-43.5 61t-67 30t-86.5 9v177q66 4 111 28.5t73.5 68t41.5 107.5t13 147h242q0 -66 -9.5 -131.5t-33 -123.5t-63.5 -104t-100 -74q43 -14 73.5 -35t50.5 -46.5t32 -54t18 -56.5t7 -55t1 -51v-95q0 -106 -38 -183.5t-101 -128.5t-145 -76t-168 -25 q-88 0 -171 26.5t-147 79t-103 129.5t-39 178q0 72 2.5 129.5t15 105.5t39.5 92t76 89l23 25q14 15 27 33t25 37q10 20 16 38q-50 -36 -117 -36q-20 0 -48.5 4.5t-59 17t-60.5 33.5t-53.5 56t-38 84.5t-14.5 117.5z" />
<glyph unicode="&#xe0c;" horiz-adv-x="1908" d="M32 838q10 49 32 97t55 92.5t77.5 82.5t101.5 66t126.5 44t153.5 16q102 0 181 -20t138.5 -54.5t100 -82.5t66.5 -104.5t37 -119.5t11 -129v-196q0 -74 18 -137t52.5 -109t85 -72t115.5 -26q39 0 70 11t52.5 36.5t33.5 67t12 100.5v808h245v-787q0 -108 -19 -192 t-64 -141.5t-119 -88t-184 -30.5q-52 0 -96 12t-83 33t-71 51t-57 64l-3 -130h-233v749q0 50 -14.5 99.5t-48.5 89.5t-89 65t-137 27q-66 1 -116 -14t-86 -39.5t-58 -54.5t-30 -61q45 -31 65.5 -87t20.5 -126v-450h130v-198h-372v652q0 26 -4 52t-15 50t-30.5 46t-50.5 38z " />
<glyph unicode="&#xe0d;" horiz-adv-x="1908" d="M32 823q10 50 32 99.5t55 96t77.5 86t101.5 68.5t126.5 46t153.5 17q102 0 181 -20.5t138.5 -56.5t100 -85.5t66.5 -108.5t37 -124t11 -133v-212q0 -62 12 -104.5t33 -68t53 -37.5t70 -12q65 0 115.5 28t85 76t52.5 113t18 141v577h245v-959q0 -87 -9 -152.5t-23 -115.5 t-32 -85q-20 -35 -40 -62l4 3q-36 -54 -83 -92t-99.5 -61.5t-111 -34t-119.5 -10.5q-83 0 -159 22t-137.5 66t-103 112t-55.5 160h230q10 -40 34 -70t55 -50.5t65.5 -31t67.5 -10.5q80 0 133 27t85 71t46 97.5t14 105.5v77q-26 -32 -59 -62t-71.5 -52t-82.5 -35 q-43 -13 -91 -13q-111 0 -185.5 30.5t-119.5 90t-63.5 146.5t-18.5 198v213q0 52 -14.5 103t-48.5 92t-89 66.5t-137 26.5q-66 1 -116 -13.5t-86 -39.5t-58 -57t-30 -64q45 -32 65.5 -89t20.5 -129v-430h130v-198h-372v632q0 25 -4 51.5t-15 51.5t-30.5 47.5t-50.5 40.5z " />
<glyph unicode="&#xe0e;" horiz-adv-x="1324" d="M65 0v198h118v456q0 24 -4 50t-15.5 50t-30.5 46t-50 38q10 49 32 97t55 92.5t78.5 82.5t105.5 66t134 44t164 16q106 0 189 -20t145.5 -54.5t105 -82t69.5 -104.5t39 -119t12 -128v-1144h-236q-16 26 -40 51t-58.5 44t-82 30t-111.5 11q-104 0 -187 -45t-158 -127v234 q28 28 64.5 53t80.5 43t94 28.5t106 10.5q52 0 96 -7t79 -18.5t62 -24.5t46 -23v905q0 51 -15.5 101t-52.5 89t-97 64t-150 27q-74 1 -130 -16.5t-94 -43.5t-60 -55t-29 -54q38 -33 62 -89t24 -120v-652h-360z" />
<glyph unicode="&#xe0f;" horiz-adv-x="1324" d="M65 0v198h118v456q0 24 -4 50t-15.5 50t-30.5 46t-50 38q10 49 32 97t55 92.5t78.5 82.5t105.5 66t134 44t164 16q106 0 189 -20t145.5 -54.5t105 -82t69.5 -104.5t39 -119t12 -128v-1144h-242q-4 20 -13.5 45t-25.5 46.5t-38.5 36t-52.5 14.5t-52 -14t-36 -35t-21.5 -46 t-7.5 -47h-204q0 16 -4.5 40t-16.5 47t-34 40q-20 17 -54 17q-26 0 -45 -13t-30 -34t-17 -47t-6 -50h-194q0 86 24.5 148.5t64 103t88.5 59.5t97 19q71 0 126.5 -29t91.5 -83q20 26 45 45.5t51.5 32t53 19.5t50.5 7q54 0 92 -16t65 -40v899q0 51 -15.5 101t-52.5 89t-97 64 t-150 27q-74 1 -130 -16.5t-94 -43.5t-60 -55t-29 -54q38 -33 62 -89t24 -120v-652h-360z" />
<glyph unicode="&#xe10;" horiz-adv-x="1162" d="M62 828q15 90 57.5 165t110.5 129t159 84t203 30q52 0 104 -7t100 -23q24 4 42 17t30 30t18 37t8 40h260q-2 -34 -11 -71.5t-28 -72t-49 -62.5q-28 -28 -72 -44q38 -47 58 -114q20 -66 18 -156q0 -46 -13 -107t-36 -131t-51 -146l-60 -150l-62 -146l-60 -130h-304 l-192 540h-162v188h351l162 -472l57 135q30 72 55 143.5t41 138.5t18 121q3 118 -59.5 177t-184.5 59q-98 0 -159 -52t-83 -150h-266zM132 -425q-4 59 6.5 103.5t29.5 77t44.5 53.5t52 33t52 17t46.5 5q46 0 82.5 -16t62.5 -42q33 33 67.5 45.5t58.5 12.5q35 0 61.5 -9 t50.5 -29v82h244v-333h-238q-6 52 -26 78q-18 26 -56 26q-18 0 -31.5 -8t-22.5 -22t-13.5 -32.5t-4.5 -41.5h-138q0 21 -5 40t-14 33t-23 22.5t-32 8.5t-32 -8.5t-22 -23t-12 -33t-4 -39.5h-184z" />
<glyph unicode="&#xe11;" horiz-adv-x="1283" d="M44 1209h230q0 -24 5 -45.5t15 -37.5t26 -25t37 -9q40 0 62.5 32t22.5 85h236v-85q46 33 89 55t82.5 35.5t73.5 18.5t59 5q60 0 97 -19t57 -53.5t27 -83.5q7 -48 7 -108v-974h-244v896q0 23 -1 43.5t-4 35.5t-9 24t-16 9q-44 0 -138 -78.5t-233 -239.5l-43 -51 q-19 -22 -33 -41.5t-23.5 -37.5t-16 -39t-9 -46t-2.5 -59v-416h-244v392q0 46 1 81t5 62.5t12 51t23 48t37 51t54 60.5l65 67q27 28 45 48.5t27 36.5t13 34q-11 -6 -25.5 -12t-30.5 -11t-32 -9t-30 -4q-20 0 -48.5 4t-59 16t-60.5 34t-53 56t-38 84.5t-15 118.5z" />
<glyph unicode="&#xe12;" horiz-adv-x="1958" d="M112 0v746q0 57 6 111.5t22 103.5t43.5 91.5t69 77t99.5 58.5q60 24 138 36l147 -154l139 154q80 -11 140 -34.5t103 -57.5t71 -77t44 -92t22 -104t6 -113v-216q0 -74 18 -137t52.5 -109t85 -72t116.5 -26q40 0 71 11t52.5 36.5t33 67t11.5 100.5v808h244v-787 q0 -108 -19 -192t-64 -141.5t-119 -88t-184 -30.5q-51 0 -95.5 12t-83.5 33t-71 51t-56 64v-130h-236v770q0 31 -2.5 64t-11 62.5t-25.5 54t-47 37.5l-154 -148q-4 -4 -15 -10.5t-26 -6.5q-16 0 -26.5 5.5t-18.5 11.5l-156 150q-24 -14 -40 -39t-25 -55t-13 -63t-4 -63v-446 q40 52 90 109l96 113h-86v182h351v-168l-463 -560h-230z" />
<glyph unicode="&#xe13;" horiz-adv-x="1908" d="M32 838q10 49 32 97t55 92.5t77.5 82.5t101.5 66t126.5 44t153.5 16q102 0 181 -20t138.5 -54.5t100 -82.5t66.5 -104.5t37 -119.5t11 -129v-325q0 -60 12 -101t33 -66.5t53 -36.5t70 -11q65 0 115.5 26t85 72t52.5 109t18 137v679h245v-1209h-236l-2 130 q-26 -34 -58 -64t-70.5 -51t-82.5 -33q-43 -12 -93 -12q-111 0 -185.5 30.5t-119.5 88t-63.5 141.5t-18.5 192v327q0 50 -14.5 99.5t-48.5 89.5t-89 65t-137 27q-66 1 -116 -13.5t-86 -38.5t-58 -55t-30 -62q45 -31 65.5 -87t20.5 -126v-450h130v-198h-372v652q0 26 -4 52 t-15 50t-30.5 46t-50.5 38z" />
<glyph unicode="&#xe14;" horiz-adv-x="1297" d="M112 0v723q0 64 10 127.5t34 120.5t64 105t100 84t141 56t187 20t187 -20t141 -56t100 -84t64.5 -105t35 -120t10.5 -128v-723h-245v746q0 50 -12.5 100.5t-45 91t-89 66.5t-146.5 26t-146.5 -26t-90 -66.5t-45.5 -91t-12 -100.5v-430l204 230h-95v186h365v-172 l-486 -560h-230z" />
<glyph unicode="&#xe15;" horiz-adv-x="1306" d="M112 0v728q0 85 18 166.5t62 149t120 115t192 65.5l150 -150l140 150q120 -16 197.5 -63t122.5 -114.5t62 -149.5q18 -83 18 -169v-728h-242v749q0 30 -6 65.5t-19.5 68.5t-33 61t-47.5 44l-150 -148q-7 -6 -17.5 -11.5t-24.5 -5.5q-15 0 -26 5q-12 6 -18 12l-156 150 q-30 -14 -49 -41t-30.5 -60t-16 -70t-4.5 -70v-431l204 228h-95v182h369v-168l-490 -560h-230z" />
<glyph unicode="&#xe16;" horiz-adv-x="1250" d="M32 838q10 49 31 97t53 92.5t76.5 82.5t103 66t131.5 44t163 16q106 0 188.5 -20t143.5 -54.5t102.5 -82t66.5 -104.5t36 -119t11 -128v-728h-242v749q0 51 -14 101t-49 89t-95 64q-58 25 -148 27q-74 1 -128.5 -16.5t-90.5 -43.5t-56 -56q-21 -30 -27 -53q22 -15 39 -37 t27 -49t15 -59t5 -64v-454h130v-198h-372v654q0 24 -4 50t-15 50t-30.5 46t-50.5 38z" />
<glyph unicode="&#xe17;" horiz-adv-x="1273" d="M112 0v1209h236l2 -147q64 86 156 131t217 45q128 0 212 -34t134.5 -96t71.5 -148t21 -190v-770h-242v794q0 50 -16 90t-46 69.5t-72 44.5q-40 16 -92 16q-86 0 -149 -27t-105 -75t-62.5 -113t-20.5 -141v-658h-245z" />
<glyph unicode="&#xe18;" horiz-adv-x="1208" d="M112 354v254h242v-254q0 -48 23 -81.5t59 -54t81 -29.5t88 -9q40 0 84.5 7t81.5 27t62 53.5t25 86.5q0 29 -4 52.5t-16 43.5t-34.5 38t-58.5 36t-88 37q-51 19 -123 41l-164 52q-77 26 -135.5 62t-91.5 87t-31 129q2 56 22 99.5t53 77t77 56.5t94 38.5t104 22t108 6.5 q108 0 200 -22t159.5 -70t106 -124t38.5 -184h-246q-1 54 -18.5 92t-49.5 62t-77.5 35t-101.5 11q-46 0 -86.5 -4t-72 -14t-50 -27t-18.5 -43q0 -19 18.5 -36.5t47 -34t64.5 -31t71 -26.5t65 -21l50 -14l130 -42.5t108.5 -45t85.5 -55t61.5 -71t37.5 -93t13 -120.5 q0 -102 -42 -174t-112 -117t-160 -66t-187 -21q-99 0 -188 21t-157 67t-108 118t-40 172z" />
<glyph unicode="&#xe19;" horiz-adv-x="1273" d="M112 439v770h242v-793q0 -50 16 -91t45.5 -70t71.5 -45t94 -16q85 0 148 27t105 75t63 114t21 142v657h244v-1209h-236l-3 148q-65 -87 -156 -132.5t-215 -45.5q-128 0 -212 34.5t-135 96t-72 148t-21 190.5z" />
<glyph unicode="&#xe1a;" horiz-adv-x="1273" d="M112 510v699h242v-723q0 -52 14 -105t46 -96t86.5 -70t136.5 -27t136.5 27t86.5 70t45 97q13 52 13 104v723h244v-705q0 -68 -10 -133t-33 -124.5t-62 -109.5t-98 -86.5t-138 -56.5t-184 -20t-185 20.5t-138 58t-97 88t-62 110t-33 125.5t-10 134z" />
<glyph unicode="&#xe1b;" horiz-adv-x="1273" d="M112 510v699h242v-723q0 -52 14 -105t46 -96t86.5 -70t136.5 -27t136.5 27t86.5 70t45 97q13 52 13 104v1252h244v-1234q0 -68 -10 -133t-33 -124.5t-62 -109.5t-98 -86.5t-138 -56.5t-184 -20t-185 20.5t-138 58t-97 88t-62 110t-33 125.5t-10 134z" />
<glyph unicode="&#xe1c;" horiz-adv-x="1365" d="M112 342v867h402v-197h-160v-632q0 -108 26 -154t77 -46q39 0 60 20t31 55.5t11 82.5t1 101v193h242v-193q0 -54 3 -101t15 -82.5t34 -55.5q24 -20 64 -20q24 0 41.5 11t29 35t17.5 62t6 92v829h242v-867q0 -94 -22 -163t-62 -114t-97 -67t-126 -22q-88 0 -155.5 36 t-110.5 103q-33 -71 -96 -105t-157 -34q-72 0 -130.5 22t-99.5 67t-63.5 114t-22.5 163z" />
<glyph unicode="&#xe1d;" horiz-adv-x="1365" d="M112 342v867h402v-197h-160v-632q0 -108 26 -154t77 -46q39 0 60 20t31 55.5t11 82.5t1 101v193h242v-193q0 -54 3 -101t15 -82.5t34 -55.5q24 -20 64 -20q24 0 41.5 11t29 35t17.5 62t6 92v1358h242v-1396q0 -94 -22 -163t-62 -114t-97 -67t-126 -22q-88 0 -155.5 36 t-110.5 103q-33 -71 -96 -105t-157 -34q-72 0 -130.5 22t-99.5 67t-63.5 114t-22.5 163z" />
<glyph unicode="&#xe1e;" horiz-adv-x="1601" d="M36 1209h268l177 -867l185 867h268l190 -859l174 859h265l-307 -1209h-266l-194 858l-186 -858h-268z" />
<glyph unicode="&#xe1f;" horiz-adv-x="1601" d="M36 1209h268l177 -867l185 867h268l190 -859l262 1388h266l-396 -1738h-266l-194 858l-186 -858h-268z" />
<glyph unicode="&#xe20;" horiz-adv-x="1324" d="M65 0v198h118v456q0 24 -4 50t-15.5 50t-30.5 46t-50 38q10 49 32 97t55 92.5t78.5 82.5t105.5 66t134 44t164 16q106 0 189 -20t145.5 -54.5t105 -82t69.5 -104.5t39 -119t12 -128v-728h-245v749q0 51 -15.5 101t-52.5 89t-97 64t-150 27q-74 1 -130 -16.5t-94 -43.5 t-60 -55t-29 -54q38 -33 62 -89t24 -120v-652h-360z" />
<glyph unicode="&#xe21;" horiz-adv-x="1273" d="M112 0v1209h245v-657q0 -76 20.5 -142t62.5 -114t105 -75t149 -27q52 0 93 16t71 45t46 70t16 91v793h242v-770q0 -104 -21 -190.5t-71.5 -148t-135 -96t-211.5 -34.5q-124 0 -217 46q-92 46 -156 132l-2 -148h-236z" />
<glyph unicode="&#xe22;" horiz-adv-x="1241" d="M92 380q0 46 6 87.5t21 76.5t41 63q27 27 67 47q-42 24 -68 55.5t-40.5 66t-19.5 68.5q-5 36 -5 68q0 59 16 103.5t42 77.5t61 55t73 36t77.5 19.5t75.5 5.5h183v-206h-132q-16 0 -41 -2.5t-48 -13.5t-39.5 -32t-16.5 -59q0 -41 12.5 -66.5t34.5 -40.5t50.5 -22t61.5 -9 h118v-204h-118q-36 -2 -65 -8t-50 -24t-32.5 -50t-11.5 -82q0 -54 22.5 -94t60 -66.5t86.5 -39.5q48 -13 102 -13q58 0 108 15.5t86 49.5t57 89t21 135v743h242v-784q0 -111 -41 -196t-111 -142t-163 -87t-199 -30q-66 0 -130 11t-122 33t-108 56t-87 79.5t-57 103 t-20 127.5z" />
<glyph unicode="&#xe23;" horiz-adv-x="1073" d="M62 401h244q4 -60 21.5 -102t47 -68.5t73.5 -38.5q42 -12 100 -12q34 0 71 6.5t69 24t52.5 47.5t20.5 78q0 37 -15 62.5t-46.5 47.5t-79.5 42l-112 46l-112 44q-53 21 -98.5 43.5t-83 49.5t-64 59.5t-40.5 73.5q-16 42 -16 96q-1 58 16.5 105t47 84t70 64.5t87.5 45 t97 25.5q52 8 102 8q98 0 179 -18.5t141 -64t96 -121.5q34 -76 40 -190h-242q-6 56 -21.5 93t-40.5 60.5t-59.5 34t-76.5 10.5q-31 0 -63.5 -7.5t-59.5 -23t-44.5 -41t-17.5 -62.5q0 -28 15 -50t46.5 -41t80.5 -39t115 -44q79 -28 140.5 -55t106 -54.5t75 -57t48.5 -63.5 t26 -73t8 -86q0 -100 -36 -169.5t-99 -112.5t-149 -62t-186 -19q-98 0 -181 23t-146 73.5t-102 131.5t-45 197z" />
<glyph unicode="&#xe24;" horiz-adv-x="1250" d="M32 838q10 49 31 97t53 92.5t76.5 82.5t103 66t131.5 44t163 16q106 0 188.5 -20t143.5 -54.5t102.5 -82t66.5 -104.5t36 -119t11 -128v-1120h-242v1141q0 51 -14 101t-49 89t-95 64q-58 25 -148 27q-74 1 -128.5 -16.5t-90.5 -43.5t-56 -56q-21 -30 -27 -53 q22 -15 39 -37t27 -49t15 -59t5 -64v-454h130v-198h-372v654q0 24 -4 50t-15 50t-30.5 46t-50.5 38z" />
<glyph unicode="&#xe25;" horiz-adv-x="1244" d="M76 321q0 72 17 125.5t50 94t80 68.5t107 48.5t132 34.5q72 16 154 28l102 15q50 8 88 21.5t61 35.5t23 60q0 58 -22 94t-57 54t-78.5 24t-86.5 6q-58 0 -107 -12t-85 -39t-58 -71t-24 -109h-248q2 82 23 145.5t57 111.5t85 82t108 54.5t126 30t138 9.5q56 0 112.5 -6.5 t109.5 -23t98 -42.5t79 -66t53 -95t19 -127v-872h-242v587q-22 -10 -48.5 -17.5t-55 -12.5t-58.5 -9.5t-58 -7.5q-64 -8 -125.5 -18.5t-110.5 -32t-79.5 -58.5t-30.5 -97q0 -46 20 -76.5t51.5 -49t71 -26.5t79.5 -8q33 0 68.5 6t72.5 14v-191q-49 -13 -94.5 -21t-94.5 -8 q-84 0 -161 18.5t-135 60t-92 107.5t-34 161z" />
<glyph unicode="&#xe26;" horiz-adv-x="1324" d="M65 0v198h118v456q0 24 -4 50t-15.5 50t-30.5 46t-50 38q10 49 32 97t55 92.5t78.5 82.5t105.5 66t134 44t164 16q106 0 189 -20t145.5 -54.5t105 -82t69.5 -104.5t39 -119t12 -128v-1120h-245v1141q0 51 -15.5 101t-52.5 89t-97 64t-150 27q-74 1 -130 -16.5t-94 -43.5 t-60 -55t-29 -54q38 -33 62 -89t24 -120v-652h-360z" />
<glyph unicode="&#xe27;" horiz-adv-x="1132" d="M80 430h244q4 -66 23 -114t49 -79t69 -45.5t83 -14.5q60 0 108 25.5t82 78.5t52 134t18 190q0 110 -18 191.5t-52 134.5t-82 79t-108 26q-45 0 -83.5 -15t-68.5 -46t-48 -79q-20 -48 -24 -115h-244q4 102 39 186t96 144.5t145 93.5t188 33q130 0 226.5 -45.5t159.5 -129 t93.5 -199.5t30.5 -259t-30.5 -259.5t-93.5 -199t-159 -127.5q-97 -45 -227 -45q-104 0 -188 33t-145 93t-96 144t-39 186z" />
<glyph unicode="&#xe28;" horiz-adv-x="1285" d="M112 0v699q0 68 10 134.5t34 125.5t63.5 110t98 88t139 58t186.5 21q68 0 125.5 -9.5t105.5 -26.5q26 2 44 14t31 30.5t19 41.5q6 22 8 44h260q-2 -36 -12 -75t-29.5 -76t-51 -67t-75.5 -47q29 -38 49.5 -80.5t33 -89.5t18 -96t5.5 -100v-699h-245v726q0 34 -6.5 69 t-19.5 67.5t-35 61t-54 50.5t-74 34t-97 12q-82 0 -137.5 -27t-89 -69t-48 -95t-14.5 -103v-163q34 48 70 81.5t80 54.5t99 30t123 9v-213q-107 0 -178.5 -27.5t-114.5 -80.5t-61 -128t-18 -168v-121h-242z" />
<glyph unicode="&#xe29;" horiz-adv-x="1273" d="M112 490v719h242v-741q0 -51 11 -101.5t42 -92.5t86 -68t144 -26q59 0 103 12t75 33t51 49t31 60t16 66t5 68v95h-352v280h230v-85h122v451h244v-451h109v-195h-109v-73q0 -64 -8.5 -128t-31 -121.5t-60.5 -106.5t-96 -84.5t-139.5 -55.5t-189.5 -20t-189.5 20t-140 55.5 t-96 84.5t-59.5 106.5t-31 121.5t-9 128z" />
<glyph unicode="&#xe2a;" horiz-adv-x="1244" d="M76 321q0 81 23.5 139.5t64 101t94.5 69.5t116 45.5t129 29l131 20.5q48 6 95 14t82 21t57 35t22 56q0 58 -22 94t-57 54t-78.5 24t-86.5 6q-58 0 -107 -11t-85 -38t-58 -70t-24 -109h-248q2 82 23 145.5t57 111t85 81.5t108 55t126 31t138 10q53 0 108 -7t107 -23 q26 2 45.5 14t33 29t21.5 38.5t9 42.5h260q0 -34 -9.5 -72t-30.5 -74t-53 -66t-76 -44q24 -40 40 -90q16 -52 16 -112v-872h-242v592q-44 -20 -104 -33q-58 -13 -116 -19q-64 -6 -125.5 -16t-110.5 -31.5t-79.5 -59t-30.5 -97.5q0 -45 20 -75.5t51.5 -49t71 -26.5t79.5 -8 q33 0 68.5 5.5t72.5 15.5v-195q-49 -13 -94.5 -20t-94.5 -7q-84 0 -161 18.5t-135 59t-92 106.5t-34 161z" />
<glyph unicode="&#xe2b;" horiz-adv-x="1247" d="M112 0v1209h242v-424l492 424h354l-268 -227q64 -25 103 -66.5t61.5 -97.5t31 -123t8.5 -143v-552h-242v576q0 43 -8 83.5t-25 74.5t-44 58.5t-65 33.5l-398 -340v-486h-242z" />
<glyph unicode="&#xe2c;" horiz-adv-x="1601" d="M30 1209h271l147 -888l206 699h251l215 -702l23 118l21 113l22 112l23 115q9 44 12 75t3 57q0 31 -7 55.5t-24.5 41t-46 25t-70.5 8.5v171q58 2 104.5 14t81 34.5t54.5 58.5t26 85h278q-8 -64 -29 -113.5t-51 -85t-68 -58.5t-80 -35q30 -28 49 -62.5t25.5 -74t4 -82 t-14.5 -85.5l-196 -805h-270l-214 694l-210 -694h-268z" />
<glyph unicode="&#xe2d;" horiz-adv-x="1226" d="M70 602v88h546v-192h-295q2 -72 25.5 -131t62 -101t92 -65.5t115.5 -23.5q70 0 126 28.5t95 82.5t60 133t21 181q0 208 -76 318t-228 110q-58 0 -107 -14t-85.5 -42t-60 -68t-31.5 -92h-256q20 96 62 174.5t108 134t158 85.5t212 30q100 0 180.5 -22t141.5 -63 t104.5 -98.5t71 -128t40.5 -152.5t13 -172q0 -84 -13 -163t-40.5 -149t-71.5 -128t-104.5 -100t-140 -65t-179.5 -23t-179.5 23t-140 64t-103.5 99t-70 128t-40 149.5t-13 164.5z" />
<glyph unicode="&#xe2e;" horiz-adv-x="1221" d="M70 605v85h546v-189h-295q2 -72 25.5 -131.5t62 -101.5t92 -65t115.5 -23q70 0 126 28t95 82.5t60 134t21 180.5q0 206 -76 315.5t-228 109.5q-114 0 -186 -56t-98 -160h-256q20 96 62 175t108 135t158 87t212 31q58 0 111.5 -9t100.5 -27q23 2 40.5 13t28.5 28.5t17 39 t8 43.5h262q-1 -34 -10.5 -70t-29.5 -70t-50 -62t-69 -46q36 -43 62.5 -97t44 -115.5t26.5 -128.5t9 -136q0 -84 -13 -163.5t-40.5 -149.5t-71.5 -128t-104.5 -100t-140 -65t-179.5 -23t-179.5 23t-140 64.5t-103.5 99.5t-70 127.5t-40 149.5t-13 165z" />
<glyph unicode="&#xe2f;" horiz-adv-x="1250" d="M86 864q0 65 17 115.5t47 89.5t69.5 65t85 43t93.5 24.5t94 7.5h195v-203h-195q-80 0 -118 -36t-38 -109q0 -35 11 -70t38 -62t74 -45t119 -18q155 0 236.5 57t81.5 179v307h242v-1209h-242v563q-58 -49 -137 -73t-172 -24q-124 0 -218 28t-157 80t-94.5 126t-31.5 164z " />
<glyph unicode="&#xe30;" horiz-adv-x="728" d="M112 188v275h224v-89h289v-186h-513zM112 788v277h224v-89h289v-188h-513z" />
<glyph unicode="&#xe31;" d="M-761 1394v290h225v-104h580v-186h-805z" />
<glyph unicode="&#xe32;" horiz-adv-x="1029" d="M32 810q0 68 17.5 126.5t48.5 105t73.5 82.5t92 60t105 36t112.5 12q94 0 173.5 -25t138 -77.5t92 -132t33.5 -187.5v-810h-242v770q0 130 -50 190t-145 60q-84 0 -136 -52q-52 -54 -59 -158h-254z" />
<glyph unicode="&#xe33;" horiz-adv-x="1029" d="M-490 1602q0 48 18 89t49.5 72.5t74 50t89.5 18.5q46 0 87.5 -18.5t73.5 -50t50 -73.5q18 -40 18 -88t-18 -90t-50 -73t-73.5 -49t-87.5 -18q-48 0 -90 18t-73.5 49t-49.5 73t-18 90zM-342 1602q0 -17 6.5 -32.5t18 -26.5t26.5 -18t32 -7q16 0 31 7t26.5 18t18 26t6.5 33 q0 16 -6.5 31t-18 26t-26 18t-31.5 7t-32 -7t-26.5 -18t-18 -26t-6.5 -31zM32 810q0 68 17.5 126.5t48.5 105t73.5 82.5t92 60t105 36t112.5 12q94 0 173.5 -25t138 -77.5t92 -132t33.5 -187.5v-810h-242v770q0 130 -50 190t-145 60q-84 0 -136 -52q-52 -54 -59 -158h-254z " />
<glyph unicode="&#xe34;" d="M-1170 1392l96 192h962v-192h-1058z" />
<glyph unicode="&#xe35;" d="M-1170 1392l96 192h732v170h230v-362h-1058z" />
<glyph unicode="&#xe36;" d="M-1170 1392l96 192h564v20q0 44 16 83t45 68t68 45t83 16t83 -16t67.5 -45t45 -68t16.5 -83t-16.5 -83t-45 -67.5t-67.5 -45t-83 -16.5h-872zM-374 1604q0 -15 6 -28.5t16 -23.5t24.5 -16t29.5 -6q16 0 30 6t24 16t16.5 23.5t6.5 28.5q0 16 -6.5 30.5t-16.5 25t-24 16 t-30 5.5q-15 0 -29.5 -5.5t-24.5 -16t-16 -25t-6 -30.5z" />
<glyph unicode="&#xe37;" d="M-1170 1392l96 192h416v170h219v-170h109v170h218v-362h-1058z" />
<glyph unicode="&#xe38;" d="M-445 -139h333v-451h-227v266h-106v185z" />
<glyph unicode="&#xe39;" d="M-876 -139h336v-165q0 -58 24.5 -88t76.5 -30q49 0 74.5 30t25.5 88v165h227v-165q0 -62 -17 -118t-56 -98t-101 -66t-153 -24q-86 0 -146.5 20t-100.5 58t-60 90q-22 54 -24 118h-106v185z" />
<glyph unicode="&#xe3a;" d="M-412 -266q0 34 13 64t35 53t52 36t64 13q33 0 62.5 -13t51.5 -36t35 -53t13 -64t-13 -63t-35 -51t-51 -35t-63 -13t-64 13t-52 35t-35 51t-13 63z" />
<glyph unicode="&#xe3e;" />
<glyph unicode="&#xe3f;" horiz-adv-x="1371" d="M130 0v1440h440v126h224v-130q86 -4 167 -21.5t144 -58t101.5 -108.5t38.5 -174q0 -105 -37.5 -180.5t-115.5 -126.5q52 -22 92 -56.5t67 -78t41.5 -95t14.5 -109.5q0 -53 -13.5 -105.5t-40.5 -100t-66.5 -88t-91 -70.5t-116 -47t-139.5 -17h-46v-136h-224v136h-440z M383 216h187v412h-187v-412zM383 846h187v375h-187v-375zM794 216h20q58 0 102 15t74.5 43t46 69t15.5 93q0 56 -22 92t-58 58t-83 31t-95 11v-412zM794 850q106 11 153 57.5t47 128.5q0 60 -14 95.5t-40 55t-63 26.5t-83 8v-371z" />
<glyph unicode="&#xe40;" horiz-adv-x="516" d="M136 0v1209h244v-1209h-244z" />
<glyph unicode="&#xe41;" horiz-adv-x="923" d="M136 0v1209h244v-1209h-244zM543 0v1209h245v-1209h-245z" />
<glyph unicode="&#xe42;" horiz-adv-x="613" d="M-8 1569l46 185h590l110 -194h-378q29 -34 42.5 -76t13.5 -86v-1200h127v-198h-369v1392q0 42 -14 75t-39 55.5t-58 34.5t-71 12z" />
<glyph unicode="&#xe43;" horiz-adv-x="613" d="M-68 1434q0 96 28.5 166t76.5 117t110.5 69t129.5 22q60 0 116.5 -14t100.5 -44t70 -78q26 -50 26 -118q0 -38 -12 -66t-31 -53t-43 -49t-47 -54q-15 -18 -23.5 -42t-12 -50t-4.5 -51t-1 -48v-943h127v-198h-369v1141q0 50 4 88.5t15.5 72t32.5 64t54 64.5q8 9 23.5 22.5 t30 28.5t24.5 31t10 30q0 13 -4 26.5t-14.5 24.5t-28 17t-44.5 6q-28 0 -50.5 -13t-37.5 -36.5t-22.5 -57t-7.5 -75.5h-227z" />
<glyph unicode="&#xe44;" horiz-adv-x="613" d="M-148 1560l110 194h590l46 -185q-38 0 -71 -12t-57.5 -34.5t-39 -55.5t-14.5 -75v-1194h127v-198h-369v1398q0 44 14 86t42 76h-378z" />
<glyph unicode="&#xe45;" horiz-adv-x="1029" d="M32 810q0 68 17.5 126.5t48.5 105t73.5 82.5t92 60t105 36t112.5 12q94 0 173.5 -25t138 -77.5t92 -132t33.5 -187.5v-1202h-242v1162q0 130 -50 190t-145 60q-84 0 -136 -52q-52 -54 -59 -158h-254z" />
<glyph unicode="&#xe46;" horiz-adv-x="1179" d="M80 761q0 88 16 164.5t57.5 136.5t114 102t186.5 60l127 -132l115 129q84 -7 144 -30t102 -58t66.5 -81t37.5 -99t17.5 -110t4.5 -117v-1116h-245v1139q0 33 -1 71t-8 72t-21.5 59.5t-40.5 33.5l-130 -135q-6 -7 -17 -12.5t-24 -5.5q-16 0 -26.5 5t-18.5 13l-129 132 q-24 -15 -41.5 -38t-28 -51.5t-14.5 -61t-2 -67.5q2 -26 7.5 -52t18.5 -47t36.5 -33.5t58.5 -12.5h50v-212h-50q-72 0 -138 20t-116 63t-79 110t-29 161z" />
<glyph unicode="&#xe47;" d="M-1068 1672q0 74 26.5 126t71 86t102.5 49.5t122 15.5h590v-173h-570q-43 0 -68.5 -11t-38.5 -27t-16 -34t-3 -32q0 -9 2 -22.5t10 -26.5t22 -22t37 -9q37 0 56 29t17 77h165q-2 -49 15.5 -77.5t55.5 -28.5q20 0 32.5 8t19 22t7.5 34t-3 42h182q10 -77 -3 -131.5 t-43 -89.5t-73 -51t-92 -16q-32 0 -59.5 8t-49.5 22t-40 32t-28 38q-12 -20 -32 -38t-45 -32t-53 -22t-58 -8q-74 0 -124 25t-80 63t-42 84t-12 90z" />
<glyph unicode="&#xe48;" d="M-339 1890v354h224v-354h-224z" />
<glyph unicode="&#xe49;" d="M-672 2067v180h304v-180q58 1 104 16t78 39t48.5 56t16.5 69h209q0 -70 -29 -134.5t-89 -114.5t-150 -80.5t-212 -30.5h-168v180h-112z" />
<glyph unicode="&#xe4a;" d="M-714 1887q-6 80 9 138.5t42.5 97.5t65 58t78.5 19q42 0 76.5 -20t59.5 -54q22 34 60.5 54t80.5 20q28 0 54 -8t47 -24t37 -40.5t24 -57.5q12 14 22 33t18 41.5t12 47.5q4 26 4 50h192q0 -36 -9 -75t-25 -76t-38 -71t-49 -61.5t-57 -46.5q-32 -18 -64 -25h-153 q0 14 -1.5 36.5t-5.5 43.5t-12 37t-20 16t-19.5 -13.5t-11.5 -34t-5.5 -43.5t-1.5 -42h-156q0 19 -1.5 42t-5 43.5t-10.5 34t-19 13.5t-19 -16t-11 -37t-6 -43.5t-2 -36.5h-180z" />
<glyph unicode="&#xe4b;" d="M-508 2038v174h172v148h218v-148h172v-174h-172v-151h-218v151h-172z" />
<glyph unicode="&#xe4c;" d="M-501 1749q0 82 30.5 147.5t87.5 112t139 71t185 26.5v-183q-109 0 -166.5 -41.5t-57.5 -132.5h-218z" />
<glyph unicode="&#xe4d;" d="M-490 1602q0 48 18 89t49.5 72.5t74 50t89.5 18.5q46 0 87.5 -18.5t73.5 -50t50 -73.5q18 -40 18 -88t-18 -90t-50 -73t-73.5 -49t-87.5 -18q-48 0 -90 18t-73.5 49t-49.5 73t-18 90zM-342 1602q0 -17 6.5 -32.5t18 -26.5t26.5 -18t32 -7q16 0 31 7t26.5 18t18 26t6.5 33 q0 16 -6.5 31t-18 26t-26 18t-31.5 7t-32 -7t-26.5 -18t-18 -26t-6.5 -31z" />
<glyph unicode="&#xe4e;" d="M-558 1394q0 58 13 110t39 95t68 74t99 47q10 42 34.5 77t66.5 60.5t101.5 39.5t139.5 14v-186q-50 0 -80.5 -7.5t-47.5 -22.5t-23 -37t-6 -51v-49h-58q-39 0 -63.5 -11.5t-38.5 -33t-19.5 -51.5t-5.5 -68h-219z" />
<glyph unicode="&#xe4f;" horiz-adv-x="1495" d="M106 602q0 88 23 169t64 151t100 128t130 99t153 64t170 23q87 0 167.5 -23t150.5 -64t128 -99t99 -128t64 -151t23 -169t-23 -169t-64 -151.5t-99 -128.5t-128 -99t-150.5 -63.5t-167.5 -22.5q-88 0 -170 22.5t-153 63.5t-130 99t-100 128.5t-64 151.5t-23 169zM283 608 q0 -95 36 -179.5t98.5 -147.5t146.5 -100t182 -37q62 0 120.5 17t109 47.5t92.5 73t72 93.5t46.5 110t16.5 123t-16.5 122t-46.5 109t-72 92t-92.5 71t-109 46.5t-120.5 16.5q-98 0 -182 -35.5t-146.5 -98t-98.5 -145.5t-36 -178zM407 608q0 68 27 128t73 106t107.5 72.5 t131.5 26.5q68 0 128 -26.5t105 -72.5t71 -106t26 -128q0 -70 -26 -131t-71 -107t-105 -72t-128 -26q-70 0 -131.5 26t-107.5 72t-73 107t-27 131zM563 608q0 -38 13.5 -72t38.5 -58.5t58 -38.5t73 -14q36 0 68 14t55.5 38.5t36.5 58.5q14 34 14 72q0 37 -13.5 68.5 t-37 55.5t-55.5 38.5t-68 14.5q-40 0 -73 -14.5t-58 -38.5t-38.5 -55.5t-13.5 -68.5z" />
<glyph unicode="&#xe50;" horiz-adv-x="1312" d="M86 528q0 130 39 231t113 169.5t180 104t240 35.5q132 0 238 -35.5t179 -104t112.5 -169.5t39.5 -231q0 -148 -45 -253t-122.5 -171t-181.5 -97t-220 -31q-78 0 -151 13.5t-137 42t-116 72.5t-90 105t-58 140.5t-20 178.5zM328 516q0 -73 23 -135t66.5 -107.5t104 -71 t136.5 -25.5t136 25.5t102.5 71t65.5 107.5t23 135q0 96 -26 162t-70.5 108t-104.5 62q-58 19 -126 19q-67 0 -127.5 -19.5t-105.5 -61.5t-71 -108t-26 -162z" />
<glyph unicode="&#xe51;" horiz-adv-x="1303" d="M8 159l193 157q38 -42 80.5 -70t91 -44.5t101 -23t107.5 -6.5q85 0 157 25t124 73.5t82 120.5q30 73 30 167q0 70 -20.5 129t-61 102t-102.5 66.5t-144 23.5q-68 0 -124 -16.5t-96 -43.5t-62 -62t-22 -73q0 -34 16 -67t53 -56t97 -33t146 2v-176q-47 -12 -82.5 -15 t-67.5 -3q-84 0 -159 24t-130.5 67.5t-88 104t-32.5 134.5q0 73 22 131.5t60 103.5t90 77t113 52.5t127.5 30t133.5 9.5q80 0 154.5 -12t139 -38t117.5 -66.5t91 -97t58.5 -130.5t20.5 -166q0 -130 -43.5 -237t-125.5 -184t-199.5 -118.5t-265.5 -41.5q-68 0 -140 4.5 t-146 22.5t-148.5 54.5t-144.5 98.5z" />
<glyph unicode="&#xe52;" horiz-adv-x="1488" d="M-6 1012l38 204q68 0 125 -19.5t97 -59t62.5 -99.5t22.5 -142v-436q0 -56 27 -105t81 -85t134.5 -57t188.5 -21q101 0 173 19t119 51t69.5 74t22.5 86v292q0 31 -8 54.5t-21.5 41.5t-32.5 29t-42 17l-160 -142l-158 132q-16 -1 -31 -9.5t-27.5 -24t-20 -39t-7.5 -53.5 v-66q0 -30 1 -59.5t9 -53.5t23.5 -39.5t43.5 -15.5h91v-188h-112q-70 0 -118.5 18t-81 46.5t-50.5 65.5t-27 76t-12 76.5t-3 67.5v57q0 68 25.5 128.5t73 108.5t114.5 80t149 43l118 -101l106 101q83 -4 155.5 -30.5t125.5 -70.5t84 -102q31 -60 31 -128v-277 q0 -82 -21 -149.5t-58 -119.5t-88 -90.5t-113 -63t-132 -36.5q-68 -12 -142 -12h-118q-148 0 -264 35t-194.5 99.5t-120 156t-41.5 204.5v380q0 80 -25 115.5t-81 35.5z" />
<glyph unicode="&#xe53;" horiz-adv-x="1335" d="M94 478v80q0 124 29 214t84.5 152t136 96t181.5 45l145 -124l153 124q108 -6 187.5 -41.5t130.5 -90.5t76 -126t25 -149v-658h-242v658q0 34 -12.5 66t-33 57.5t-46.5 41.5t-52 17l-190 -153l-180 153q-24 -6 -50.5 -21.5t-48.5 -48t-36.5 -83.5t-14.5 -127v-79 q0 -50 1.5 -101t13 -92.5t36.5 -67.5t73 -26q20 0 64.5 3t97.5 13v-202q-17 -6 -46.5 -10t-62.5 -7t-65 -4t-56 1q-74 10 -125 38t-84 67t-51 88t-26.5 100t-10 102t-1.5 95z" />
<glyph unicode="&#xe54;" horiz-adv-x="1335" d="M94 460v116q0 120 40.5 209t116 147t181.5 86.5t238 28.5h202q41 0 67.5 11.5t41 33.5t20 52t5.5 65h248q0 -42 -6 -86.5t-22 -85.5t-42.5 -77t-67.5 -62.5t-99 -42t-135 -15.5h-234q-72 0 -129 -15t-98 -44.5t-63 -73t-22 -99.5v-140q0 -56 17 -104t51 -84t87 -56 t125 -20h16q-16 15 -30 34t-25 41t-17 46q-6 23 -6 49q0 16 3 42t14 54t34 56t63 51t100 37t146 14v-203q-47 0 -72.5 -8t-37.5 -18.5t-14 -23t-2 -21.5q0 -30 13 -57t33 -48t44.5 -33t47.5 -12h328v-204h-664q-98 0 -173 20.5t-130 55t-92 80.5t-59.5 97t-32 104t-9.5 103z " />
<glyph unicode="&#xe55;" horiz-adv-x="1335" d="M94 466v115q0 102 27.5 177.5t77 129.5t117.5 89t150 55q-2 6 -2.5 16t-0.5 20q0 44 17.5 84t47.5 69t70 47t86 18q50 0 91.5 -18t72 -47t47.5 -69t17 -84v-16q28 6 46 21t28.5 35t15 46t4.5 55h248q0 -44 -6 -87.5t-22 -84.5t-42.5 -76t-67.5 -61t-99 -41.5t-135 -15.5 h-221q-72 0 -131.5 -12.5t-102.5 -40.5t-67 -72q-24 -46 -24 -108v-138q0 -56 17 -104.5t51 -85t87 -57.5t125 -21h16q-16 15 -30 34t-25 41t-17 46q-6 23 -6 49q0 16 3 42t14 54t34 56t63 51t100 37t146 14v-203q-47 0 -72.5 -8t-37.5 -18.5t-14 -23t-2 -21.5q0 -30 13 -57 t33 -48t44.5 -33t47.5 -12h328v-204h-664q-98 0 -173 20.5t-130 56t-92 81.5t-59.5 98t-32 106t-9.5 104zM614 1068q0 -34 19.5 -56t50.5 -22q36 0 56.5 22t20.5 56q0 35 -20.5 55.5t-56.5 20.5q-31 0 -50.5 -20.5t-19.5 -55.5z" />
<glyph unicode="&#xe56;" horiz-adv-x="1353" d="M30 1052l191 113l118 -189q32 15 71.5 30.5t86.5 27.5t103 20t120 11q106 3 188 -15t143 -52t103 -82t68 -105.5t37.5 -121t11.5 -129.5v-74q0 -68 -16.5 -132t-49.5 -121t-82 -103.5t-114 -80t-146.5 -50.5t-178.5 -13q-108 3 -198 29t-154 72.5t-99 111.5t-35 146 q0 76 25.5 131.5t73.5 91.5t115.5 52.5t150.5 16.5h101v-185h-92q-41 0 -66.5 -9t-40.5 -25t-20.5 -37t-5.5 -45q0 -30 18.5 -56t52.5 -46t81 -32t105 -14q64 -2 123.5 17t106 57t73.5 93t27 129v70q0 78 -20.5 136t-59 96t-93.5 55.5t-125 16.5q-56 -1 -113 -10.5t-115 -30 t-119 -52t-125 -75.5z" />
<glyph unicode="&#xe57;" horiz-adv-x="1584" d="M97 474v80q0 118 29 207.5t84 153t135 100t183 47.5l112 -115l112 115q120 -14 198 -57t124 -108.5t64 -151t18 -182.5v-82l-3 -55q-2 -30 -5.5 -63t-10.5 -65t-17 -59q26 20 47 51t34 68.5t19.5 78.5t6.5 79v380q0 80 22.5 140t62.5 99t96 58q58 19 126 19l35 -204 q-28 0 -46.5 -8t-30.5 -26t-17.5 -46t-5.5 -70v-322q0 -110 -30 -203.5t-90.5 -165t-154.5 -116.5q-92 -45 -220 -59l-184 126q48 48 75.5 91t40 86t15 87t2.5 92v89q0 64 -10.5 110.5t-27.5 80t-40 53t-49 27.5l-153 -156l-159 162q-23 -6 -48.5 -24.5t-47 -53t-35.5 -84.5 t-14 -120v-77q0 -24 0.5 -53.5t4.5 -59.5t12 -59t22.5 -52t36.5 -37q21 -14 53 -14q6 0 20 1.5t31 3t37 3.5l40 4l2 -204q-16 -4 -39 -9t-50 -8t-57 -3t-56 6q-71 14 -120.5 43t-83 68t-52.5 84.5t-28.5 93t-12 95.5t-2.5 90z" />
<glyph unicode="&#xe58;" horiz-adv-x="1332" d="M100 390v186q0 109 33.5 196.5t100 148.5t165.5 93.5t229 32.5h274q40 0 66 11.5t41 33.5t21 52t6 65h244q0 -42 -6 -86.5t-21 -85.5t-42 -78t-68 -64.5t-98 -44t-133 -16.5h-304q-70 0 -120 -19t-82.5 -51t-47.5 -72q-16 -40 -16 -84v-218q0 -33 12 -64.5t31 -56.5 t44 -42.5t49 -22.5l198 156l191 -156q26 0 49.5 9.5t40.5 29.5t27 52.5t10 82.5q0 20 -3.5 41t-13 39t-28.5 32t-49 18q-9 2 -29 2h-43v186h90q70 -4 120 -19t85 -38t57 -53.5t33 -65t15 -70.5t4 -72q0 -96 -23 -170t-73 -123t-127.5 -74t-185.5 -25l-147 117l-148 -117 q-106 6 -185.5 40.5t-133.5 89t-81.5 125.5t-27.5 149z" />
<glyph unicode="&#xe59;" horiz-adv-x="1356" d="M94 472v86q0 125 20 219.5t67.5 158.5t124 96.5t190.5 32.5q20 0 45 -0.5t51 -3t52 -8t50 -15.5q20 -14 39 -30t39 -41l80 77q8 8 22 14.5t34 6.5h71q39 0 62 9.5t34.5 27.5t15 45t3.5 62h242q0 -42 -4.5 -84.5t-17 -82t-36 -73t-61 -58.5t-93.5 -39q-54 -14 -130 -14 h-18q-9 0 -20.5 -6t-23.5 -16l-22 -22l-22 -24l386 -790h-254l-344 710q-36 72 -80 110t-104 38q-33 0 -61.5 -13.5t-49.5 -47.5t-33 -90.5t-12 -143.5v-109q1 -26 3.5 -55t8.5 -57.5t16.5 -55t27 -46t39 -31t53.5 -11.5q15 0 43.5 2t59.5 6l32 -198q-16 -4 -41 -8t-53 -7 t-57 -3q-30 0 -56 2q-72 8 -124 33t-87.5 63t-56.5 84t-32 97t-14.5 103t-3.5 100z" />
<glyph unicode="&#xe5a;" horiz-adv-x="1660" d="M86 864q0 65 17 115.5t47 89.5t69.5 65t85 43t93.5 24.5t94 7.5h195v-203h-195q-80 0 -118 -36t-38 -109q0 -35 11 -70t38 -62t74 -45t119 -18q155 0 236.5 57t81.5 179v307h242v-1209h-242v563q-58 -49 -137 -73t-172 -24q-124 0 -218 28t-157 80t-94.5 126t-31.5 164z M1307 0v1209h241v-1209h-241z" />
<glyph unicode="&#xe000;" horiz-adv-x="1045" d="M0 1045h1045v-1045h-1045v1045z" />
<glyph unicode="&#xf701;" d="M-1312 1392l94 192h746v-192h-840z" />
<glyph unicode="&#xf702;" d="M-1312 1392l94 192h516v170h230v-362h-840z" />
<glyph unicode="&#xf703;" d="M-1312 1392l96 192h340v20q0 44 16.5 83t45 68t67.5 45t83 16t83 -16t68 -45t45 -68t16 -83t-16 -83t-45 -67.5t-68 -45t-83 -16.5h-648zM-740 1604q0 -15 6 -28.5t16.5 -23.5t24.5 -16t29 -6q16 0 30 6t24.5 16t16.5 23.5t6 28.5q0 16 -6 30.5t-16.5 25t-24.5 16 t-30 5.5q-15 0 -29 -5.5t-24.5 -16t-16.5 -25t-6 -30.5z" />
<glyph unicode="&#xf704;" d="M-1312 1392l96 192h198v170h219v-170h109v170h218v-362h-840z" />
<glyph unicode="&#xf705;" d="M-767 1389v371h237v-371h-237z" />
<glyph unicode="&#xf706;" d="M-1109 1574v178h292v-178q58 1 99.5 16t68 39t39 55.5t12.5 67.5h212q0 -68 -26 -132.5t-80.5 -113t-140 -78.5t-205.5 -30h-170v176h-101z" />
<glyph unicode="&#xf707;" d="M-1221 1401q-4 82 9.5 143t40 101.5t62 60t73.5 19.5q47 0 81.5 -20.5t52.5 -55.5q9 14 24.5 27.5t34 24.5t39 17.5t40.5 6.5q26 0 50 -9.5t45 -27t37 -44t24 -60.5q12 13 20 31.5t12 39.5t5 43.5t1 44.5h184q0 -62 -16.5 -119.5t-45 -102.5t-68.5 -77t-86 -43h-141 q0 24 -2.5 50.5t-8 47.5t-14 35t-20.5 14q-11 0 -19 -13t-13.5 -34.5t-8.5 -48t-3 -51.5h-135q0 24 -1.5 50.5t-6.5 47.5t-13 35t-20 14q-14 0 -23 -14t-14 -35t-6 -47t-1 -51h-169z" />
<glyph unicode="&#xf708;" d="M-1012 1542v174h169v148h221v-148h168v-174h-168v-150h-221v150h-169z" />
<glyph unicode="&#xf709;" d="M-944 1394q0 83 31 149t88 112.5t139 70.5t185 26v-183q-109 0 -167 -41.5t-58 -133.5h-218z" />
<glyph unicode="&#xf70a;" d="M-350 1389v371h235v-371h-235z" />
<glyph unicode="&#xf70b;" d="M-802 1578v180h304v-180q58 0 103.5 15t76 39t46.5 56q16 34 16 70h215q0 -70 -29.5 -135t-89.5 -115t-150 -80t-212 -30h-177v180h-103z" />
<glyph unicode="&#xf70c;" d="M-1012 1398q-6 86 10.5 149t46.5 105t70.5 62t85.5 20q49 0 87 -21q40 -21 64 -55q12 14 29 27.5t37.5 24.5t43 17.5t46.5 6.5q29 0 56 -9.5t50.5 -27.5t41.5 -45t28 -62q11 12 22.5 31t20.5 41t14 46t5 46h210q0 -60 -21.5 -119t-58 -108t-84.5 -83.5t-102 -45.5h-158 q0 22 -3 48t-9 49t-16 38t-23 15q-14 0 -24 -15t-15.5 -37t-8.5 -48t-3 -50h-156q0 24 -2.5 50t-8 48t-14.5 37t-21 15q-14 0 -24 -15.5t-16 -38.5t-8.5 -49t-2.5 -47h-189z" />
<glyph unicode="&#xf70d;" d="M-516 1545v180h174v151h224v-151h174v-180h-174v-153h-224v153h-174z" />
<glyph unicode="&#xf70e;" d="M-501 1394q0 83 30.5 149t87.5 112.5t139 70.5t185 26v-183q-109 0 -166.5 -41.5t-57.5 -133.5h-218z" />
<glyph unicode="&#xf70f;" horiz-adv-x="1908" d="M32 823q10 50 32 99.5t55 96t77.5 86t101.5 68.5t126.5 46t153.5 17q102 0 181 -20.5t138.5 -56.5t100 -85.5t66.5 -108.5t37 -124t11 -133v-289q0 -58 18 -102.5t49 -75t72 -46t85 -15.5t82 14t68 43t47.5 74.5t17.5 107.5v790h245v-811q0 -110 -39 -190t-103 -133 t-147 -79t-171 -26q-92 0 -176.5 27.5t-150 81.5t-104 134t-38.5 185v334q0 52 -14.5 103t-48.5 92t-89 66.5t-137 26.5q-66 1 -116 -13.5t-86 -39.5t-58 -57t-30 -64q45 -32 65.5 -89t20.5 -129v-430h130v-198h-372v632q0 25 -4 51.5t-15 51.5t-30.5 47.5t-50.5 40.5z" />
<glyph unicode="&#xf710;" d="M-888 1394v290h224v-104h782v-186h-1006z" />
<glyph unicode="&#xf711;" d="M-929 1602q0 48 18 89t49.5 72.5t73.5 50t89 18.5q46 0 88 -18.5t73.5 -50t50.5 -73.5q19 -40 19 -88t-19 -90t-50.5 -73t-73.5 -49t-88 -18q-48 0 -89.5 18t-73 49t-49.5 73t-18 90zM-781 1602q0 -17 6.5 -32.5t18 -26.5t26 -18t31.5 -7q16 0 31.5 7t26.5 18t18 26t7 33 q0 16 -7 31t-18 26t-26 18t-32 7q-16 0 -31 -7t-26.5 -18t-18 -26t-6.5 -31z" />
<glyph unicode="&#xf712;" d="M-1236 1669q0 74 25 126t66.5 85.5t96.5 49.5q54 16 116 16h552v-170h-534q-41 0 -65 -11t-36.5 -27t-16.5 -34.5t-4 -34.5q0 -8 3 -21.5t10 -26.5t20 -22t36 -9q36 0 53 29q16 29 14 79h157q-2 -51 14.5 -79.5t50.5 -28.5q20 0 32 8t18 22t7 34t-1 44h170 q8 -77 -5 -131.5t-40.5 -89.5t-68 -51t-86.5 -16q-30 0 -56 8t-47 22t-36 32t-23 38q-12 -20 -31 -38t-43.5 -32t-52 -22t-55.5 -8q-68 0 -114.5 24t-74 62t-39.5 84t-12 89z" />
<glyph unicode="&#xf713;" d="M-696 1890v354h224v-354h-224z" />
<glyph unicode="&#xf714;" d="M-1023 2067v180h303v-180q58 1 104.5 16t79 39t48.5 56t16 69h209q0 -70 -29.5 -134.5t-89.5 -114.5t-150 -80.5t-211 -30.5h-169v180h-111z" />
<glyph unicode="&#xf715;" d="M-1052 1887q-6 80 8 138.5t42 97.5t65 58t79 19t76 -20t59 -54q22 34 60.5 54t81.5 20q28 0 53.5 -8t46.5 -24t37 -40.5t25 -57.5q12 14 22.5 33t17.5 41.5t11 47.5q5 26 5 50h191q0 -36 -9 -75t-24.5 -76t-38 -71t-49 -61.5t-57 -46t-62.5 -25.5h-154q0 14 -1.5 36.5 t-6 43.5t-11.5 37t-20 16q-12 0 -19.5 -13.5t-11.5 -34t-5.5 -43.5t-1.5 -42h-156q0 19 -1.5 42t-5.5 43.5t-11 34t-17 13.5q-12 0 -20 -16t-12 -37t-5 -43.5t-1 -36.5h-180z" />
<glyph unicode="&#xf716;" d="M-867 2038v174h171v148h218v-148h172v-174h-172v-151h-218v151h-171z" />
<glyph unicode="&#xf717;" d="M-696 1749q0 82 30.5 147.5t88 112t139.5 71t184 26.5v-183q-108 0 -166 -41.5t-58 -132.5h-218z" />
</font>
</defs>
</svg>
