<?xml version="1.0" standalone="no"?>
<!DOCTYPE svg PUBLIC "-//W3C//DTD SVG 1.1//EN" "http://www.w3.org/Graphics/SVG/1.1/DTD/svg11.dtd" >
<svg xmlns="http://www.w3.org/2000/svg">
<metadata></metadata>
<defs>
<font id="PSLxKittithadaBold" horiz-adv-x="0" >
<font-face units-per-em="2048" ascent="1638" descent="-410" />
<missing-glyph horiz-adv-x="524" />
<glyph unicode="&#xe4f;&#x22;" />
<glyph unicode="&#xe24;&#xe32;" horiz-adv-x="1327" d="M635 -307v848q0 86 -63.5 132t-161.5 46q-150 0 -226 -94v-510h123v-115h-246v655q123 178 349 179q150 0 243 -70q104 -76 105 -207v-864h-123zM1145 -307v813q0 98 -50.5 155.5t-148.5 57.5t-186 -57v129q78 43 192 43q158 0 240 -89q76 -76 76 -206v-846h-123z" />
<glyph unicode="&#xe26;&#xe32;" horiz-adv-x="1351" d="M655 -307v848q0 86 -63.5 132t-161.5 46q-150 0 -225 -94v-625h-205v115h82v540q123 178 348 179q150 0 244 -70q104 -76 104 -207v-864h-123zM1165 -307v813q0 98 -50 155.5t-148 57.5t-187 -57v129q78 43 193 43q158 0 239 -89q76 -76 76 -206v-846h-123z" />
<glyph unicode="fi" />
<glyph unicode="fl" />
<glyph unicode=" "  horiz-adv-x="524" />
<glyph unicode="&#x09;" horiz-adv-x="524" />
<glyph unicode="&#xa0;" horiz-adv-x="524" />
<glyph unicode="!" horiz-adv-x="372" d="M225 276h-78l-30 429v376h141v-376zM281 86q0 -39 -28 -67.5t-67 -28.5t-66.5 28.5t-27.5 67.5t27.5 67.5t66.5 28.5t67 -28.5t28 -67.5z" />
<glyph unicode="&#x22;" horiz-adv-x="589" d="M451 610h-89l-22 471h135zM225 610h-84l-26 471h137z" />
<glyph unicode="#" horiz-adv-x="784" d="M610 637l-39 -221h142v-115h-162l-55 -301h-105l51 301h-170l-55 -301h-104l49 301h-139v115h161l37 221h-145v115h166l49 278h108l-49 -278h170l49 278h111l-49 -278h127v-115h-148zM330 637l-37 -221h172l37 221h-172z" />
<glyph unicode="$" horiz-adv-x="784" d="M723 313q0 -125 -74 -215t-196 -112v-146h-70v140q-123 6 -210 89t-107 210l133 30q2 -92 58 -148.5t142 -56.5q43 0 78 16.5t60.5 45.5t40 66.5t14.5 80.5q0 80 -55 131q-37 35 -125 74l-72 33q-227 104 -227 272q0 113 80 189q76 74 190 88v133h70v-131 q156 -20 239 -162l-104 -63q-63 98 -170 98q-68 0 -119 -39q-55 -45 -55 -113q0 -96 143 -153l76 -31q260 -105 260 -326z" />
<glyph unicode="%" horiz-adv-x="964" d="M502 856q0 -100 -74 -172q-72 -72 -170 -72q-96 0 -172 72q-72 72 -72 172q0 102 72 174q76 72 172 72q100 0 172 -72t72 -174zM209 -23l-64 37l613 1090l63 -35zM950 223q0 -100 -73 -172q-72 -72 -170 -71q-96 0 -172 71q-72 72 -72 172q0 102 72 174q76 72 172 72 q100 0 172 -72q71 -72 71 -174zM420 856q0 66 -48 113t-114 47t-114 -47t-48 -113t48.5 -112t113.5 -46q66 0 114 46t48 112zM868 223q0 68 -47 114t-114 46q-66 0 -113 -46t-47 -114q0 -31 12 -59.5t33.5 -50t51.5 -34.5t63 -13t62.5 13t51 34.5t34.5 50t13 59.5z" />
<glyph unicode="&#x26;" horiz-adv-x="940" d="M813 0l-113 145q-150 -168 -315 -168q-131 0 -227 91q-94 88 -95 227q0 92 56 168q35 49 127 119l67 51q-117 121 -116 233q0 111 67.5 174.5t173.5 63.5q100 0 172 -60.5t72 -164.5q0 -78 -61 -152q-37 -45 -132 -119l220 -270l120 145l84 -88l-127 -153l189 -242h-162z M557 881q0 117 -121 116q-49 0 -83 -31.5t-34 -82.5q0 -45 62 -135l37 -43l14 10q125 88 125 166zM391 535l-14 -11q-98 -70 -123 -94q-68 -68 -68 -133q0 -76 60 -139q59 -59 135 -60q102 0 240 144z" />
<glyph unicode="'" horiz-adv-x="364" d="M225 610h-84l-26 471h137z" />
<glyph unicode="(" horiz-adv-x="421" d="M410 1102q-25 -37 -54.5 -93.5t-64.5 -131.5q-88 -190 -88 -418q0 -178 49 -330q39 -129 154 -334h-127q-211 317 -211 668q0 309 213 639h129v0z" />
<glyph unicode=")" horiz-adv-x="421" d="M354 463q0 -164 -55 -342q-59 -188 -158 -326h-125q111 199 154 336q51 154 51 328q0 229 -104 452q-20 53 -105 191h131q211 -330 211 -639z" />
<glyph unicode="*" horiz-adv-x="698" d="M432 795l111 -146l-90 -71l-99 180l-100 -183l-96 72l108 148l-170 53l37 108l164 -59l-4 184h110l-2 -184l168 59l33 -108z" />
<glyph unicode="+" horiz-adv-x="798" d="M451 317v-286h-103v286h-287v103h287v287h103v-287h286v-103h-286z" />
<glyph unicode="," horiz-adv-x="319" d="M260 51q0 -129 -151 -219l-27 33q90 47 117 133q-14 -8 -45 -8q-33 0 -57.5 24.5t-24.5 57.5t25.5 59.5t62.5 26.5q45 0 72.5 -32t27.5 -75z" />
<glyph unicode="-" horiz-adv-x="456" d="M72 317v103h313v-103h-313z" />
<glyph unicode="." horiz-adv-x="319" d="M244 74q0 -35 -24.5 -59.5t-59.5 -24.5t-59.5 24.5t-24.5 59.5t24.5 59.5t59.5 24.5t59.5 -24.5t24.5 -59.5z" />
<glyph unicode="/" horiz-adv-x="745" d="M133 -180l-100 45l583 1380l97 -47z" />
<glyph unicode="0" horiz-adv-x="798" d="M764 541q0 -229 -80 -381q-98 -182 -285 -183q-186 0 -284 183q-82 152 -82 381t82 381q98 182 284 182q188 0 285 -182q80 -150 80 -381zM639 543q0 172 -49 291q-63 156 -191 155q-127 0 -190 -155q-49 -119 -49 -291q0 -168 49 -289q63 -156 190 -156t191 156 q49 121 49 289z" />
<glyph unicode="1" horiz-adv-x="798" d="M352 0v958h-205l72 123h258v-1081h-125z" />
<glyph unicode="2" horiz-adv-x="798" d="M53 0l459 580q94 119 94 194q0 84 -63 146q-61 61 -142 61q-78 0 -135 -56.5t-67 -142.5h-131q20 150 106 236t227 86q137 0 232 -94q98 -92 98 -230q0 -123 -78 -223l-344 -434h422v-123h-678z" />
<glyph unicode="3" horiz-adv-x="798" d="M721 301q0 -145 -96 -235q-94 -88 -240 -89q-127 0 -215 76q-94 80 -104 213h129q10 -78 67 -125t133 -47q43 0 80 16.5t63.5 45t42 67.5t15.5 84q0 100 -59.5 156.5t-163.5 52.5v113q207 4 207 172q0 82 -52.5 134t-130.5 52q-139 0 -174 -153h-129q43 270 307 270 q66 0 121.5 -20.5t95 -59.5t63.5 -92t24 -119q0 -158 -134 -242q150 -82 150 -270z" />
<glyph unicode="4" horiz-adv-x="798" d="M643 158v-158h-125v158h-514q86 131 245 371.5t394 596.5v-854h119v-114h-119zM518 721l-299 -449h299v449z" />
<glyph unicode="5" horiz-adv-x="798" d="M737 360q0 -170 -112 -276q-113 -106 -275 -107q-98 0 -185 49.5t-134 141.5l98 94q29 -74 94.5 -118t134.5 -44q104 0 179 78q76 76 75 184q0 106 -75 183q-74 78 -177 78q-117 0 -194 -97h-29v555h506v-123h-381v-253q66 35 139 34q147 0 242 -112q94 -109 94 -267z " />
<glyph unicode="6" horiz-adv-x="798" d="M743 332q0 -145 -102 -252q-102 -102 -244 -103q-137 0 -243 101q-106 100 -107 244q0 131 113 286l358 496l98 -64l-282 -393q66 25 104 25q127 0 215 -105q90 -102 90 -235zM618 317q0 98 -69 166q-68 68 -154 68q-84 0 -153 -70q-70 -68 -70 -155q0 -90 66 -160 q68 -68 157 -68q86 0 156 66q67 65 67 153z" />
<glyph unicode="7" horiz-adv-x="798" d="M152 -23l-99 68l541 916h-543v120h756z" />
<glyph unicode="8" horiz-adv-x="798" d="M725 301q0 -145 -96 -235q-94 -88 -232 -89q-137 0 -229 86q-98 92 -98 238q0 186 163 260q-137 94 -137 242q0 133 86 215q90 86 215 86q127 0 213 -86q86 -82 86 -215q0 -154 -137 -242q166 -74 166 -260zM575 803q0 37 -14 70.5t-38.5 59t-56.5 41t-69 15.5 t-68.5 -15.5t-55 -41t-38 -59t-14.5 -70.5q0 -66 55 -125t121 -60q66 0 121 60q57 57 57 125zM600 301q0 86 -61 143q-63 59 -142 60q-78 0 -141 -60q-61 -57 -61 -143q0 -80 61 -141t141 -62q78 0 140 62q63 61 63 141z" />
<glyph unicode="9" horiz-adv-x="798" d="M752 758q0 -129 -113 -285l-354 -496l-99 68l281 387q-61 -16 -105 -16q-129 0 -217 100t-88 232q0 145 103 251q102 104 246 105q135 0 241 -103q105 -100 105 -243zM627 758q0 90 -64 155q-63 70 -147 70q-94 0 -166 -68q-68 -63 -68 -157t70 -162q72 -66 154 -66 q49 0 90 18.5t69.5 49.5t45 73t16.5 87z" />
<glyph unicode=":" horiz-adv-x="319" d="M244 582q0 -35 -24.5 -59.5t-59.5 -24.5t-59.5 24.5t-24.5 59.5t24.5 59.5t59.5 24.5t59.5 -24.5t24.5 -59.5zM244 74q0 -35 -24.5 -59.5t-59.5 -24.5t-59.5 24.5t-24.5 59.5t24.5 59.5t59.5 24.5t59.5 -24.5t24.5 -59.5z" />
<glyph unicode=";" horiz-adv-x="319" d="M244 582q0 -35 -24.5 -59.5t-59.5 -24.5t-59.5 24.5t-24.5 59.5t24.5 59.5t59.5 24.5t59.5 -24.5t24.5 -59.5zM260 51q0 -129 -151 -219l-27 33q90 47 117 133q-14 -8 -45 -8q-33 0 -57.5 24.5t-24.5 57.5t25.5 59.5t62.5 26.5q45 0 72.5 -32t27.5 -75z" />
<glyph unicode="&#x3c;" horiz-adv-x="778" d="M33 317v101l712 297v-133l-532 -215l532 -213v-134z" />
<glyph unicode="=" horiz-adv-x="798" d="M61 440v103h676v-103h-676zM61 195v102h676v-102h-676z" />
<glyph unicode="&#x3e;" horiz-adv-x="778" d="M33 20v134l536 213l-536 215v133l712 -297v-101z" />
<glyph unicode="?" horiz-adv-x="770" d="M709 821q0 -102 -123 -229q-123 -125 -123 -203v-94h-135v115q0 88 121 208q123 121 122 205q0 59 -47 107q-51 49 -139 49q-86 0 -139 -44t-53 -122q0 -27 6 -55l-131 -37q-14 43 -15 92q0 121 97 205q96 84 239 84q145 0 236 -84q84 -80 84 -197zM496 92 q0 -43 -29 -72.5t-72 -29.5q-41 0 -70.5 29.5t-29.5 72.5t28.5 72t71.5 29t72 -29t29 -72z" />
<glyph unicode="@" horiz-adv-x="1126" d="M1085 649q0 -190 -88 -303q-100 -129 -221 -125q-57 4 -78 88q-90 -88 -194 -88q-94 0 -168 76q-72 78 -72 186q0 139 82 240q84 104 209 104q104 0 193 -98l18 86h102l-71 -369q-12 -57 -13 -79q0 -45 33 -45q51 0 103 86q51 88 51 188q0 178 -111 285 q-109 109 -276 108q-178 0 -303 -131t-125 -317q0 -193 133 -322q133 -127 319 -127q184 0 269 70l106 -86q-180 -98 -385 -99q-231 0 -395 160q-162 162 -162 404q0 238 158 401q160 162 391 162q197 0 336 -125q159 -142 159 -330zM711 532q10 86 -30 135.5t-116 49.5 q-43 0 -77.5 -18.5t-59.5 -49.5t-39 -70.5t-14 -82.5q0 -66 40 -115t103 -49q168 -1 193 200z" />
<glyph unicode="A" horiz-adv-x="956" d="M840 0l-121 270h-481l-119 -270h-142l504 1126l498 -1126h-139zM479 831l-186 -440h373z" />
<glyph unicode="B" horiz-adv-x="722" d="M686 303q0 -152 -113 -233q-94 -70 -249 -70h-244v1081h127q383 0 383 -297q0 -31 -7.5 -61.5t-19.5 -57t-28.5 -46t-34.5 -29.5v-19q76 -14 131 -94t55 -174zM469 782q0 178 -223 179h-35v-359h31q109 0 159 33q68 41 68 147zM557 311q0 184 -268 185h-78v-375h98 q248 0 248 190z" />
<glyph unicode="C" horiz-adv-x="899" d="M854 53q-131 -76 -276 -76q-225 0 -388 162q-160 164 -159 396q0 242 162 403q164 166 397 166q145 0 264 -74v-156q-121 106 -279 107q-176 0 -294 -131q-119 -127 -119 -311q0 -178 119 -310q121 -129 292 -129q150 0 281 113v-160v0z" />
<glyph unicode="D" horiz-adv-x="903" d="M883 547q0 -266 -172 -412q-160 -135 -420 -135h-211v1081h215q254 0 416 -133q172 -143 172 -401zM752 541q0 418 -496 417h-45v-835h45q223 0 348 92q148 109 148 326z" />
<glyph unicode="E" horiz-adv-x="704" d="M88 0v1081h565v-123h-432v-303h420v-123h-420v-409h432v-123h-565z" />
<glyph unicode="F" horiz-adv-x="638" d="M219 958v-305h365v-123h-365v-530h-131v1081h508v-123h-377z" />
<glyph unicode="G" horiz-adv-x="1064" d="M1044 502q0 -223 -139 -375q-137 -150 -356 -150q-215 0 -373 166q-156 168 -156 394q0 231 158 399q156 168 383 168q260 0 428 -209l-90 -90q-139 176 -332 176q-174 0 -297 -129q-121 -127 -120 -309q0 -176 118 -310q121 -133 289 -133q125 0 227 95q104 94 115 227 h-270v123h415v-43v0z" />
<glyph unicode="H" horiz-adv-x="917" d="M709 0v518h-498v-518h-131v1081h131v-436h498v436h131v-1081h-131z" />
<glyph unicode="I" horiz-adv-x="301" d="M86 0v1081h131v-1081h-131z" />
<glyph unicode="J" horiz-adv-x="481" d="M412 393q0 -416 -285 -416q-86 0 -162 50l64 112q53 -37 104 -37q98 0 131 105q16 59 17 186v688h131v-688v0z" />
<glyph unicode="K" horiz-adv-x="813" d="M670 0l-394 504l-55 -55v-449h-133v1081h133v-469l445 469h168l-469 -483l477 -598h-172z" />
<glyph unicode="L" horiz-adv-x="514" d="M88 0v1081h133v-958h318v-123h-451z" />
<glyph unicode="M" horiz-adv-x="1163" d="M1020 -16l-119 735l-317 -742l-318 740l-123 -733h-135l215 1142l359 -852l360 852l213 -1142h-135z" />
<glyph unicode="N" horiz-adv-x="1071" d="M209 803v-815h-131v1145l786 -848v794h131v-1124z" />
<glyph unicode="O" horiz-adv-x="1132" d="M1114 541q0 -238 -160 -402q-160 -162 -389 -162t-389 162q-160 164 -160 402q0 233 162 397q164 166 387 166q225 0 387 -166q162 -164 162 -397zM983 541q0 184 -119 309q-117 127 -299 127q-178 0 -299 -127q-119 -125 -119 -309t123 -312q127 -127 295 -127 q172 0 295 127q123 128 123 312z" />
<glyph unicode="P" horiz-adv-x="667" d="M664 768q0 -160 -111 -244q-96 -72 -258 -71h-74v-453h-133v1081h152q231 0 331 -82q93 -73 93 -231zM541 772q0 188 -285 189h-35v-388h41q279 0 279 199z" />
<glyph unicode="Q" horiz-adv-x="1132" d="M954 -23l-90 97q-139 -96 -299 -97q-229 0 -389 162q-160 164 -160 402q0 233 162 397q164 166 387 166q225 0 387 -166q162 -164 162 -397t-164 -398l166 -166h-162zM983 541q0 184 -119 309q-117 127 -299 127q-178 0 -299 -127q-119 -125 -119 -309t123 -312 q127 -127 295 -127q106 0 209 64l-239 242h159l168 -170q121 121 121 303z" />
<glyph unicode="R" horiz-adv-x="735" d="M584 0l-310 457h-53v-457h-133v1081h160q188 0 276 -51q139 -84 140 -258q0 -113 -67 -196.5t-183 -104.5l329 -471h-159zM541 766q0 195 -285 195h-35v-392h41q279 0 279 197z" />
<glyph unicode="S" horiz-adv-x="727" d="M692 313q0 -145 -96 -241q-94 -94 -240 -95q-61 0 -115.5 21.5t-96.5 61.5t-70.5 95.5t-38.5 123.5l133 30q2 -92 58.5 -149.5t142.5 -57.5q43 0 77.5 16.5t60 46.5t40 67.5t14.5 80.5q0 80 -55 131q-37 35 -125 74l-72 33q-111 51 -157 100q-70 70 -70 174q0 125 94 205 q90 74 215 74q176 0 271 -162l-105 -63q-63 98 -170 98q-68 0 -121 -42t-53 -110q0 -98 143 -155l76 -31q260 -105 260 -326z" />
<glyph unicode="T" horiz-adv-x="612" d="M371 958v-958h-129v958h-250v123h629v-123h-250z" />
<glyph unicode="U" horiz-adv-x="909" d="M840 397q0 -180 -105 -301q-104 -119 -280 -119t-281 119q-102 121 -102 301v684h131v-639q0 -340 252 -340q254 0 254 340v639h131v-684v0z" />
<glyph unicode="V" horiz-adv-x="870" d="M438 -57l-458 1138h143l315 -798l310 798h143z" />
<glyph unicode="W" horiz-adv-x="1406" d="M1001 -43l-296 795l-293 -795l-439 1122h142l297 -770l293 795l296 -795l293 770h142z" />
<glyph unicode="X" horiz-adv-x="778" d="M641 0l-248 442l-258 -442h-145l332 567l-291 514h147l217 -395l228 395h147l-301 -516l317 -565h-145z" />
<glyph unicode="Y" horiz-adv-x="776" d="M455 473v-473h-131l-2 473l-340 608h149l260 -463l254 463h152z" />
<glyph unicode="Z" horiz-adv-x="745" d="M2 0l533 958h-457v123h670l-533 -958h533v-123h-746z" />
<glyph unicode="[" horiz-adv-x="458" d="M82 -229v1372h293v-125h-168v-1122h168v-125h-293z" />
<glyph unicode="\" horiz-adv-x="745" d="M594 0l-561 1245h117l561 -1245h-117z" />
<glyph unicode="]" horiz-adv-x="458" d="M82 -229v125h170v1122h-170v125h293v-1372h-293z" />
<glyph unicode="^" horiz-adv-x="784" d="M618 442l-225 521l-229 -521h-129l278 639h156l279 -639h-130z" />
<glyph unicode="_" horiz-adv-x="778" d="M0 -205v103h778v-103h-778z" />
<glyph unicode="`" horiz-adv-x="479" d="M326 776l-230 211l115 66l174 -238z" />
<glyph unicode="a" horiz-adv-x="751" d="M561 0v109q-98 -131 -223 -132q-141 0 -232 109q-82 100 -81 254q0 141 86 246q86 104 223 104q129 0 227 -135v117h125v-672h-125zM567 336q0 100 -56 169.5t-155 69.5q-45 0 -82.5 -19t-65.5 -51t-42 -76t-14 -93t14 -94t39.5 -78t63.5 -52.5t87 -19.5q98 0 154.5 70 t56.5 174z" />
<glyph unicode="b" horiz-adv-x="751" d="M727 340q0 -152 -80 -254q-86 -109 -231 -109q-127 0 -226 132v-109h-124v1245h124v-688q102 133 230 133q137 0 225 -106q82 -101 82 -244zM602 336q0 100 -56.5 169.5t-154.5 69.5q-47 0 -85 -19t-65.5 -51t-42 -76t-14.5 -93t14.5 -94t41 -78t64.5 -52.5t87 -19.5 q98 0 154.5 70t56.5 174z" />
<glyph unicode="c" horiz-adv-x="593" d="M553 20q-86 -43 -178 -43q-147 0 -248 101q-102 102 -102 252q0 154 102 256q104 104 254 104q94 0 172 -41v-172q-82 94 -186 94q-88 0 -154 -71q-61 -70 -61 -164q0 -104 63.5 -171t161.5 -67q92 0 176 90v-168v0z" />
<glyph unicode="d" horiz-adv-x="751" d="M561 0v109q-98 -131 -223 -132q-145 0 -232 109q-82 100 -81 254q0 141 86 246q86 104 221 104q127 0 229 -133v688h125v-1245h-125zM567 336q0 100 -56 169.5t-155 69.5q-45 0 -82.5 -19t-65.5 -51t-42 -76t-14 -93t14 -94t39.5 -78t63.5 -52.5t87 -19.5q98 0 154.5 70 t56.5 174z" />
<glyph unicode="e" horiz-adv-x="659" d="M649 162q-100 -184 -303 -185q-145 0 -233 101q-88 100 -88 252q0 162 82.5 261t236.5 99q150 0 229 -104q74 -94 74 -252v-21h-495q4 -94 57 -157.5t139 -63.5q115 0 197 129l104 -59v0zM522 412q-37 168 -178 168q-150 0 -186 -168h364v0z" />
<glyph unicode="f" horiz-adv-x="360" d="M225 551v-551h-125v551h-57v121h57v325q0 264 211 265q33 0 88 -17v-129q-45 25 -84 25q-90 0 -90 -183v-286h174v-121h-174z" />
<glyph unicode="g" horiz-adv-x="749" d="M684 12q0 -190 -63 -284q-76 -113 -254 -113q-135 0 -221.5 81t-92.5 224h125q2 -92 55.5 -141t139.5 -49q186 0 186 247v129q-100 -129 -223 -129q-145 0 -232 109q-82 100 -81 254q0 141 86 246q86 104 221 104q127 0 229 -133v115h125v-660v0zM565 336 q0 100 -56 169.5t-155 69.5q-45 0 -83 -19t-65.5 -51t-41.5 -76t-14 -93q0 -98 53 -170q57 -76 151 -76q98 0 158 72q53 70 53 174z" />
<glyph unicode="h" horiz-adv-x="706" d="M506 0v385q0 94 -23 135q-31 55 -121 55q-109 0 -141 -88q-20 -49 -20 -182v-305h-125v1245h125v-670q78 115 198 115q231 0 232 -291v-399h-125z" />
<glyph unicode="i" horiz-adv-x="333" d="M252 977q0 -35 -24.5 -60.5t-61.5 -25.5q-35 0 -60.5 25.5t-25.5 60.5q0 39 25.5 64.5t60.5 25.5q37 0 61.5 -25.5t24.5 -64.5zM102 0v672h125v-672h-125z" />
<glyph unicode="j" horiz-adv-x="333" d="M252 977q0 -35 -24.5 -60.5t-61.5 -25.5q-35 0 -60.5 25.5t-25.5 60.5q0 39 25.5 64.5t60.5 25.5q37 0 61.5 -25.5t24.5 -64.5zM102 -385v1057h125v-1057h-125z" />
<glyph unicode="k" horiz-adv-x="620" d="M485 0l-231 305l-43 -45v-260h-125v1245h125v-829l244 256h163l-276 -279l305 -393h-162z" />
<glyph unicode="l" horiz-adv-x="286" d="M82 0v1245h125v-1245h-125z" />
<glyph unicode="m" horiz-adv-x="1046" d="M850 0v381q0 195 -121 194q-143 0 -143 -245v-330h-125v356q0 219 -119 219q-145 0 -145 -245v-330h-125v672h125v-90q80 109 174 108q119 0 188 -119q76 119 201 119q215 0 215 -289v-401h-125z" />
<glyph unicode="n" horiz-adv-x="706" d="M506 0v385q0 94 -23 135q-31 55 -121 55q-109 0 -141 -88q-20 -49 -20 -180v-307h-125v672h125v-94q74 113 198 112q231 0 232 -291v-399h-125z" />
<glyph unicode="o" horiz-adv-x="731" d="M713 334q0 -154 -101 -254q-102 -102 -247 -103q-143 0 -246 103q-100 100 -101 254q0 154 101 254q102 102 246 102q145 0 247 -102q101 -100 101 -254zM588 334q0 94 -66 164q-63 70 -157 69q-94 0 -158 -69q-63 -66 -64 -164q0 -96 64 -166q66 -68 158 -68 q94 0 157 68q66 72 66 166z" />
<glyph unicode="p" horiz-adv-x="751" d="M727 340q0 -152 -80 -254q-86 -109 -231 -109q-129 0 -226 134v-496h-124v1057h124v-117q98 135 230 135q137 0 225 -106q82 -101 82 -244zM602 336q0 100 -56.5 169.5t-154.5 69.5q-47 0 -85 -19t-65.5 -51t-42 -76t-14.5 -93q0 -98 54 -170q57 -76 153 -76 q98 0 154.5 70t56.5 176z" />
<glyph unicode="q" horiz-adv-x="751" d="M561 -385v496q-96 -133 -223 -134q-145 0 -232 109q-82 100 -81 254q0 141 86 246q86 104 221 104q131 0 229 -135v117h125v-1057h-125zM567 336q0 100 -56 169.5t-155 69.5q-45 0 -82.5 -19t-65.5 -51t-42 -76t-14 -93q0 -98 53 -170q55 -76 151 -76q98 0 154.5 70 t56.5 176z" />
<glyph unicode="r" horiz-adv-x="468" d="M436 541q-29 27 -76 26q-150 0 -149 -237v-330h-125v672h125v-90q2 4 3 8t5 10q47 90 172 90q53 0 103 -31z" />
<glyph unicode="s" horiz-adv-x="514" d="M487 199q0 -47 -17 -87t-48 -70t-71 -47.5t-87 -17.5q-164 0 -225 150l106 51q47 -86 119 -86q41 0 69.5 26.5t28.5 67.5q0 47 -49 74l-118 68q-66 37 -91 65q-35 41 -34 103q0 41 15 76.5t41 61t60.5 41t73.5 15.5q121 0 178 -117l-98 -53q-39 55 -86 55 q-27 0 -47.5 -19t-20.5 -46q0 -39 47 -70l34 -17t71 -34q149 -69 149 -190z" />
<glyph unicode="t" horiz-adv-x="313" d="M219 551v-551h-127v551h-67v121h67v256h127v-256h123v-121h-123z" />
<glyph unicode="u" horiz-adv-x="690" d="M621 285q0 -307 -275 -308q-274 0 -274 308v387h125v-373q0 -201 149 -201q150 0 150 201v373h125v-387v0z" />
<glyph unicode="v" horiz-adv-x="598" d="M297 -23l-328 695h144l184 -416l188 416h144z" />
<glyph unicode="w" horiz-adv-x="978" d="M684 -23l-195 451l-192 -451l-330 693h142l190 -422l193 461l190 -461l188 422h142z" />
<glyph unicode="x" horiz-adv-x="659" d="M545 0l-215 272l-209 -272h-150l291 365l-235 307h147l156 -217l166 217h153l-239 -305l278 -367h-143z" />
<glyph unicode="y" horiz-adv-x="653" d="M158 -385h-144l258 502l-301 555h146l221 -422l203 422h141z" />
<glyph unicode="z" horiz-adv-x="667" d="M233 121h426v-121h-665l440 551h-366v121h608z" />
<glyph unicode="{" horiz-adv-x="444" d="M301 -262q-82 0 -115 51q-27 45 -26 139v260q0 164 -103 218v104q102 49 103 215v260q0 94 29.5 142.5t111.5 48.5h86v-121h-55q-45 0 -45 -88v-265q0 -162 -105 -245q104 -82 105 -246v-266q0 -86 45 -86h55v-121h-86z" />
<glyph unicode="|" horiz-adv-x="772" d="M326 0v1245h120v-1245h-120z" />
<glyph unicode="}" horiz-adv-x="444" d="M387 406q-102 -53 -102 -218v-260q0 -94 -27 -139q-33 -51 -115 -51h-86v121h56q45 0 45 86v266q0 164 104 246q-104 84 -104 245v265q0 88 -45 88h-56v121h86q82 0 115 -52q27 -45 27 -139v-260q0 -166 102 -215v-104v0z" />
<glyph unicode="~" horiz-adv-x="784" d="M748 406q-98 -174 -211 -175q-57 0 -160 74q-100 74 -125 74q-57 0 -127 -119l-88 64q117 178 211 178q76 0 170 -74q96 -72 117 -72q57 0 120 125l93 -75v0z" />
<glyph unicode="&#xa1;" />
<glyph unicode="&#xa2;" />
<glyph unicode="&#xa3;" />
<glyph unicode="&#xa4;" />
<glyph unicode="&#xa5;" />
<glyph unicode="&#xa6;" />
<glyph unicode="&#xa7;" />
<glyph unicode="&#xa8;" />
<glyph unicode="&#xa9;" horiz-adv-x="1146" d="M1139 541q0 -229 -166 -394q-162 -160 -400 -159q-236 0 -401 159q-164 164 -164 394q0 231 164 391q164 162 401 162q238 0 400 -162q166 -160 166 -391zM1047 541q0 195 -140 327q-137 135 -334 136q-195 0 -333 -136q-139 -133 -140 -327q0 -195 140 -330 q139 -133 333 -133q195 0 334 133q140 135 140 330zM825 303q-106 -94 -233 -94q-139 0 -232 94q-90 96 -90 234q0 137 92 231q94 94 232 94q121 0 221 -82l4 -123q-119 117 -227 117q-96 0 -164 -72q-66 -72 -66 -165q0 -96 66 -168q68 -72 162 -72q115 0 239 135z" />
<glyph unicode="&#xaa;" />
<glyph unicode="&#xab;" horiz-adv-x="706" d="M555 127l-258 330l258 346l74 -62l-207 -284l209 -273zM287 127l-256 330l254 344l77 -58l-206 -286l209 -275z" />
<glyph unicode="&#xac;" />
<glyph unicode="&#xad;" horiz-adv-x="456" d="M72 317v103h313v-103h-313z" />
<glyph unicode="&#xae;" horiz-adv-x="1146" d="M1139 541q0 -229 -166 -394q-162 -160 -400 -159q-236 0 -401 159q-164 164 -164 394q0 231 164 391q164 162 401 162q238 0 400 -162q166 -160 166 -391zM1047 541q0 195 -140 327q-137 135 -334 136q-195 0 -333 -136q-139 -133 -140 -327q0 -195 140 -330 q139 -133 333 -133q195 0 334 133q140 135 140 330zM840 684q0 -156 -166 -172l157 -287h-104l-162 287h-119v-287h-90v621h267q217 0 217 -162zM748 674q0 84 -144 84h-158v-156h99q106 0 133 6q70 13 70 66z" />
<glyph unicode="&#xaf;" />
<glyph unicode="&#xb0;" />
<glyph unicode="&#xb1;" />
<glyph unicode="&#xb2;" />
<glyph unicode="&#xb3;" />
<glyph unicode="&#xb4;" />
<glyph unicode="&#xb5;" />
<glyph unicode="&#xb6;" />
<glyph unicode="&#xb7;" />
<glyph unicode="&#xb8;" />
<glyph unicode="&#xb9;" />
<glyph unicode="&#xba;" />
<glyph unicode="&#xbb;" horiz-adv-x="706" d="M422 127l-78 55l211 275l-209 284l76 62l256 -346zM156 127l-78 55l209 275l-207 284l76 62l256 -346z" />
<glyph unicode="&#xbc;" />
<glyph unicode="&#xbd;" />
<glyph unicode="&#xbe;" />
<glyph unicode="&#xbf;" />
<glyph unicode="&#xc0;" />
<glyph unicode="&#xc1;" />
<glyph unicode="&#xc2;" />
<glyph unicode="&#xc3;" />
<glyph unicode="&#xc4;" />
<glyph unicode="&#xc5;" />
<glyph unicode="&#xc6;" />
<glyph unicode="&#xc7;" />
<glyph unicode="&#xc8;" />
<glyph unicode="&#xc9;" />
<glyph unicode="&#xca;" />
<glyph unicode="&#xcb;" />
<glyph unicode="&#xcc;" />
<glyph unicode="&#xcd;" />
<glyph unicode="&#xce;" />
<glyph unicode="&#xcf;" />
<glyph unicode="&#xd0;" />
<glyph unicode="&#xd1;" />
<glyph unicode="&#xd2;" />
<glyph unicode="&#xd3;" />
<glyph unicode="&#xd4;" />
<glyph unicode="&#xd5;" />
<glyph unicode="&#xd6;" />
<glyph unicode="&#xd7;" horiz-adv-x="798" d="M616 80l-217 217l-217 -217l-71 72l217 217l-217 217l71 71l217 -217l217 217l72 -71l-217 -217l217 -217z" />
<glyph unicode="&#xd8;" />
<glyph unicode="&#xd9;" />
<glyph unicode="&#xda;" />
<glyph unicode="&#xdb;" />
<glyph unicode="&#xdc;" />
<glyph unicode="&#xdd;" />
<glyph unicode="&#xde;" />
<glyph unicode="&#xdf;" />
<glyph unicode="&#xe0;" />
<glyph unicode="&#xe1;" />
<glyph unicode="&#xe2;" />
<glyph unicode="&#xe3;" />
<glyph unicode="&#xe4;" />
<glyph unicode="&#xe5;" />
<glyph unicode="&#xe6;" />
<glyph unicode="&#xe7;" />
<glyph unicode="&#xe8;" />
<glyph unicode="&#xe9;" />
<glyph unicode="&#xea;" />
<glyph unicode="&#xeb;" />
<glyph unicode="&#xec;" />
<glyph unicode="&#xed;" />
<glyph unicode="&#xee;" />
<glyph unicode="&#xef;" />
<glyph unicode="&#xf0;" />
<glyph unicode="&#xf1;" />
<glyph unicode="&#xf2;" />
<glyph unicode="&#xf3;" />
<glyph unicode="&#xf4;" />
<glyph unicode="&#xf5;" />
<glyph unicode="&#xf6;" />
<glyph unicode="&#xf7;" horiz-adv-x="798" d="M485 629q0 -35 -25.5 -60.5t-60.5 -25.5t-60.5 25.5t-25.5 60.5t26 60.5t60 25.5q35 0 60.5 -25.5t25.5 -60.5zM61 317v103h676v-103h-676zM485 109q0 -35 -25.5 -60.5t-60.5 -25.5t-60.5 25.5t-25.5 60.5t26 60.5t60 25.5q35 0 60.5 -25.5t25.5 -60.5z" />
<glyph unicode="&#xf8;" />
<glyph unicode="&#xf9;" />
<glyph unicode="&#xfa;" />
<glyph unicode="&#xfb;" />
<glyph unicode="&#xfc;" />
<glyph unicode="&#xfd;" />
<glyph unicode="&#xfe;" />
<glyph unicode="&#xff;" />
<glyph unicode="&#x131;" />
<glyph unicode="&#x141;" />
<glyph unicode="&#x142;" />
<glyph unicode="&#x152;" />
<glyph unicode="&#x153;" />
<glyph unicode="&#x160;" />
<glyph unicode="&#x161;" />
<glyph unicode="&#x178;" />
<glyph unicode="&#x17d;" />
<glyph unicode="&#x17e;" />
<glyph unicode="&#x192;" />
<glyph unicode="&#x2c6;" />
<glyph unicode="&#x2c7;" />
<glyph unicode="&#x2d8;" />
<glyph unicode="&#x2d9;" />
<glyph unicode="&#x2da;" horiz-adv-x="579" d="M395 0v506q0 98 -50 155.5t-148 57.5t-187 -57v129q78 43 193 43q158 0 239 -89q76 -76 76 -206v-539h-123zM418 831q0 -45 -34 -75.5t-83 -30.5t-83 30.5t-34 75.5t34 76t83 31t83 -31t34 -76zM348 831q0 43 -47 43t-47 -43t47 -43t47 43z" />
<glyph unicode="&#x2db;" />
<glyph unicode="&#x2dc;" />
<glyph unicode="&#x2dd;" />
<glyph unicode="&#xe00;" />
<glyph unicode="&#xe01;" horiz-adv-x="819" d="M635 0v541q0 86 -63.5 132t-161.5 46q-150 0 -226 -94v-625h-123v655q123 178 349 179q150 0 243 -70q104 -76 105 -207v-557h-123z" />
<glyph unicode="&#xe02;" horiz-adv-x="757" d="M696 276q0 -125 -90 -208q-88 -82 -225 -82q-143 0 -244 96q-96 96 -96 242q0 195 180 307l-102 137l100 63l158 -200q-213 -158 -213 -307q0 -98 59.5 -162t157.5 -64q86 0 139 51.5t53 126.5v543h123v-543v0z" />
<glyph unicode="&#xe03;" horiz-adv-x="757" d="M696 276q0 -125 -90 -208q-88 -82 -225 -82q-147 0 -244 92q-96 96 -96 239q0 180 199 299v52l-62 -54q-10 12 -22.5 24.5t-22.5 23.5q-57 51 -119 83l72 84q59 -25 104 -73l68 63h104v-248q-199 -94 -198 -254q0 -98 59.5 -158.5t157.5 -60.5q86 0 139 51.5t53 126.5 v543h123v-543v0z" />
<glyph unicode="&#xe04;" horiz-adv-x="819" d="M635 0v553q0 76 -66.5 121t-158.5 45q-90 0 -156 -43q-70 -45 -70 -123v-80h258v-115h-258v-358h-123v553q0 121 107 203q102 78 242 78q143 0 243 -80q104 -80 105 -201v-553h-123z" />
<glyph unicode="&#xe05;" horiz-adv-x="860" d="M676 0v567q0 53 -27.5 96.5t-73.5 55.5l-145 -144l-145 144q-45 -12 -73 -55t-28 -97v-94h279v-115h-279v-358h-123v567q0 55 19.5 103.5t54.5 85.5t85 57.5t112 20.5l98 -95l98 95q125 0 201 -80q70 -76 70 -187v-567h-123z" />
<glyph unicode="&#xe06;" horiz-adv-x="829" d="M768 262q0 -61 -24.5 -112.5t-68.5 -87t-103.5 -56t-131.5 -20.5q-137 0 -245 77v-63h-123v463q0 49 63 98q66 49 66 82v25l-70 -54q-10 10 -20.5 22.5t-20.5 22.5q-55 55 -115 89l80 81q55 -27 90 -69l76 59h103v-188q0 -45 -66 -99q-63 -51 -63 -94v-157q0 -76 79 -131 q72 -51 166 -52q88 0 146.5 45t58.5 119v557h123v-557v0z" />
<glyph unicode="&#xe07;" horiz-adv-x="774" d="M743 418q0 -199 -123.5 -309.5t-340.5 -110.5q-23 0 -45.5 1t-45.5 3l-188 660l121 36l168 -589q150 -4 241 78.5t91 230.5q0 301 -330 301h-27.5t-27.5 -2v112q18 2 35.5 2h33.5q219 0 332 -112q106 -106 106 -301z" />
<glyph unicode="&#xe08;" horiz-adv-x="802" d="M772 426q0 -201 -137 -320q-147 -127 -379 -112l-98 409h-90v115h188l98 -412q66 4 120 30t93 69t60.5 99t21.5 122q0 129 -77.5 211t-206.5 82q-160 0 -285 -125l-100 76q168 164 389 164q184 0 293 -115q110 -113 110 -293z" />
<glyph unicode="&#xe09;" horiz-adv-x="808" d="M625 0v82q-94 -94 -248 -94q-68 0 -124 20.5t-96 57t-62.5 88t-22.5 112.5v86h-62v115h185v-201q0 -76 54 -121t134 -45q86 0 164 54q78 53 78 129v262q0 39 -18.5 70.5t-49.5 55t-72 36t-86 12.5q-80 0 -149 -35q-76 -39 -98 -113h-123q29 121 139 195q102 66 231 65 q141 0 244 -77q104 -82 105 -209v-545h-123z" />
<glyph unicode="&#xe0a;" horiz-adv-x="755" d="M725 324q0 -150 -100 -238q-109 -96 -293 -98q-141 -2 -271 47v784h123v-700q37 -10 74 -16.5t76 -4.5q123 4 195.5 65.5t72.5 160.5q0 223 -315 274l270 231l100 -55l-149 -135q217 -94 217 -315z" />
<glyph unicode="&#xe0b;" horiz-adv-x="786" d="M756 324q0 -150 -101 -238q-109 -96 -293 -98q-141 -2 -270 47v440q0 47 53 94q55 49 56 82v21l-70 -54q-8 10 -17.5 20.5t-19.5 20.5q-47 47 -117 89l78 81q66 -39 90 -69l76 59h103v-176q0 -41 -56 -94q-53 -53 -53 -86v-344q37 -10 74 -16.5t76 -4.5q125 4 196.5 62.5 t71.5 163.5q0 223 -305 276l260 229l100 -55l-149 -135q217 -94 217 -315z" />
<glyph unicode="&#xe0c;" horiz-adv-x="1351" d="M1290 266q0 -125 -81 -202.5t-216 -77.5q-133 0 -235 96v-82h-123v539q0 86 -63.5 133t-161.5 47q-147 0 -226 -96v-510h123v-113h-246v655q123 178 349 179q150 0 243 -70q104 -76 105 -207v-274q0 -78 69 -129q72 -53 156 -54q86 0 135 45t49 121v553h123v-553v0z" />
<glyph unicode="&#xe0d;" horiz-adv-x="1351" d="M1290 266q0 -123 -100 -203q-100 -78 -242 -77q-203 0 -323 141l88 78q96 -104 239 -105q90 0 148 43q49 39 59 105q-25 -25 -84 -47.5t-117 -22.5q-143 0 -233 69.5t-90 192.5v99q0 86 -63.5 133t-161.5 47q-147 0 -226 -96v-510h123v-113h-246v655q123 178 349 179 q150 0 243 -70q104 -76 105 -207v-117q0 -72 61 -112q53 -35 139 -35t147.5 47t61.5 123v356h123v-553v0z" />
<glyph unicode="&#xe0e;" horiz-adv-x="839" d="M655 -328l-174 129l-174 -129h-307v117h281l202 141l172 -120v725q0 88 -63.5 135t-161.5 47q-147 0 -225 -96v-621h-205v117h82v536q123 180 348 181q147 0 244 -72q104 -76 104 -211v-879h-123z" />
<glyph unicode="&#xe0f;" horiz-adv-x="839" d="M655 -328l-106 101l-115 -111l-112 113l-111 -103h-211v115h174l150 131l110 -115l113 115l108 -98v719q0 86 -63.5 133t-161.5 47q-147 0 -225 -96v-623h-205v115h82v540q123 178 348 179q147 0 244 -72q104 -76 104 -207v-883h-123z" />
<glyph unicode="&#xe10;" horiz-adv-x="792" d="M762 418q0 -199 -137 -318q-147 -127 -379 -112l-101 420h-88v104h189l98 -412q129 8 213 99q82 88 82 219q0 66 -20.5 119t-58.5 92t-90 60.5t-116 21.5q-160 0 -284 -125l-101 76q168 164 389 163q102 0 183 -37l92 103l102 -68l-92 -102q119 -113 119 -303zM641 -328 l-100 99l-115 -109l-113 111l-108 -101h-205v115h170l145 125l111 -109l113 109l102 -90v100l-31 41h154v-291h-123z" />
<glyph unicode="&#xe11;" horiz-adv-x="839" d="M655 0v594q0 94 -71 117l-391 -711h-111v467q0 55 63 104q66 49 66 80v21l-70 -49q-29 35 -155 125l80 81q27 -14 48 -30.5t42 -36.5l75 57h103v-180q0 -41 -66 -94q-63 -51 -63 -96v-187l313 563q123 0 191.5 -64.5t68.5 -168.5v-592h-123z" />
<glyph unicode="&#xe12;" horiz-adv-x="1396" d="M1335 266q0 -125 -80.5 -202.5t-216.5 -77.5q-133 0 -235 96v-82h-123v559q0 123 -88 154l-139 -138l-146 134q-55 -33 -98 -111q-51 -92 -55 -203q-4 -127 41 -200q53 -90 151 -91q76 0 121 62l90 -74q-66 -102 -209 -102q-154 0 -236.5 109.5t-80.5 295.5q4 170 96 293 q96 127 219 146l105 -101l94 92q119 0 188.5 -74.5t69.5 -191.5v-276q0 -78 69 -129q72 -53 156 -54q86 0 135 45t49 121v553h123v-553v0z" />
<glyph unicode="&#xe13;" horiz-adv-x="1351" d="M1167 0v82q-102 -96 -235 -96q-135 0 -216 77.5t-81 202.5v273q0 86 -63.5 133t-161.5 47q-147 0 -226 -96v-510h123v-113h-246v655q123 178 349 179q150 0 243 -70q104 -76 105 -207v-291q0 -76 49 -121t135 -45q84 0 156 54q70 51 69 129v536h123v-819h-123z" />
<glyph unicode="&#xe14;" horiz-adv-x="823" d="M639 0v618q-57 100 -193 101q-129 0 -213 -105q-76 -94 -79 -225q-4 -121 45 -196q51 -88 147 -89q68 0 117 58l86 -76q-80 -96 -203 -96q-154 0 -235.5 107.5t-79.5 291.5q2 178 116 311q117 133 289 134q229 0 326 -177v-657h-123z" />
<glyph unicode="&#xe15;" horiz-adv-x="864" d="M680 0v559q0 123 -88 154l-139 -138l-146 134q-55 -33 -98 -111q-51 -92 -55 -203q-4 -127 41 -200q53 -90 151 -91q76 0 121 62l90 -74q-66 -102 -209 -102q-154 0 -236.5 109.5t-80.5 295.5q4 170 96 293q96 127 219 146l105 -101l94 92q119 0 188.5 -74.5t69.5 -191.5 v-559h-123z" />
<glyph unicode="&#xe16;" horiz-adv-x="819" d="M635 0v541q0 86 -63.5 132t-161.5 46q-150 0 -226 -94v-510h123v-115h-246v655q123 178 349 179q150 0 243 -70q104 -76 105 -207v-557h-123z" />
<glyph unicode="&#xe17;" horiz-adv-x="819" d="M635 0v535q0 86 -54.5 135t-146.5 49q-88 0 -170 -53q-80 -51 -80 -129v-537h-123v819h123v-84q109 98 254 99q70 0 128.5 -20.5t101.5 -57.5t66.5 -89.5t23.5 -117.5v-549h-123z" />
<glyph unicode="&#xe18;" horiz-adv-x="753" d="M725 258q0 -127 -115 -201q-104 -68 -266 -67q-145 0 -293 45v364l123 39v-315q84 -23 166 -23q106 0 176 37q84 41 84 121q0 135 -229 172q-168 27 -230 53q-104 47 -104 138q0 90 104 151q100 59 224 59q61 0 119.5 -16t106.5 -47t82 -75t46 -99h-133q-25 57 -90.5 90 t-139.5 33q-68 0 -131 -29q-59 -29 -59 -61q0 -49 227 -84q332 -52 332 -285z" />
<glyph unicode="&#xe19;" horiz-adv-x="819" d="M635 0v84q-106 -98 -254 -98q-141 0 -230.5 77.5t-89.5 206.5v549h123v-534q0 -86 54.5 -135.5t146.5 -49.5q88 0 170 54q80 53 80 129v536h123v-819h-123z" />
<glyph unicode="&#xe1a;" horiz-adv-x="819" d="M758 266q0 -121 -105 -200q-100 -80 -243 -80q-141 0 -246 80q-102 80 -103 200v553h123v-553q0 -78 70 -123q66 -43 156 -43q92 0 158.5 45t66.5 121v553h123v-553v0z" />
<glyph unicode="&#xe1b;" horiz-adv-x="819" d="M758 266q0 -121 -105 -200q-100 -80 -243 -80q-141 0 -246 80q-102 80 -103 200v553h123v-553q0 -78 70 -123q66 -43 156 -43q92 0 158.5 45t66.5 121v819h123v-819v0z" />
<glyph unicode="&#xe1c;" horiz-adv-x="1058" d="M840 0h-99l-213 618l-213 -618h-96l-219 819h270v-114h-114l123 -459l196 573h109l196 -573l154 573h125z" />
<glyph unicode="&#xe1d;" horiz-adv-x="1058" d="M840 0h-99l-213 618l-213 -618h-96l-219 819h270v-114h-114l123 -459l196 573h109l196 -573l226 839h124z" />
<glyph unicode="&#xe1e;" horiz-adv-x="1058" d="M840 0h-99l-213 618l-213 -618h-96l-219 819h125l154 -573l196 573h109l196 -573l154 573h125z" />
<glyph unicode="&#xe1f;" horiz-adv-x="1058" d="M840 0h-99l-213 618l-213 -618h-96l-219 819h125l154 -573l196 573h109l196 -573l226 839h124z" />
<glyph unicode="&#xe20;" horiz-adv-x="839" d="M655 0v541q0 86 -63.5 132t-161.5 46q-150 0 -225 -94v-625h-205v115h82v540q123 178 348 179q150 0 244 -70q104 -76 104 -207v-557h-123z" />
<glyph unicode="&#xe21;" horiz-adv-x="819" d="M758 270q0 -129 -89 -206.5t-231 -77.5q-145 0 -254 98v-84h-123v819h123v-536q0 -76 80 -129q82 -53 170 -54q92 0 146.5 49.5t54.5 135.5v534h123v-549v0z" />
<glyph unicode="&#xe22;" horiz-adv-x="817" d="M756 123q-119 -135 -344 -135q-184 0 -285 82q-96 78 -96 194q0 72 49 133q41 53 96 78q-51 16 -89 59.5t-38 96.5q0 43 19.5 80t55.5 62.5t83 40.5t102 15q66 0 133 -22v-113q-47 10 -80.5 15.5t-50.5 5.5q-135 0 -135 -84q0 -90 160 -90h106v-115h-88 q-37 0 -71.5 -12.5t-62 -34t-45 -50t-17.5 -63.5q0 -76 68.5 -120t185.5 -44q121 0 221 68v649h123v-696v0z" />
<glyph unicode="&#xe23;" horiz-adv-x="772" d="M735 260q0 -129 -106 -205q-100 -72 -246 -71q-150 0 -244 75q-109 84 -108 230h123q0 -94 73 -148q61 -43 160 -43q45 0 86 10.5t71.5 31t49 48t18.5 62.5q0 104 -225 127q-154 14 -231 49q-106 49 -107 154q0 106 98 176q98 74 230 73q137 0 234.5 -62t115.5 -173h-129 q-43 121 -221 121q-39 0 -76 -10.5t-64.5 -26.5t-44 -38t-16.5 -46q0 -88 236 -102q323 -23 323 -232z" />
<glyph unicode="&#xe24;" horiz-adv-x="819" d="M635 -307v848q0 86 -63.5 132t-161.5 46q-150 0 -226 -94v-510h123v-115h-246v655q123 178 349 179q150 0 243 -70q104 -76 105 -207v-864h-123z" />
<glyph unicode="&#xe25;" horiz-adv-x="837" d="M653 0v330q-31 57 -99.5 94t-154.5 37q-113 0 -179 -59.5t-66 -147.5q0 -61 41 -105.5t102 -44.5q66 0 123 37l72 -88q-76 -63 -195 -63q-115 0 -193 78q-74 78 -73 186q0 131 98 225q102 96 270 96q156 0 254 -86v121q-18 45 -79.5 77t-131.5 32q-180 0 -243 -125h-131 q39 117 138 178.5t234 61.5q131 0 226 -64q86 -55 110 -137v-633h-123z" />
<glyph unicode="&#xe26;" horiz-adv-x="839" d="M655 -307v848q0 86 -63.5 132t-161.5 46q-150 0 -225 -94v-625h-205v115h82v540q123 178 348 179q150 0 244 -70q104 -76 104 -207v-864h-123z" />
<glyph unicode="&#xe27;" horiz-adv-x="776" d="M745 410q0 -182 -94 -297q-102 -127 -274 -127q-117 0 -211 69q-102 74 -135 199h125q66 -154 221 -154q119 0 186 97q59 88 60 213q0 125 -60 213q-68 96 -186 96q-158 0 -217 -154h-129q33 125 135 199q94 70 211 70q172 0 274 -127q94 -115 94 -297z" />
<glyph unicode="&#xe28;" horiz-adv-x="819" d="M635 0v549q0 74 -66.5 119t-158.5 45q-90 0 -156 -43q-70 -45 -70 -121v-80h258v-115h-258v-354h-123v549q0 119 107 201q100 76 242 75q86 0 147 -26l80 92l98 -68l-71 -82q94 -80 94 -192v-549h-123z" />
<glyph unicode="&#xe29;" horiz-adv-x="829" d="M758 375v-109q0 -121 -105 -200q-100 -80 -243 -80q-139 0 -242 77q-106 82 -107 203v553h123v-553q0 -78 70 -123q66 -43 156 -43q92 0 158.5 45t66.5 121v109h-238v155l62 -41h176v330h123v-330h82v-114h-82z" />
<glyph unicode="&#xe2a;" horiz-adv-x="837" d="M653 0v330q-31 57 -99.5 94t-154.5 37q-113 0 -179 -59.5t-66 -147.5q0 -61 41 -105.5t102 -44.5q66 0 123 37l72 -88q-76 -63 -195 -63q-115 0 -193 78q-74 78 -73 186q0 131 98 225q102 96 270 96q156 0 254 -86v121q-18 45 -79.5 77t-131.5 32q-180 0 -243 -125h-131 q39 117 138 178.5t234 61.5q84 0 158 -29l78 86l100 -68q-16 -20 -34.5 -40.5t-39.5 -41.5q51 -45 74 -108v-633h-123z" />
<glyph unicode="&#xe2b;" horiz-adv-x="829" d="M655 0v410q0 78 -63.5 128t-153.5 50l-254 -176v-412h-123v819h123v-272l420 282l139 -36l-186 -129q100 -18 160.5 -82t60.5 -152v-430h-123z" />
<glyph unicode="&#xe2c;" horiz-adv-x="1058" d="M1069 856q-25 -88 -123 -123q53 -41 53 -112q0 -10 -1 -19.5t-3 -19.5l-155 -582h-99l-213 618l-213 -618h-96l-219 819h125l154 -573l196 573h109l196 -573l82 305q8 25 8 53q0 109 -116 109h-70v106h113q135 0 159 86l33 119h125z" />
<glyph unicode="&#xe2d;" horiz-adv-x="892" d="M862 410q0 -184 -114 -306q-113 -119 -302 -118q-188 0 -301 118q-115 121 -114 306q0 61 8 96h321v-115h-206q4 -63 26.5 -116.5t60.5 -92.5t91 -60.5t114 -21.5q66 0 119 22.5t92 64.5t60.5 98.5t21.5 124.5t-21.5 124t-59 98t-92 64.5t-120.5 22.5q-172 0 -258 -156 h-133q115 270 391 271q188 0 302 -119q114 -121 114 -305z" />
<glyph unicode="&#xe2e;" horiz-adv-x="892" d="M862 410q0 -184 -114 -306q-113 -119 -302 -118q-188 0 -301 118q-115 121 -114 306q0 61 8 96h321v-115h-206q4 -63 26.5 -116.5t60.5 -92.5t91 -60.5t114 -21.5q66 0 119 22.5t92 64.5t60.5 98.5t21.5 124.5t-21.5 124t-59 98t-92 64.5t-120.5 22.5q-172 0 -258 -156 h-133q115 270 391 271q104 0 185 -39l84 96l94 -64l-82 -94q135 -118 135 -323z" />
<glyph unicode="&#xe2f;" horiz-adv-x="792" d="M598 0v569q-131 -94 -299 -94q-135 0 -211 60q-68 53 -68 141q0 80 74 143h160q-37 -16 -68.5 -58t-31.5 -79q0 -98 141 -98q217 0 303 131v104h123v-819h-123z" />
<glyph unicode="&#xe30;" horiz-adv-x="307" d="M31 582v135h123v-58h133v-77h-256zM31 102v136h123v-58h133v-78h-256z" />
<glyph unicode="&#xe31;" d="M-358 922v184h122v-82h431v-102h-553z" />
<glyph unicode="&#xe32;" horiz-adv-x="579" d="M395 0v506q0 98 -50 155.5t-148 57.5t-187 -57v129q78 43 193 43q158 0 239 -89q76 -76 76 -206v-539h-123z" />
<glyph unicode="&#xe33;" horiz-adv-x="579" d="M-6 1028q0 -45 -34 -75.5t-83 -30.5t-83 30.5t-34 75.5t34 76t83 31t83 -31t34 -76zM395 0v506q0 98 -50 155.5t-148 57.5t-187 -57v129q78 43 193 43q158 0 239 -89q76 -76 76 -206v-539h-123zM-76 1028q0 43 -47 43t-47 -43t47 -43t47 43z" />
<glyph unicode="&#xe34;" d="M-696 922v102h635v-102h-635z" />
<glyph unicode="&#xe35;" d="M-696 922v102h512v102h123v-204h-635z" />
<glyph unicode="&#xe36;" d="M-6 1028q0 -45 -34 -75.5t-83 -30.5h-573v102h456v4q0 45 34 76t83 31t83 -31t34 -76zM-76 1028q0 43 -47 43t-47 -43t47 -43t47 43z" />
<glyph unicode="&#xe37;" d="M-696 922v102h348v102h102v-102h62v102h123v-204h-635z" />
<glyph unicode="&#xe38;" d="M-184 -328v144h-82v102h205v-246h-123z" />
<glyph unicode="&#xe39;" d="M-61 -205q0 -55 -52.5 -89t-126.5 -34q-109 0 -170 68v82h-61v96h184v-143q25 -12 47 -13q55 0 56 39v117h123v-123v0z" />
<glyph unicode="&#xe3a;" d="M-41 -164q0 -35 -24.5 -58.5t-57.5 -23.5q-35 0 -58.5 23.5t-23.5 58.5q0 33 23.5 57.5t58.5 24.5q33 0 57.5 -24.5t24.5 -57.5z" />
<glyph unicode="&#xe3f;" horiz-adv-x="722" d="M686 303q0 -143 -98 -223q-86 -68 -228 -78v-162h-69v160h-211v1081h127q16 0 36.5 -1t47.5 -3v156h69v-166q229 -45 230 -283q0 -31 -7.5 -61.5t-19.5 -57t-28.5 -46t-34.5 -29.5v-19q76 -14 131 -94t55 -174zM469 782q0 178 -223 179h-35v-359h31q109 0 159 33 q68 41 68 147zM557 311q0 184 -268 185h-78v-375h98q248 0 248 190z" />
<glyph unicode="&#xe40;" horiz-adv-x="286" d="M82 0v819h123v-819h-123z" />
<glyph unicode="&#xe41;" horiz-adv-x="512" d="M307 0v819h123v-819h-123zM82 0v819h123v-819h-123z" />
<glyph unicode="&#xe42;" horiz-adv-x="307" d="M121 1153q-37 0 -37 -18t37 -43q47 -33 67 -60q37 -45 37 -114v-918h-123v903q0 63 -73 125q-74 61 -74 109q0 63 49 98t125 35h283v-117h-291z" />
<glyph unicode="&#xe43;" horiz-adv-x="307" d="M330 1102q0 -51 -54 -105q-51 -51 -51 -102v-895h-123v915q0 61 52 107q53 47 53 76q0 72 -98 71q-106 0 -107 -108h-123q0 49 17.5 89t48 69.5t72.5 45t92 15.5q47 0 87 -14.5t69.5 -38t47 -56t17.5 -69.5z" />
<glyph unicode="&#xe44;" horiz-adv-x="307" d="M334 1094q-109 -90 -109 -232v-862h-123v842q0 131 103 229l-35 37l-102 -86l-195 162l78 86l119 -105l118 95l146 -166v0z" />
<glyph unicode="&#xe45;" horiz-adv-x="579" d="M395 -307v813q0 98 -50 155.5t-148 57.5t-187 -57v129q78 43 193 43q158 0 239 -89q76 -76 76 -206v-846h-123z" />
<glyph unicode="&#xe46;" horiz-adv-x="817" d="M633 -307v885q0 111 -96 139l-142 -121l-145 121q-96 -29 -96 -139v-27h168v-117h-291v144q0 117 71.5 184t194.5 67l96 -81l96 81q123 0 195 -67.5t72 -183.5v-885h-123z" />
<glyph unicode="&#xe47;" d="M-440 1108q-115 0 -115 -78v-6h88l111 57l108 -57h119v-102h-125l-102 59l-103 -59h-219v79q0 86 60.5 137.5t171.5 51.5h383v-82h-377z" />
<glyph unicode="&#xe48;" d="M-184 1188v184h123v-184h-123z" />
<glyph unicode="&#xe49;" d="M-254 1188v76q0 41 -41 41h-16v77h80q94 0 94 -75v-23h246v-96h-363z" />
<glyph unicode="&#xe4a;" d="M20 1188v100q0 31 -22 31l-94 -72l-97 72q-31 0 -30 -33v-18h59v-80h-164v94q0 113 121 113h39l72 -56l69 56h35q117 0 117 -103v-16h117v-88h-222z" />
<glyph unicode="&#xe4b;" d="M-68 1264v-76h-110v76h-92v86h92v75h110v-75h93v-86h-93z" />
<glyph unicode="&#xe4c;" d="M-78 1176q-61 0 -61 -50v-20h-117v35q0 113 133 112h100v-77h-55z" />
<glyph unicode="&#xe4d;" d="M-6 1028q0 -45 -34 -75.5t-83 -30.5t-83 30.5t-34 75.5t34 76t83 31t83 -31t34 -76zM-76 1028q0 43 -47 43t-47 -43t47 -43t47 43z" />
<glyph unicode="&#xe4e;" />
<glyph unicode="&#xe4f;" horiz-adv-x="962" d="M901 410q0 -174 -123 -297t-297 -123t-297 123t-123 297t123 297t297 122q174 0 297 -122q123 -123 123 -297zM840 410q0 147 -107 252q-104 106 -252 106q-147 0 -254 -106q-104 -104 -104 -252q0 -145 104 -254q109 -104 254 -105q147 0 252 105q107 107 107 254z M737 410q0 -106 -75 -183q-74 -74 -181 -73q-104 0 -182 73q-74 78 -74 183q0 106 74 180q76 76 182 76t181 -76q75 -74 75 -180z" />
<glyph unicode="&#xe50;" horiz-adv-x="761" d="M731 307q0 -129 -102 -225q-100 -94 -248 -94q-147 0 -248 94q-102 96 -102 225t102 225q100 94 248 95q147 0 248 -95q102 -96 102 -225zM610 307q0 88 -67 150q-68 61 -164 61t-164 -61t-68 -150q0 -88 68 -149t164 -62q96 0 164 62q67 61 67 149z" />
<glyph unicode="&#xe51;" horiz-adv-x="811" d="M780 311q0 -154 -139 -268q-127 -104 -297 -127l-59 104q152 14 260 95q113 82 112 196q0 47 -19.5 85t-54 64.5t-81.5 42t-103 15.5q-49 0 -94 -14.5t-78.5 -40t-53 -60t-19.5 -75.5q0 -47 29.5 -87t76.5 -55q-29 41 -29 90q0 61 48.5 105.5t115.5 44.5q68 0 116 -44 t48 -106q0 -43 -20.5 -79.5t-56.5 -64.5t-84 -44t-103 -16q-57 0 -106.5 19.5t-84 54t-54 80.5t-19.5 102q0 131 112 217q106 82 254 82q162 0 271 -84q112 -89 112 -232zM459 276q0 55 -64 56q-63 0 -63 -56q0 -55 63 -55q64 0 64 55z" />
<glyph unicode="&#xe52;" horiz-adv-x="1148" d="M145 0q-25 301 -88 481q-61 176 -221 322l96 74q172 -154 242 -359q59 -176 84 -405h707v319q0 41 -29 65.5t-66 24.5q-63 0 -100 -55v-291h-123v295q-45 51 -112 51q-49 0 -85 -26.5t-40 -63.5q4 0 10 2h14q59 0 103.5 -39t44.5 -96q0 -55 -44 -94t-104 -39 q-61 0 -104 39t-43 94v117q0 47 20.5 87t54 69.5t78.5 46t95 16.5q98 0 174 -60q72 59 161 60q43 0 83 -14.5t70 -39t47 -60.5t17 -79v-442h-942zM489 299q0 51 -55 51t-55 -51t55 -51t55 51z" />
<glyph unicode="&#xe53;" horiz-adv-x="964" d="M780 0v434q0 88 -104 88q-70 0 -111 -53v-469h-123v473q-43 49 -123 49q-51 0 -93 -29.5t-42 -74.5v-137q18 6 41 6q68 0 116 -44t48 -106q0 -61 -48 -104t-116 -43t-116 43t-48 104v281q0 88 78 153q78 63 180 64q109 0 185 -60q78 59 172 60q45 0 86 -14.5t72.5 -39 t50 -59.5t18.5 -78v-444h-123zM289 137q0 55 -64 56q-63 0 -63 -56q0 -55 63 -55q64 0 64 55z" />
<glyph unicode="&#xe54;" horiz-adv-x="872" d="M811 -25q-82 47 -172 48q-33 0 -117 -19q-88 -16 -153 -16q-139 0 -232 73q-102 82 -106 228q-4 139 104 231q106 94 258 94h283q84 0 84 230h123q4 -145 -43 -236q-55 -106 -164 -106h-283q-49 0 -93 -15.5t-77 -44t-51 -67.5t-18 -86q4 -94 71 -146q66 -47 152 -47 q18 0 49 4t76 13q-72 66 -72 143q0 68 49 113t117 45t116 -44t48 -108q0 -80 -74 -127q23 0 31 -2q111 -18 168 -70zM659 262q0 55 -63 55t-64 -55q0 -55 64 -55q63 0 63 55z" />
<glyph unicode="&#xe55;" horiz-adv-x="872" d="M811 -25q-82 47 -172 48q-33 0 -117 -19q-88 -16 -153 -16q-139 0 -232 73q-104 84 -106 228q-2 111 71 200q70 82 187 111q-23 39 -23 72q0 63 51.5 108t120.5 45q72 0 122 -44t50 -109q0 -31 -16 -58h82q53 0 72 76q10 43 12 154h123q2 -139 -45 -236 q-51 -106 -162 -106h-283q-49 0 -93 -15.5t-77 -44t-51 -67.5t-18 -86q4 -94 71 -146q66 -47 152 -47q18 0 49 4t76 13q-72 66 -72 143q0 68 49 113t117 45t116 -44t48 -108q0 -80 -74 -127q23 0 31 -2q111 -18 168 -70zM500 672q0 23 -18.5 40t-43.5 17t-43 -17.5 t-18 -39.5q0 -57 61 -58q62 1 62 58zM659 262q0 55 -63 55t-64 -55q0 -55 64 -55q63 0 63 55z" />
<glyph unicode="&#xe56;" horiz-adv-x="819" d="M788 315q0 -141 -110 -237q-111 -92 -275 -92q-152 0 -247 75q-96 78 -97 177q0 66 48.5 108.5t117.5 42.5q68 0 116 -44t48 -105q0 -82 -76 -127q35 -14 90 -15q55 0 102.5 15.5t83.5 44t56.5 68.5t20.5 89q0 43 -19.5 81t-53.5 65.5t-79 43t-94 15.5q-133 0 -242 -98 l-98 24q-33 186 -191 328l93 70q156 -121 200 -271q109 61 238 62q154 0 262 -90q106 -89 106 -230zM289 240q0 57 -64 57q-63 0 -63 -57t63 -58q64 1 64 58z" />
<glyph unicode="&#xe57;" horiz-adv-x="1198" d="M1239 774q-102 -61 -102 -166v-399q0 -104 -97.5 -164.5t-259.5 -52.5v440q0 43 -31.5 66.5t-72.5 23.5q-70 0 -111 -55v-467h-123v471q-45 51 -123 51q-51 0 -93 -30.5t-42 -75.5v-131q12 2 22.5 3t18.5 1q68 0 116 -44t48 -106q0 -63 -48 -106t-116 -43t-116 43 t-48 106v277q0 90 78 155q78 63 180 64q109 0 185 -60q78 59 172 60q45 0 86 -14.5t72.5 -39t50 -60.5t18.5 -79v-336q37 0 74 26t37 71v413q0 129 127 228l98 -70v0zM289 139q0 55 -64 56q-63 0 -63 -56q0 -55 63 -55q64 0 64 55z" />
<glyph unicode="&#xe58;" horiz-adv-x="899" d="M877 825q-29 -207 -140 -350q-125 43 -256 43q-72 0 -132 -18.5t-103 -49t-67.5 -71.5t-24.5 -88q0 -61 43 -115q33 -45 77 -61l138 129l188 -152l53 31q-94 31 -94 117q0 57 44 98t106 41q61 0 105 -43t44 -100q0 -129 -276 -256l-168 131l-127 -131q-104 27 -176 104 q-80 86 -80 207q0 152 127 248q119 88 303 88q66 0 122 -6.5t103 -16.5q55 94 72 240l119 -19v0zM764 240q0 53 -55 53t-56 -53q0 -49 56 -50q55 1 55 50z" />
<glyph unicode="&#xe59;" horiz-adv-x="962" d="M999 844q2 -16 3.5 -30.5t1.5 -31.5q0 -217 -113 -329l-64 18q-6 53 -61 53q-59 0 -70 -73q109 -166 144 -445l-123 -16q-68 535 -346 534q-45 0 -85 -16t-70 -44t-46 -67t-16 -82q0 -137 94 -194q-10 27 -10 49q0 63 48 107.5t115 44.5q68 0 116 -44.5t48 -107.5 q0 -39 -18.5 -73t-49 -58.5t-71.5 -37.5t-84 -13q-152 0 -233 100q-78 94 -78 229q0 141 98 230q98 92 242 92q135 0 235 -88q57 88 160 88q49 0 94 -27q31 96 14 232h125v0zM463 170q0 57 -62 57q-61 0 -61 -57t61 -57q62 0 62 57z" />
<glyph unicode="&#xe5a;" />
<glyph unicode="&#xe5b;" />
<glyph unicode="&#x2000;" horiz-adv-x="795" />
<glyph unicode="&#x2001;" horiz-adv-x="1591" />
<glyph unicode="&#x2002;" horiz-adv-x="795" />
<glyph unicode="&#x2003;" horiz-adv-x="1591" />
<glyph unicode="&#x2004;" horiz-adv-x="530" />
<glyph unicode="&#x2005;" horiz-adv-x="397" />
<glyph unicode="&#x2006;" horiz-adv-x="265" />
<glyph unicode="&#x2007;" horiz-adv-x="265" />
<glyph unicode="&#x2008;" horiz-adv-x="198" />
<glyph unicode="&#x2009;" horiz-adv-x="318" />
<glyph unicode="&#x200a;" horiz-adv-x="88" />
<glyph unicode="&#x200c;" horiz-adv-x="307" />
<glyph unicode="&#x200d;" horiz-adv-x="432" />
<glyph unicode="&#x200e;" horiz-adv-x="686" />
<glyph unicode="&#x200f;" horiz-adv-x="712" />
<glyph unicode="&#x2010;" horiz-adv-x="456" d="M72 317v103h313v-103h-313z" />
<glyph unicode="&#x2011;" horiz-adv-x="456" d="M72 317v103h313v-103h-313z" />
<glyph unicode="&#x2012;" horiz-adv-x="456" d="M72 317v103h313v-103h-313z" />
<glyph unicode="&#x2013;" horiz-adv-x="798" d="M61 317v103h676v-103h-676z" />
<glyph unicode="&#x2014;" horiz-adv-x="1597" d="M61 317v103h1475v-103h-1475z" />
<glyph unicode="&#x2018;" horiz-adv-x="372" d="M291 821q0 -39 -29 -67.5t-69 -28.5q-49 0 -80 36t-31 83q0 147 168 241l31 -36q-98 -53 -127 -146q12 4 20 5t14 3q8 2 11 2q37 0 64.5 -27.5t27.5 -64.5z" />
<glyph unicode="&#x2019;" horiz-adv-x="372" d="M291 967q0 -147 -168 -242l-31 37q98 53 129 147q-43 -12 -47 -12q-37 0 -64.5 27.5t-27.5 64.5q0 39 28.5 67.5t69.5 28.5q49 0 80 -35.5t31 -82.5z" />
<glyph unicode="&#x201a;" />
<glyph unicode="&#x201c;" horiz-adv-x="663" d="M582 821q0 -39 -29 -67.5t-70 -28.5q-49 0 -79.5 36t-30.5 83q0 147 168 241l30 -36q-98 -53 -127 -146q12 4 20.5 5t14.5 3q8 2 10 2q37 0 65 -27.5t28 -64.5zM291 821q0 -39 -29 -67.5t-69 -28.5q-49 0 -80 36t-31 83q0 147 168 241l31 -36q-98 -53 -127 -146 q12 4 20 5t14 3q8 2 11 2q37 0 64.5 -27.5t27.5 -64.5z" />
<glyph unicode="&#x201d;" horiz-adv-x="663" d="M582 967q0 -147 -168 -242l-31 37q98 53 129 147q-43 -12 -47 -12q-37 0 -64.5 27.5t-27.5 64.5q0 39 28.5 67.5t69.5 28.5q49 0 80 -35.5t31 -82.5zM291 967q0 -147 -168 -242l-31 37q98 53 129 147q-43 -12 -47 -12q-37 0 -64.5 27.5t-27.5 64.5q0 39 28.5 67.5 t69.5 28.5q49 0 80 -35.5t31 -82.5z" />
<glyph unicode="&#x201e;" />
<glyph unicode="&#x2020;" />
<glyph unicode="&#x2021;" />
<glyph unicode="&#x2022;" horiz-adv-x="737" d="M676 410q0 -127 -90 -217t-217 -91q-127 0 -217 91q-90 90 -91 217q0 127 91 217q90 90 217 90t217 -90t90 -217z" />
<glyph unicode="&#x2026;" horiz-adv-x="978" d="M893 84q0 -35 -24.5 -59.5t-59.5 -24.5t-59.5 24.5t-24.5 59.5t24.5 59.5t59.5 24.5t59.5 -24.5t24.5 -59.5zM573 84q0 -35 -24.5 -59.5t-59.5 -24.5t-59 24.5t-24 59.5t24.5 59.5t58.5 24.5q35 0 59.5 -24.5t24.5 -59.5zM254 84q0 -35 -24.5 -59.5t-59.5 -24.5 t-59.5 24.5t-24.5 59.5t24.5 59.5t59.5 24.5t59.5 -24.5t24.5 -59.5z" />
<glyph unicode="&#x202f;" horiz-adv-x="318" />
<glyph unicode="&#x2030;" />
<glyph unicode="&#x2032;" />
<glyph unicode="&#x2033;" />
<glyph unicode="&#x2039;" />
<glyph unicode="&#x203a;" />
<glyph unicode="&#x2044;" />
<glyph unicode="&#x205f;" horiz-adv-x="397" />
<glyph unicode="&#x20ac;" />
<glyph unicode="&#x2113;" />
<glyph unicode="&#x2122;" />
<glyph unicode="&#x2126;" />
<glyph unicode="&#x212e;" />
<glyph unicode="&#x2202;" />
<glyph unicode="&#x2206;" />
<glyph unicode="&#x220f;" />
<glyph unicode="&#x2211;" />
<glyph unicode="&#x2212;" horiz-adv-x="798" d="M61 317v103h676v-103h-676z" />
<glyph unicode="&#x221a;" />
<glyph unicode="&#x221e;" />
<glyph unicode="&#x222b;" />
<glyph unicode="&#x2248;" />
<glyph unicode="&#x2260;" />
<glyph unicode="&#x2264;" />
<glyph unicode="&#x2265;" />
<glyph unicode="&#x25ca;" />
<glyph unicode="&#x25cc;" />
<glyph unicode="&#xe000;" horiz-adv-x="675" d="M0 676h676v-676h-676v676z" />
<glyph unicode="&#xf700;" horiz-adv-x="792" d="M762 418q0 -199 -137 -318q-147 -127 -379 -112l-101 420h-88v104h189l98 -412q129 8 213 99q82 88 82 219q0 66 -20.5 119t-58.5 92t-90 60.5t-116 21.5q-160 0 -284 -125l-101 76q168 164 389 163q102 0 183 -37l92 103l102 -68l-92 -102q119 -113 119 -303z" />
<glyph unicode="&#xf701;" d="M-860 922v102h594v-102h-594z" />
<glyph unicode="&#xf702;" d="M-860 922v102h471v102h123v-204h-594z" />
<glyph unicode="&#xf703;" d="M-211 1028q0 -45 -34 -75.5t-83 -30.5h-532v102h416v4q0 45 33.5 76t82.5 31t83 -31t34 -76zM-281 1028q0 43 -47 43t-47 -43t47 -43t47 43z" />
<glyph unicode="&#xf704;" d="M-860 922v102h307v102h102v-102h62v102h123v-204h-594z" />
<glyph unicode="&#xf705;" d="M-410 922v225h123v-225h-123z" />
<glyph unicode="&#xf706;" d="M-387 922v79q0 43 -43 43h-19v82h84q100 0 101 -77v-25h299v-102h-422z" />
<glyph unicode="&#xf707;" d="M-369 922v120q0 37 -26 37l-113 -86l-117 86q-37 0 -37 -39v-22h72v-96h-196v112q0 135 145 135h47l86 -65l82 65h43q139 0 139 -122v-23h244v-102h-369z" />
<glyph unicode="&#xf708;" d="M-346 1008v-86h-123v86h-102v94h102v86h123v-86h102v-94h-102z" />
<glyph unicode="&#xf709;" d="M-303 995q-63 0 -64 -51v-22h-122v36q0 119 139 119h106v-82h-59z" />
<glyph unicode="&#xf70a;" d="M-184 922v225h123v-225h-123z" />
<glyph unicode="&#xf70b;" d="M-334 922v79q0 43 -43 43h-18v82h84q100 0 100 -77v-25h258v-102h-381z" />
<glyph unicode="&#xf70c;" d="M-276 922v120q0 37 -27 37l-113 -86l-116 86q-37 0 -37 -39v-22h71v-96h-196v112q0 135 145 135h47l86 -65l82 65h43q139 0 139 -122v-23h142v-102h-266z" />
<glyph unicode="&#xf70d;" d="M-61 1008v-86h-123v86h-103v94h103v86h123v-86h102v-94h-102z" />
<glyph unicode="&#xf70e;" d="M-80 995q-63 0 -63 -51v-22h-123v36q0 119 139 119h107v-82h-60z" />
<glyph unicode="&#xf70f;" horiz-adv-x="1351" d="M1290 256q0 -123 -94 -197t-233 -73q-137 0 -234 73q-94 74 -94 197v283q0 86 -63.5 133t-161.5 47q-147 0 -226 -96v-510h123v-113h-246v655q123 178 349 179q150 0 243 -70q104 -76 105 -207v-301q0 -74 58 -115t147 -41q88 0 146 41t58 115v563h123v-563v0z" />
<glyph unicode="&#xf710;" d="M-479 922v184h123v-82h430v-102h-553z" />
<glyph unicode="&#xf711;" d="M-211 1028q0 -45 -34 -75.5t-83 -30.5t-82.5 30.5t-33.5 75.5t33.5 76t82.5 31t83 -31t34 -76zM-281 1028q0 43 -47 43t-47 -43t47 -43t47 43z" />
<glyph unicode="&#xf712;" d="M-557 1108q-115 0 -115 -78v-6h88l111 57l108 -57h119v-102h-125l-102 59l-102 -59h-220v79q0 86 60.5 137.5t171.5 51.5h383v-82h-377z" />
<glyph unicode="&#xf713;" d="M-389 1188v184h123v-184h-123z" />
<glyph unicode="&#xf714;" d="M-389 1188v76q0 41 -41 41h-16v77h79q94 0 95 -75v-23h245v-96h-362z" />
<glyph unicode="&#xf715;" d="M-98 1188v100q0 31 -23 31l-94 -72l-96 72q-31 0 -31 -33v-18h59v-80h-163v94q0 113 120 113h39l72 -56l70 56h34q117 0 117 -103v-16h117v-88h-221z" />
<glyph unicode="&#xf716;" d="M-272 1264v-76h-111v76h-92v86h92v75h111v-75h92v-86h-92z" />
<glyph unicode="&#xf717;" d="M-262 1176q-61 0 -62 -50v-20h-116v35q0 113 133 112h100v-77h-55z" />
<glyph unicode="&#xf718;" d="M-184 -635v143h-82v103h205v-246h-123z" />
<glyph unicode="&#xf719;" d="M-61 -512q0 -55 -52.5 -89t-126.5 -34q-109 0 -170 68v82h-61v96h184v-143q25 -12 47 -13q55 0 56 39v117h123v-123v0z" />
<glyph unicode="&#xf71a;" d="M-61 -471q0 -35 -25 -58.5t-57 -23.5q-35 0 -58.5 23.5t-23.5 58.5q0 33 23.5 57.5t58.5 24.5q33 0 57.5 -24.5t24.5 -57.5z" />
<glyph unicode="&#xf71b;" horiz-adv-x="839" d="M655 -328l-174 129l-174 -129h-307v117h281l202 141l172 -120v725q0 88 -63.5 135t-161.5 47q-147 0 -225 -96v-621h-205v117h82v536q123 180 348 181q147 0 244 -72q104 -76 104 -211v-879h-123z" />
<glyph unicode="&#xf71c;" horiz-adv-x="839" d="M655 -328l-106 101l-115 -111l-112 113l-111 -103h-211v115h174l150 131l110 -115l113 115l108 -98v719q0 86 -63.5 133t-161.5 47q-147 0 -225 -96v-623h-205v115h82v540q123 178 348 179q147 0 244 -72q104 -76 104 -207v-883h-123z" />
<glyph unicode="&#xf71d;" horiz-adv-x="1058" d="M1069 856q-25 -88 -123 -123q53 -41 53 -112q0 -10 -1 -19.5t-3 -19.5l-155 -582h-99l-213 618l-213 -618h-96l-219 819h125l154 -573l196 573h109l196 -573l82 305q8 25 8 53q0 109 -116 109h-70v106h113q135 0 159 86l33 119h125z" />
<glyph horiz-adv-x="638" />
<glyph />
<glyph horiz-adv-x="579" d="M395 0v506q0 98 -50 155.5t-148 57.5t-187 -57v129q78 43 193 43q158 0 239 -89q76 -76 76 -206v-539h-123zM-211 1028q0 -45 -34 -75.5t-83 -30.5t-82.5 30.5t-33.5 75.5t33.5 76t82.5 31t83 -31t34 -76zM-281 1028q0 43 -47 43t-47 -43t47 -43t47 43z" />
</font>
</defs>
</svg>
